<?xml version="1.0" standalone="no"?>
<!DOCTYPE svg PUBLIC "-//W3C//DTD SVG 20010904//EN" "http://www.w3.org/TR/2001/REC-SVG-20010904/DTD/svg10.dtd">
<!-- Created using Krita: https://krita.org -->
<svg xmlns="http://www.w3.org/2000/svg" 
    xmlns:xlink="http://www.w3.org/1999/xlink"
    xmlns:krita="http://krita.org/namespaces/svg/krita"
    xmlns:sodipodi="http://sodipodi.sourceforge.net/DTD/sodipodi-0.dtd"
    width="365.28pt"
    height="108.24pt"
    viewBox="0 0 365.28 108.24">
<defs/>
<path id="shape0" transform="matrix(0.726475256074752 0 0 0.726475256074752 89.360477742223 30.2889229694271)" fill="#ffffff" fill-rule="evenodd" stroke="#392526" stroke-width="1.2" stroke-linecap="square" stroke-linejoin="bevel" krita:marker-fill-method="auto" d="M24.8037 0C23.8269 6.17752 24.3642 9.1402 26.4153 8.88806C29.4921 8.50984 46.9272 0.756431 56.4505 11.7247C62.7994 19.0368 64.8994 29.6899 62.7506 43.6839C60.1134 57.0475 52.9831 67.0071 41.3597 73.5629C29.7363 80.1186 18.1618 84.279 6.63612 86.044C4.09656 86.044 1.99653 87.5568 0.336048 90.5826C-1.32443 93.6083 3.16865 82.4509 13.8153 57.1105C11.9594 60.3884 11.9106 62.7207 13.6687 64.1075C15.4269 65.4943 19.92 65.8095 27.1479 65.053C39.8772 61.7736 47.9842 54.5245 51.4691 43.3057C54.954 32.0867 53.9772 24.68 48.5388 21.0855C40.4992 17.5302 34.1992 18.2236 29.6386 23.1657C25.078 28.1078 21.4641 33.4974 18.7967 39.3344C18.7967 39.3344 20.799 26.2229 24.8037 0Z" sodipodi:nodetypes="czzczczczczczcc"/><path id="shape01" transform="matrix(0.726475277916704 0 0 0.726475277916704 93.0000062425034 63.1650000771831)" fill="#ded6d3" fill-rule="evenodd" stroke="none" stroke-width="1.3296" stroke-linecap="square" stroke-linejoin="bevel" d="M3.17974 34.5848C1.99161 36.0127 1.30061 38.6235 0 40.6139C8.64746 39.3627 20.7225 36.0642 26.8832 32.3549C33.3945 29.8052 38.6952 27.0643 45.0532 21.4116C51.4113 15.7589 55.4915 8.2066 56.6571 0C51.4554 17.7643 31.2464 29.072 3.17974 34.5848Z" sodipodi:nodetypes="ccczcc"/><path id="shape1" transform="matrix(0.726475277916704 0 0 0.726475277916704 108.06006148431 40.3808971063877)" fill="#ded6d3" fill-rule="evenodd" stroke="none" stroke-width="1.44" stroke-linecap="square" stroke-linejoin="bevel" d="M2.14728 1.81576C0.763374 3.21657 0.89855 11.5579 0 12.7437C2.24 9.73301 7.64955 4.26581 13.3153 4.33407C16.5571 4.2068 20.5048 5.34786 21.3453 5.96928C23.5105 7.80512 18.5954 0.511521 13.7815 0.214742C10.5779 -0.771907 2.4101 1.9702 2.14728 1.81576Z" sodipodi:nodetypes="cccccc"/><path id="shape2" transform="matrix(0.726475277916704 0 0 0.726475277916704 0.3852745195552 3.10825720504704)" fill="#ffffff" fill-rule="evenodd" stroke="#2b0000" stroke-width="0.96" stroke-linecap="square" stroke-linejoin="bevel" d="M155.399 28.4256C157.697 82.6661 126.407 134.23 116.486 136.717C96.303 141.777 47.9642 139.272 43.1208 136.711C25.6175 127.456 -1.36384 67.5826 0.0536695 28.7761C0.807928 8.12706 42.1751 -0.699428 80.8798 0.0430807C118.202 0.3004 154.66 10.994 155.399 28.4256Z" sodipodi:nodetypes="cssscs"/><path id="shape3" transform="matrix(0.726475277916704 0 0 0.726475277916704 2.51670036376671 5.39933400947324)" fill="#ded6d3" fill-rule="evenodd" stroke="none" stroke-width="1.3296" stroke-linecap="square" stroke-linejoin="bevel" d="M6.2302 40.9233C19.5202 22.8199 42.7069 13.0597 74.8669 12.2597C107.027 11.4597 130.307 20.8197 144.707 40.3397C148.226 37.7331 152.214 26.6396 144.677 17.9897C131.358 6.07253 107.742 0.0837177 74.5012 0.000917136C41.2601 -0.0818834 17.8649 5.4387 4.62961 17.8405C-2.04671 26.6078 -1.49263 34.9262 6.2302 40.9233Z" sodipodi:nodetypes="czcczcc"/><path id="shape4" transform="matrix(0.726475277916704 0 0 0.726475277916704 63.1233102317946 45.4800007702258)" fill="#ded6d3" fill-rule="evenodd" stroke="none" stroke-width="1.3296" stroke-linecap="square" stroke-linejoin="bevel" d="M66.646 0C67.1621 0.143041 64.4776 11.2594 62.3513 19.4088C59.0122 32.4952 52.1762 49.4034 44.1606 62.1395C39.5351 70.5892 33.13 77.2156 30.0159 77.956C23.1558 80.2895 3.72968 80.8639 0.640554 80.8176C-3.56774 80.9739 13.8796 81.4207 26.0917 72.6859C43.8912 59.5075 57.8037 31.9955 66.646 0Z" sodipodi:nodetypes="ccccccc"/><path id="shape011" transform="matrix(0.726475281178303 0 0 0.726475281178303 6.86006001792135 13.8000009491248)" fill="#8d5943" fill-rule="evenodd" stroke="none" stroke-width="1.3296" stroke-linecap="square" stroke-linejoin="bevel" d="M68.1096 0C108.098 0.658804 129.51 10.557 138.268 28.0778C141.794 31.5744 103.11 42.2337 65.3601 42.0984C31.3629 41.9766 -2.06878 31.4371 0.100115 27.8228C8.64307 13.5867 32.8046 1.28243 68.1096 0Z" sodipodi:nodetypes="ccccc"/><path id="shape02" transform="matrix(0.726475281178303 0 0 0.726475281178303 6.87271024405828 20.5343814270225)" fill="#2b0000" fill-rule="evenodd" stroke="none" stroke-width="1.3296" stroke-linecap="square" stroke-linejoin="bevel" d="M24.0614 0C-12.7829 29.4637 100.951 35.5042 42.6508 31.5662C17.1857 27.7509 -0.107853 21.9991 0.000506331 18.6881C1.55993 14.1869 7.91634 6.8366 24.0614 0Z" sodipodi:nodetypes="cccc"/><ellipse id="shape5" transform="matrix(0.726475277916704 0 0 0.726475277916704 27.9629056189948 62.9505103930984)" rx="9.6" ry="9.59999999999999" cx="9.6" cy="9.59999999999999" fill="#000000" fill-rule="evenodd" stroke="#000000" stroke-width="1.3296" stroke-linecap="square" stroke-linejoin="bevel"/><ellipse id="shape03" transform="matrix(0.726475238506856 0 0 0.726475238506856 72.3990979255257 63.2751218819958)" rx="9.6" ry="9.59999999999999" cx="9.6" cy="9.59999999999999" fill="#000000" stroke="#000000" stroke-width="1.3296" stroke-linecap="square" stroke-linejoin="bevel"/><ellipse id="shape6" transform="matrix(0.726475277916704 0 0 0.726475277916704 79.7460635379743 65.0427597028233)" rx="3" ry="2.88" cx="3" cy="2.88" fill="#ffffff" fill-rule="evenodd" stroke="#ffffff" stroke-width="1.3296" stroke-linecap="square" stroke-linejoin="bevel"/><ellipse id="shape04" transform="matrix(0.726475270417988 0 0 0.726475270417988 35.8266946076995 65.0228771902915)" rx="3" ry="2.88" cx="3" cy="2.88" fill="#ffffff" fill-rule="evenodd" stroke="#ffffff" stroke-width="1.3296" stroke-linecap="square" stroke-linejoin="bevel"/><path id="shape7" transform="matrix(0.726475277916704 0 0 0.726475277916704 47.6917289313725 77.4677978159788)" fill="#ffffff" fill-rule="evenodd" stroke="#000000" stroke-width="2.4" stroke-linecap="square" stroke-linejoin="bevel" d="M1.31113 0.169706C-0.959641 4.95645 -0.280819 7.81316 3.3476 8.73984C6.92228 10.4744 12.4938 6.84539 12.5966 4.24264C13.549 7.86583 16.0946 9.44975 20.2333 8.9944C25.2119 9.26977 26.4847 6.27163 24.0517 0" sodipodi:nodetypes="ccccc"/><ellipse id="shape05" transform="matrix(0.726475270417988 0 0 0.726475270417988 79.7460634862455 65.0427586895968)" rx="3" ry="2.88" cx="3" cy="2.88" fill="#ffffff" fill-rule="evenodd" stroke="#ffffff" stroke-width="1.3296" stroke-linecap="square" stroke-linejoin="bevel"/><text id="shape01" krita:useRichText="true" krita:textVersion="2" transform="matrix(1.00000000334183 0 0 1.00000000334183 151.292639431558 75.0994114531718)" fill="#2b0000" stroke-opacity="0" stroke="#000000" stroke-width="0" stroke-linecap="square" stroke-linejoin="bevel" font-family="URW Gothic" font-size="48" font-size-adjust="0.514706" font-stretch="normal" font-weight="600" letter-spacing="0" word-spacing="0"><tspan x="0">owo.cafe</tspan></text><text id="shape021" krita:useRichText="true" krita:textVersion="2" transform="matrix(0.999999993928296 0 0 0.999999993928296 150.149347261663 73.4582347073815)" fill="#8d5943" stroke-opacity="0" stroke="#000000" stroke-width="0.48" stroke-linecap="square" stroke-linejoin="bevel" font-family="URW Gothic" font-size="48" font-size-adjust="0.514706" font-stretch="normal" font-weight="600" letter-spacing="0" word-spacing="0"><tspan x="0">owo.cafe</tspan></text>
</svg>
