<?xml version="1.0" standalone="no"?>
<!DOCTYPE svg PUBLIC "-//W3C//DTD SVG 20010904//EN" "http://www.w3.org/TR/2001/REC-SVG-20010904/DTD/svg10.dtd">
<!-- Created using Krita: https://krita.org -->
<svg xmlns="http://www.w3.org/2000/svg" 
    xmlns:xlink="http://www.w3.org/1999/xlink"
    xmlns:krita="http://krita.org/namespaces/svg/krita"
    xmlns:sodipodi="http://sodipodi.sourceforge.net/DTD/sodipodi-0.dtd"
    width="187.44pt"
    height="148.8pt"
    viewBox="0 0 187.44 148.8">
<defs/>
<path id="shape0" transform="matrix(0.999999969934347 0 0 0.999999969934347 123.514330293882 41.9210206009936)" fill="#ffffff" fill-rule="evenodd" stroke="#ffffff" stroke-width="1.3296" stroke-linecap="square" stroke-linejoin="bevel" d="M24.8037 0C23.8269 6.17752 24.3642 9.1402 26.4153 8.88806C29.4921 8.50984 46.9272 0.756431 56.4505 11.7247C62.7994 19.0368 64.8994 29.6899 62.7506 43.6839C60.1134 57.0475 52.9831 67.0071 41.3597 73.5629C29.7363 80.1186 18.1618 84.279 6.63612 86.044C4.09656 86.044 1.99653 87.5568 0.336049 90.5826C-1.32443 93.6083 3.16865 82.4509 13.8153 57.1105C11.9594 60.3884 11.9106 62.7207 13.6687 64.1075C15.4269 65.4943 19.92 65.8095 27.1479 65.053C39.8772 61.7736 47.9842 54.5245 51.4691 43.3057C54.954 32.0867 53.9772 24.68 48.5388 21.0855C40.4992 17.5302 34.1992 18.2236 29.6386 23.1657C25.078 28.1078 21.4641 33.4974 18.7967 39.3344C18.7967 39.3344 20.799 26.2229 24.8037 0Z" sodipodi:nodetypes="czzczczczczczcc"/><path id="shape0" transform="translate(133.74405629098, 87.6043647311606)" fill="#ded6d3" fill-rule="evenodd" stroke="#ded6d3" stroke-width="1.3296" stroke-linecap="square" stroke-linejoin="bevel" d="M2.87595 34.9156C1.68782 36.3435 1.30061 38.442 0 40.4324C8.80479 38.4994 16.2011 36.0528 22.189 33.0926C28.7003 30.5429 35.135 26.4416 41.493 20.7889C47.8511 15.1362 51.6129 8.2066 52.7785 0C47.5768 17.7643 30.9426 29.4028 2.87595 34.9156Z" sodipodi:nodetypes="ccczcc"/><path id="shape1" transform="translate(154.236005939322, 57.8058462132165)" fill="#ded6d3" fill-rule="evenodd" stroke="#ded6d3" stroke-width="1.44" stroke-linecap="square" stroke-linejoin="bevel" d="M2.07889 0.778849C0.694986 2.17966 0.89855 5.87214 0 7.05796C2.71509 4.48616 6.39205 3.43964 11.0309 3.9184C14.7629 4.50204 17.062 5.51593 17.724 5.88415C19.8892 7.71999 13.6139 0.620804 8.79999 0.324025C5.59634 -0.662624 2.34171 0.933286 2.07889 0.778849Z" sodipodi:nodetypes="cccccc"/><path id="shape2" transform="translate(5.48886697988763, 5.19334325971891)" fill="#ffffff" fill-rule="evenodd" stroke="#ffffff" stroke-width="9.6" stroke-linecap="square" stroke-linejoin="bevel" d="M146.898 27.4489C148.108 81.7245 120.712 133.417 110.791 135.904C90.6086 140.964 43.5145 138.585 38.6711 136.024C21.1678 126.769 -2.48947 66.3344 0.212294 27.5961C2.84552 -10.1594 146.103 -8.17746 146.898 27.4489Z" sodipodi:nodetypes="cssss"/><path id="shape3" transform="translate(4.45195673652097, 7.64917808690305)" fill="#ded6d3" fill-rule="evenodd" stroke="#ded6d3" stroke-width="1.3296" stroke-linecap="square" stroke-linejoin="bevel" d="M6.21309 40.6259C19.5031 22.5225 42.228 13.0708 74.388 12.2708C106.548 11.4708 129.828 20.8308 144.228 40.3508C146.206 36.7167 151.62 26.5737 144.198 18.0008C130.879 6.08362 107.599 0.0836242 74.358 0.000823726C41.1169 -0.0819768 17.8786 6.07752 4.64332 18.4793C-2.033 27.2466 -1.50974 34.6288 6.21309 40.6259Z" sodipodi:nodetypes="czcczcc"/><path id="shape4" transform="translate(93.1480098471096, 64.7789558803345)" fill="#ded6d3" fill-rule="evenodd" stroke="#ded6d3" stroke-width="1.3296" stroke-linecap="square" stroke-linejoin="bevel" d="M61.5547 0C62.0708 0.143041 59.9983 11.3716 57.872 19.521C54.4043 32.5431 48.7512 49.2338 41.19 62.1971C36.623 70.5375 30.5507 77.8632 24.572 80.541C17.4021 82.4099 3.67156 83.423 0.691992 83.541C-3.5163 83.6973 12.3468 81.8779 24.5589 73.1431C42.3584 59.9647 52.7124 31.9955 61.5547 0Z" sodipodi:nodetypes="ccccccc"/><path id="shape01" transform="matrix(1.00000000448962 0 0 1.00000000448962 9.95173616797534 20.279998445902)" fill="#8d5943" fill-rule="evenodd" stroke="#8d5943" stroke-width="1.3296" stroke-linecap="square" stroke-linejoin="bevel" d="M66.6347 0C105.632 0.493623 129.51 9.50085 138.268 27.0217C141.794 30.5183 103.11 41.1776 65.3601 41.0423C31.3629 40.9205 -2.06878 30.381 0.100115 26.7667C8.64307 12.5306 30.9993 2.4387 66.6347 0Z" sodipodi:nodetypes="ccccc"/><path id="shape02" transform="matrix(1.00000000448962 0 0 1.00000000448962 9.43418766215707 28.8000061721991)" fill="#2b0000" fill-rule="evenodd" stroke="#34120c" stroke-width="1.3296" stroke-linecap="square" stroke-linejoin="bevel" d="M25.2458 0C-11.5985 29.4637 101.306 35.378 43.0058 31.44C17.5407 27.6247 -0.107863 21.98 0.00049622 18.669C1.55991 14.1678 9.1007 6.8366 25.2458 0Z" sodipodi:nodetypes="cccc"/><ellipse id="shape5" transform="translate(39.0000001217749, 86.8800005092077)" rx="9.6" ry="9.59999999999999" cx="9.6" cy="9.59999999999999" fill="#000000" fill-rule="evenodd" stroke="#000000" stroke-width="1.3296" stroke-linecap="square" stroke-linejoin="bevel"/><ellipse id="shape03" transform="matrix(0.999999945751975 0 0 0.999999945751975 100.166833539643 87.326831253164)" rx="9.6" ry="9.59999999999999" cx="9.6" cy="9.59999999999999" fill="#000000" stroke="#000000" stroke-width="1.3296" stroke-linecap="square" stroke-linejoin="bevel"/><ellipse id="shape6" transform="translate(110.28000027192, 89.760001210298)" rx="3" ry="2.88" cx="3" cy="2.88" fill="#ffffff" fill-rule="evenodd" stroke="#ffffff" stroke-width="1.3296" stroke-linecap="square" stroke-linejoin="bevel"/><ellipse id="shape04" transform="matrix(0.999999989677947 0 0 0.999999989677947 49.8245790548054 89.7326327462412)" rx="3" ry="2.88" cx="3" cy="2.88" fill="#ffffff" fill-rule="evenodd" stroke="#ffffff" stroke-width="1.3296" stroke-linecap="square" stroke-linejoin="bevel"/><path id="shape7" transform="translate(66.1569103509728, 106.863182131728)" fill="#ffffff" fill-rule="evenodd" stroke="#000000" stroke-width="2.4" stroke-linecap="square" stroke-linejoin="bevel" d="M1.31113 0.169706C-0.959642 4.95645 -0.28082 7.81316 3.3476 8.73984C6.92228 10.4744 12.4938 6.84539 12.5966 4.24264C13.549 7.86583 16.0946 9.44975 20.2333 8.9944C25.2119 9.26977 26.4847 6.27163 24.0517 0" sodipodi:nodetypes="ccccc"/><ellipse id="shape05" transform="matrix(0.999999989677947 0 0 0.999999989677947 110.280000200715 89.7599998155822)" rx="3" ry="2.88" cx="3" cy="2.88" fill="#ffffff" fill-rule="evenodd" stroke="#ffffff" stroke-width="1.3296" stroke-linecap="square" stroke-linejoin="bevel"/>
</svg>
