<?xml version="1.0" encoding="UTF-8" standalone="no"?>
<!-- Created using Krita: https://krita.org -->

<svg
   width="365.28pt"
   height="108.24pt"
   viewBox="0 0 365.28 108.24"
   version="1.1"
   id="svg23"
   sodipodi:docname="uwutan-banner.svg"
   inkscape:version="1.2.2 (b0a8486541, 2022-12-01)"
   inkscape:export-filename="uwutan-banner-opt.png"
   inkscape:export-xdpi="265"
   inkscape:export-ydpi="265"
   xmlns:inkscape="http://www.inkscape.org/namespaces/inkscape"
   xmlns:sodipodi="http://sodipodi.sourceforge.net/DTD/sodipodi-0.dtd"
   xmlns="http://www.w3.org/2000/svg"
   xmlns:svg="http://www.w3.org/2000/svg">
  <sodipodi:namedview
     id="namedview25"
     pagecolor="#ffffff"
     bordercolor="#666666"
     borderopacity="1.0"
     inkscape:showpageshadow="2"
     inkscape:pageopacity="0.0"
     inkscape:pagecheckerboard="0"
     inkscape:deskcolor="#d1d1d1"
     inkscape:document-units="pt"
     showgrid="false"
     inkscape:zoom="3.8764272"
     inkscape:cx="275.7694"
     inkscape:cy="55.979382"
     inkscape:window-width="2560"
     inkscape:window-height="1384"
     inkscape:window-x="2560"
     inkscape:window-y="26"
     inkscape:window-maximized="1"
     inkscape:current-layer="svg23" />
  <defs
     id="defs2" />
  <path
     id="shape0"
     transform="matrix(0.72647526335802 0 0 0.72647526335802 89.3604788678854 30.2889259348548)"
     fill="#ffffff"
     fill-rule="evenodd"
     stroke="#392526"
     stroke-width="1.2"
     stroke-linecap="square"
     stroke-linejoin="bevel"
     d="M24.8037 0C23.8269 6.17752 24.3642 9.1402 26.4153 8.88806C29.4921 8.50984 46.9272 0.756431 56.4505 11.7247C62.7994 19.0368 64.8994 29.6899 62.7506 43.6839C60.1134 57.0475 52.9831 67.0071 41.3597 73.5629C29.7363 80.1186 18.1618 84.279 6.63612 86.044C4.09656 86.044 1.99653 87.5568 0.336048 90.5826C-1.32443 93.6083 3.16865 82.4509 13.8153 57.1105C11.9594 60.3884 11.9106 62.7207 13.6687 64.1075C15.4269 65.4943 19.92 65.8095 27.1479 65.053C39.8772 61.7736 47.3674 54.4983 50.8523 43.2795C54.3372 32.0605 53.2302 25.9092 47.7918 22.3147C41.4983 19.7263 36.1408 18.7733 31.1714 23.0146C26.202 27.2559 21.4641 33.4974 18.7967 39.3344C19.2639 39.4512 20.799 26.2229 24.8037 0Z"
     sodipodi:nodetypes="czzczczczczczcc" />
  <path
     id="shape01"
     transform="matrix(0.726475285199972 0 0 0.726475285199972 93.0000071748737 63.1650033722094)"
     fill="#ded6d3"
     fill-rule="evenodd"
     stroke-opacity="0"
     stroke="#000000"
     stroke-width="0"
     stroke-linecap="square"
     stroke-linejoin="bevel"
     d="M3.17974 34.5848C1.99161 36.0127 1.30061 38.6235 0 40.6139C8.64746 39.3627 20.7225 36.0642 26.8832 32.3549C33.3945 29.8052 38.6952 27.0643 45.0532 21.4116C51.4113 15.7589 55.4915 8.2066 56.6571 0C51.5562 18.3012 31.4495 31.4597 3.17974 34.5848Z"
     sodipodi:nodetypes="ccczcc" />
  <path
     id="shape1"
     transform="matrix(0.726475285199972 0 0 0.726475285199972 111.45417386115 41.70508114941)"
     fill="#ded6d3"
     fill-rule="evenodd"
     stroke-opacity="0"
     stroke="#000000"
     stroke-width="0"
     stroke-linecap="square"
     stroke-linejoin="bevel"
     d="M1.22641 0.992915C-0.157502 2.39372 0.89855 7.22396 0 8.40976C2.2489 5.46139 3.00814 4.58476 8.58485 4.02973C11.8267 3.90246 16.2913 5.27682 17.1318 5.89824C19.297 7.73408 13.7492 0.58889 8.93525 0.292111C5.73165 -0.694538 1.48923 1.14735 1.22641 0.992915Z"
     sodipodi:nodetypes="cccccc" />
  <path
     id="shape2"
     transform="matrix(0.726475285199972 0 0 0.726475285199972 0.36553366080856 1.32119347008601)"
     fill="#ffffff"
     fill-rule="evenodd"
     stroke="#2b0000"
     stroke-width="0.96"
     stroke-linecap="square"
     stroke-linejoin="bevel"
     d="M155.028 35.3319C155.409 93.6709 128.917 139.011 116.115 143.623C106.213 147.19 47.2038 146.023 42.2788 143.623C23.6248 134.533 -1.61155 70.0818 0.080843 31.236C0.980207 10.5928 41.9787 -1.57006 81.0137 0.16354C118.597 -1.14321 154.861 9.83751 155.028 35.3319Z"
     sodipodi:nodetypes="cssscs" />
  <path
     id="shape3"
     transform="matrix(0.726475285199972 0 0 0.726475285199972 2.93190665834982 5.39935843281871)"
     fill="#ded6d3"
     fill-rule="evenodd"
     stroke-opacity="0"
     stroke="#000000"
     stroke-width="0"
     stroke-linecap="square"
     stroke-linejoin="bevel"
     d="M5.19147 40.5728C12.8049 25.6009 41.3073 12.6713 73.0527 12.891C104.798 13.1107 133.045 19.7477 144.135 40.3397C147.654 37.7331 151.642 26.6396 144.105 17.9897C130.786 6.0725 107.17 0.0836878 73.9297 0.000887255C40.6886 -0.0819133 18.894 5.62849 5.65867 18.0303C-1.01765 26.7976 -2.53136 34.5757 5.19147 40.5728Z"
     sodipodi:nodetypes="czcczcc" />
  <path
     id="shape4"
     transform="matrix(0.726475285199972 0 0 0.726475285199972 66.6399174040494 45.4800038879512)"
     fill="#ded6d3"
     fill-rule="evenodd"
     stroke-opacity="0"
     stroke="#000000"
     stroke-width="0"
     stroke-linecap="square"
     stroke-linejoin="bevel"
     d="M61.8054 0C62.4153 0.174291 61.109 11.527 58.4752 19.5072C55.1361 32.5936 49.4379 51.0386 41.4223 63.7747C36.7968 72.2244 28.8851 81.372 25.771 82.1124C18.9109 84.4459 3.8648 84.7283 0.775679 84.682C-3.43262 84.8383 10.2885 84.4232 22.5006 75.6884C41.7017 63.7948 52.9631 31.9955 61.8054 0Z"
     sodipodi:nodetypes="ccccccc" />
  <path
     id="shape011"
     transform="matrix(0.726475288461571 0 0 0.726475288461571 6.60391659539118 14.6795386725628)"
     fill="#8d5943"
     fill-rule="evenodd"
     stroke-opacity="0"
     stroke="#000000"
     stroke-width="0"
     stroke-linecap="square"
     stroke-linejoin="bevel"
     d="M67.9981 0C107.987 0.658804 129.863 9.34631 138.621 26.8671C142.919 31.3294 103.867 42.5192 65.6621 41.8146C30.8519 41.8284 -4.41755 30.6766 0.452699 26.6121C9.0671 12.6445 33.7419 0.69778 67.9981 0Z"
     sodipodi:nodetypes="ccccc" />
  <path
     id="shape02"
     transform="matrix(0.726475288461571 0 0 0.726475288461571 6.59951508527459 20.1600010352649)"
     fill="#2b0000"
     fill-rule="evenodd"
     stroke-opacity="0"
     stroke="#000000"
     stroke-width="0"
     stroke-linecap="square"
     stroke-linejoin="bevel"
     d="M26.76 0C-12.2106 30.5269 102.157 36.809 43.8563 32.871C18.1178 29.5113 -0.127168 23.4956 0.000667556 20.1521C1.54959 15.6299 10.2294 6.06548 26.76 0Z"
     sodipodi:nodetypes="cccc" />
  <ellipse
     id="shape6"
     transform="matrix(0.726475285199972 0 0 0.726475285199972 79.7460643374673 65.0427630166749)"
     rx="3"
     ry="2.88"
     cx="3"
     cy="2.88"
     fill="#ffffff"
     fill-rule="evenodd"
     stroke="#ffffff"
     stroke-width="1.3296"
     stroke-linecap="square"
     stroke-linejoin="bevel" />
  <ellipse
     id="shape04"
     transform="matrix(0.726475277701256 0 0 0.726475277701256 35.8266949668796 65.0228805039439)"
     rx="3"
     ry="2.88"
     cx="3"
     cy="2.88"
     fill="#ffffff"
     fill-rule="evenodd"
     stroke="#ffffff"
     stroke-width="1.3296"
     stroke-linecap="square"
     stroke-linejoin="bevel" />
  <path
     id="shape7"
     transform="matrix(0.726475285199972 0 0 0.726475285199972 47.6917292928956 77.4678012543976)"
     fill="#ffffff"
     fill-rule="evenodd"
     stroke="#000000"
     stroke-width="2.4"
     stroke-linecap="square"
     stroke-linejoin="bevel"
     d="M1.31113 0.169706C-0.959641 4.95645 -0.280819 7.81316 3.3476 8.73984C6.92228 10.4744 12.4938 6.84539 12.5966 4.24264C13.549 7.86583 16.0946 9.44975 20.2333 8.9944C25.2119 9.26977 26.4847 6.27163 24.0517 0"
     sodipodi:nodetypes="ccccc" />
  <ellipse
     id="shape05"
     transform="matrix(0.726475277701256 0 0 0.726475277701256 79.7460642857386 65.0427620034484)"
     rx="3"
     ry="2.88"
     cx="3"
     cy="2.88"
     fill="#ffffff"
     fill-rule="evenodd"
     stroke="#ffffff"
     stroke-width="1.3296"
     stroke-linecap="square"
     stroke-linejoin="bevel" />
  <path
     id="shape0111"
     d="M 183.3597 -35.472461 C 180.5757 -35.472461 178.31934 -34.463897 176.68734 -32.495899 C 175.39134 -30.9599 174.9125 -29.424107 174.5765 -26.11211 L 172.2723 -26.11211 L 172.2723 -20.784473 L 174.5765 -20.784473 L 174.5765 0.00019450715 L 180.96029 0.00019450715 L 180.96029 -20.784473 L 184.55941 -20.784473 L 184.55941 -26.11211 L 180.96029 -26.11211 C 181.00829 -28.560107 181.82352 -29.327442 184.36751 -29.327442 L 184.9432 -29.327442 L 184.9432 -35.375782 C 184.1752 -35.471781 183.8397 -35.472461 183.3597 -35.472461 z M 125.56722 -27.216602 C 117.69523 -27.216602 111.5516 -21.120184 111.5516 -13.296192 C 111.5516 -5.5681998 117.88712 0.62421794 125.75912 0.62421794 C 131.99911 0.62421794 136.75229 -2.7841395 138.96029 -8.7361335 L 131.75912 -8.7361335 C 130.17512 -6.2881359 128.35224 -5.2322273 125.71224 -5.2322273 C 121.29624 -5.2322273 117.98372 -8.6885365 117.98372 -13.344532 C 117.98372 -18.048527 121.10323 -21.360157 125.56722 -21.360157 C 128.44722 -21.360157 130.46312 -20.160693 131.75912 -17.712696 L 138.96029 -17.712696 C 138.04829 -20.400693 137.1837 -21.792463 135.3597 -23.472461 C 132.7677 -25.872459 129.26322 -27.216602 125.56722 -27.216602 z M 155.08822 -27.216602 C 147.21622 -27.216602 141.5516 -21.311504 141.5516 -13.199512 C 141.5516 -5.1835204 147.1672 0.62421794 154.9432 0.62421794 C 158.68719 0.62421794 161.23221 -0.52737478 163.7762 -3.4553719 L 163.7762 0.00019450715 L 169.63118 0.00019450715 L 169.63118 -26.592579 L 163.7762 -26.592579 L 163.7762 -23.040333 C 161.56821 -25.96833 158.92821 -27.216602 155.08822 -27.216602 z M 200.15999 -27.216602 C 192.336 -27.216602 186.14437 -21.023505 186.14437 -13.199512 C 186.14437 -5.4235201 192.43179 0.62421794 200.54378 0.62421794 C 204.91178 0.62421794 208.31984 -0.96007818 211.10384 -4.176075 C 212.11184 -5.4240737 212.78415 -6.527877 213.21615 -7.8718757 L 206.25521 -7.8718757 C 204.62321 -5.9518776 203.04022 -5.2322273 200.40023 -5.2322273 C 196.60823 -5.2322273 193.8235 -7.2486523 193.0555 -10.464649 L 213.64827 -10.464649 C 213.84027 -11.424648 213.88851 -11.999279 213.88851 -12.959278 C 213.88851 -21.16727 208.07999 -27.216602 200.15999 -27.216602 z M 155.75911 -21.360157 C 160.31911 -21.360157 163.58431 -17.952293 163.58431 -13.104298 C 163.58431 -11.184299 162.8159 -8.97564 161.6639 -7.6316413 C 160.3679 -6.0476429 158.30379 -5.2322273 155.85579 -5.2322273 C 151.1998 -5.2322273 147.98372 -8.3999623 147.98372 -13.055958 C 147.98372 -17.903953 151.19912 -21.360157 155.75911 -21.360157 z M 200.25521 -21.360157 C 204.1912 -21.360157 206.78394 -19.487392 207.59993 -16.079395 L 192.86361 -16.079395 C 193.87161 -19.535392 196.46321 -21.360157 200.25521 -21.360157 z M 100.12728 -6.1433601 L 100.12728 0.00019450715 L 106.51253 0.00019450715 L 106.51253 -6.1433601 L 100.12728 -6.1433601 z "
     transform="matrix(1.00000001336732 0 0 1.00000001336732 151.29264094834 75.0994148678462)" />
  <path
     id="path19"
     style="fill:#8d5943;fill-opacity:1"
     d="M 181.89069 -0.00018015287 C 179.10869 -0.00018015287 176.85832 1.0002601 175.21833 2.9690581 C 173.92133 4.5002566 173.45295 6.0462098 173.10895 9.3587065 L 170.81354 9.3587065 L 170.81354 14.687808 L 173.10895 14.687808 L 173.10895 35.468081 L 179.50006 35.468081 L 179.50006 14.687808 L 183.09333 14.687808 L 183.09333 9.3587065 L 179.50006 9.3587065 C 179.54706 6.905609 180.35883 6.1404448 182.90583 6.1404448 L 183.48444 6.1404448 L 183.48444 0.093569847 C 182.71944 -0.00023005944 182.37469 -0.00018015287 181.89069 -0.00018015287 z M 124.10846 8.2498198 C 116.23347 8.2498198 110.0943 14.343603 110.0943 22.171695 C 110.0943 29.906087 116.43855 36.09357 124.31354 36.09357 C 130.54754 36.09357 135.29707 32.687877 137.50006 26.734683 L 130.31354 26.734683 C 128.71954 29.187881 126.90666 30.234195 124.26667 30.234195 C 119.84467 30.234195 116.53083 26.781115 116.53083 22.12482 C 116.53083 17.421724 119.65547 14.109195 124.10846 14.109195 C 126.99946 14.109195 129.01654 15.311834 130.31354 17.749331 L 137.50006 17.749331 C 136.59407 15.061834 135.73334 13.671718 133.90534 11.99982 C 131.31234 9.5936222 127.81246 8.2498198 124.10846 8.2498198 z M 153.64118 8.2498198 C 145.76619 8.2498198 140.0943 14.156053 140.0943 22.265445 C 140.0943 30.281037 145.71945 36.09357 153.48444 36.09357 C 157.23444 36.09357 159.7807 34.937342 162.3277 32.015445 L 162.3277 35.468081 L 168.17243 35.468081 L 168.17243 8.8753081 L 162.3277 8.8753081 L 162.3277 12.421695 C 160.1087 9.4997977 157.46917 8.2498198 153.64118 8.2498198 z M 198.68805 8.2498198 C 190.87506 8.2498198 184.67243 14.437253 184.67243 22.265445 C 184.67243 30.046637 190.96871 36.09357 199.0777 36.09357 C 203.4377 36.09357 206.85869 34.515003 209.64069 31.296206 C 210.64069 30.046208 211.31306 28.93688 211.75006 27.593081 L 204.78034 27.593081 C 203.15534 29.51498 201.57854 30.234195 198.93854 30.234195 C 195.14154 30.234195 192.35881 28.219105 191.59381 25.000308 L 212.18805 25.000308 C 212.37505 24.047209 212.42243 23.468619 212.42243 22.49982 C 212.42243 14.296728 206.60904 8.2498198 198.68805 8.2498198 z M 154.31354 14.109195 C 158.85954 14.109195 162.12555 17.5155 162.12555 22.359195 C 162.12555 24.281093 161.35968 26.484171 160.20368 27.84357 C 158.92268 29.421668 156.84382 30.234195 154.40583 30.234195 C 149.74983 30.234195 146.53083 27.062365 146.53083 22.40607 C 146.53083 17.562275 149.75055 14.109195 154.31354 14.109195 z M 198.78034 14.109195 C 202.71833 14.109195 205.31318 15.985125 206.14118 19.391421 L 191.39167 19.391421 C 192.40667 15.938225 194.99934 14.109195 198.78034 14.109195 z M 98.671452 29.328921 L 98.671452 35.468081 L 105.06256 35.468081 L 105.06256 29.328921 L 98.671452 29.328921 z "
     transform="matrix(1.00000000395378 0 0 1.00000000395378 151.586848772666 37.9894379653666)" />
  <path
     id="shape71"
     transform="matrix(0.726475248748626 0 0 0.726475248748626 75.3580298187811 67.310441647038)"
     fill="#ffffff"
     fill-rule="evenodd"
     stroke="#000000"
     stroke-width="2.4"
     stroke-linecap="square"
     stroke-linejoin="bevel"
     d="M0.0438019 0C-0.162205 5.77783 0.161223 8.65255 5.44145 8.67074C10.9157 8.67089 11.0081 5.41083 11.1109 1.06581e-14"
     sodipodi:nodetypes="ccc" />
  <path
     id="shape72"
     transform="matrix(0.726475222077159 0 0 0.726475222077159 30.845801242685 66.567135109968)"
     fill="#ffffff"
     fill-rule="evenodd"
     stroke="#000000"
     stroke-width="2.4"
     stroke-linecap="square"
     stroke-linejoin="bevel"
     d="M0.0438019 0C-0.162205 5.77783 0.161223 8.65255 5.44145 8.67074C10.9157 8.67089 11.0081 5.41083 11.1109 1.06581e-14"
     sodipodi:nodetypes="ccc" />
  <g
     aria-label="uwu"
     transform="matrix(1.0957651,0,0,0.91260437,2.7816285,1.804911)"
     id="text1048-7"
     style="font-weight:bold;font-size:53.2209px;line-height:125%;font-family:'Comic Sans MS';-inkscape-font-specification:'Comic Sans MS, Bold';letter-spacing:0px;word-spacing:0px;fill:#1a1a1a;fill-opacity:1;stroke-width:1.33052px"
     inkscape:transform-center-x="3.2659807"
     inkscape:transform-center-y="-5.5198971">
    <path
       d="m 159.77611,63.784541 c -2.5e-4,4.813741 0.0479,9.642164 0.16735,14.442147 -0.80617,3.709996 -5.66538,2.842576 -7.13265,0.85604 -4.70826,1.524057 -10.86359,1.953657 -14.48346,-2.060771 -2.43891,-3.429085 -1.93384,-7.947842 -2.48997,-11.930261 -0.21206,-4.120055 -0.10623,-8.372784 1.0948,-12.336914 2.58302,-4.081587 8.55109,0.02286 6.51293,4.146514 -0.87376,5.216515 -0.68021,10.637309 0.45315,15.796707 2.50934,0.806074 7.88198,1.179213 8.7819,-1.268479 0.098,-6.131492 -0.58252,-12.413065 0.78444,-18.431115 2.80525,-4.374478 8.70612,0.165308 6.66305,4.472718 -0.11667,2.104314 -0.19173,4.212198 -0.35154,6.313414 z"
       id="path1104-6"
       style="fill:#1a1a1a;fill-opacity:1" />
    <path
       d="m 197.92469,55.910551 c -1.9058,6.80182 -3.67052,13.678282 -6.20678,20.274958 -0.88283,3.155756 -4.85608,6.630805 -7.74588,3.490045 -3.19359,-3.906397 -3.31858,-9.24678 -4.21209,-13.993979 -1.89226,4.092684 -3.25336,8.421486 -5.1129,12.519126 -1.86877,3.998203 -6.79667,2.529222 -7.4984,-1.482058 -2.3963,-6.076534 -2.80286,-12.705527 -3.97151,-19.081597 -2.00152,-4.08101 3.73843,-8.295193 6.45609,-4.320299 1.42662,3.96607 1.10965,8.323659 2.05762,12.417919 0.20036,2.056834 0.47617,3.400771 1.14423,0.554858 1.56572,-4.13297 2.63229,-8.459854 4.32619,-12.532627 2.89554,-4.520726 8.06955,-0.07185 7.64458,4.078705 0.82384,3.983048 1.41407,8.009534 2.17842,12.003856 1.57527,-5.567666 2.69534,-11.296082 4.49733,-16.777707 1.95523,-2.761636 7.50021,-0.679699 6.4431,2.8488 z"
       id="path1106-5"
       style="fill:#1a1a1a;fill-opacity:1" />
    <path
       d="m 223.85949,63.784541 c -2.4e-4,4.813741 0.0479,9.642165 0.16736,14.442147 -0.80618,3.709992 -5.66538,2.842577 -7.13266,0.85604 -4.70826,1.524059 -10.86359,1.953654 -14.48346,-2.060771 -2.43892,-3.429084 -1.93384,-7.947843 -2.48996,-11.930261 -0.21206,-4.120054 -0.10623,-8.372784 1.09479,-12.336914 2.58302,-4.081587 8.55108,0.02285 6.51294,4.146514 -0.87378,5.216515 -0.68021,10.637307 0.45314,15.796707 2.50934,0.806071 7.88198,1.179216 8.78191,-1.268479 0.098,-6.131492 -0.58253,-12.413065 0.78443,-18.431115 2.80525,-4.374478 8.70612,0.165312 6.66305,4.472718 -0.11667,2.104314 -0.19173,4.212198 -0.35154,6.313414 z"
       id="path1108-6"
       style="fill:#1a1a1a;fill-opacity:1" />
  </g>
  <g
     aria-label="uwu"
     transform="matrix(1.0957651,0,0,0.91260437,-0.26289262,-0.48020904)"
     id="text1048-7-9"
     style="font-weight:bold;font-size:53.2209px;line-height:125%;font-family:'Comic Sans MS';-inkscape-font-specification:'Comic Sans MS, Bold';letter-spacing:0px;word-spacing:0px;fill:#4d4d4d;fill-opacity:1;stroke-width:1.33052px"
     inkscape:transform-center-x="3.2659807"
     inkscape:transform-center-y="-5.5198971">
    <path
       d="m 159.77611,63.784541 c -2.5e-4,4.813741 0.0479,9.642164 0.16735,14.442147 -0.80617,3.709996 -5.66538,2.842576 -7.13265,0.85604 -4.70826,1.524057 -10.86359,1.953657 -14.48346,-2.060771 -2.43891,-3.429085 -1.93384,-7.947842 -2.48997,-11.930261 -0.21206,-4.120055 -0.10623,-8.372784 1.0948,-12.336914 2.58302,-4.081587 8.55109,0.02286 6.51293,4.146514 -0.87376,5.216515 -0.68021,10.637309 0.45315,15.796707 2.50934,0.806074 7.88198,1.179213 8.7819,-1.268479 0.098,-6.131492 -0.58252,-12.413065 0.78444,-18.431115 2.80525,-4.374478 8.70612,0.165308 6.66305,4.472718 -0.11667,2.104314 -0.19173,4.212198 -0.35154,6.313414 z"
       id="path1104-6-3"
       style="fill:#4d4d4d;fill-opacity:1" />
    <path
       d="m 197.92469,55.910551 c -1.9058,6.80182 -3.67052,13.678282 -6.20678,20.274958 -0.88283,3.155756 -4.85608,6.630805 -7.74588,3.490045 -3.19359,-3.906397 -3.31858,-9.24678 -4.21209,-13.993979 -1.89226,4.092684 -3.25336,8.421486 -5.1129,12.519126 -1.86877,3.998203 -6.79667,2.529222 -7.4984,-1.482058 -2.3963,-6.076534 -2.80286,-12.705527 -3.97151,-19.081597 -2.00152,-4.08101 3.73843,-8.295193 6.45609,-4.320299 1.42662,3.96607 1.10965,8.323659 2.05762,12.417919 0.20036,2.056834 0.47617,3.400771 1.14423,0.554858 1.56572,-4.13297 2.63229,-8.459854 4.32619,-12.532627 2.89554,-4.520726 8.06955,-0.07185 7.64458,4.078705 0.82384,3.983048 1.41407,8.009534 2.17842,12.003856 1.57527,-5.567666 2.69534,-11.296082 4.49733,-16.777707 1.95523,-2.761636 7.50021,-0.679699 6.4431,2.8488 z"
       id="path1106-5-7"
       style="fill:#4d4d4d;fill-opacity:1" />
    <path
       d="m 223.85949,63.784541 c -2.4e-4,4.813741 0.0479,9.642165 0.16736,14.442147 -0.80618,3.709992 -5.66538,2.842577 -7.13266,0.85604 -4.70826,1.524059 -10.86359,1.953654 -14.48346,-2.060771 -2.43892,-3.429084 -1.93384,-7.947843 -2.48996,-11.930261 -0.21206,-4.120054 -0.10623,-8.372784 1.09479,-12.336914 2.58302,-4.081587 8.55108,0.02285 6.51294,4.146514 -0.87378,5.216515 -0.68021,10.637307 0.45314,15.796707 2.50934,0.806071 7.88198,1.179216 8.78191,-1.268479 0.098,-6.131492 -0.58253,-12.413065 0.78443,-18.431115 2.80525,-4.374478 8.70612,0.165312 6.66305,4.472718 -0.11667,2.104314 -0.19173,4.212198 -0.35154,6.313414 z"
       id="path1108-6-4"
       style="fill:#4d4d4d;fill-opacity:1" />
  </g>
  <g
     aria-label="uwu"
     transform="matrix(1.0957651,0,0,0.91260437,-2.7369444,-2.4824425)"
     id="text1048"
     style="font-weight:bold;font-size:53.2209px;line-height:125%;font-family:'Comic Sans MS';-inkscape-font-specification:'Comic Sans MS, Bold';letter-spacing:0px;word-spacing:0px;fill:#ff00ff;stroke-width:1.33052px">
    <path
       d="m 159.77611,63.784541 c -2.5e-4,4.813741 0.0479,9.642164 0.16735,14.442147 -0.80617,3.709996 -5.66538,2.842576 -7.13265,0.85604 -4.70826,1.524057 -10.86359,1.953657 -14.48346,-2.060771 -2.43891,-3.429085 -1.93384,-7.947842 -2.48997,-11.930261 -0.21206,-4.120055 -0.10623,-8.372784 1.0948,-12.336914 2.58302,-4.081587 8.55109,0.02286 6.51293,4.146514 -0.87376,5.216515 -0.68021,10.637309 0.45315,15.796707 2.50934,0.806074 7.88198,1.179213 8.7819,-1.268479 0.098,-6.131492 -0.58252,-12.413065 0.78444,-18.431115 2.80525,-4.374478 8.70612,0.165308 6.66305,4.472718 -0.11667,2.104314 -0.19173,4.212198 -0.35154,6.313414 z"
       id="path1189"
       style="fill:#ff00ff" />
    <path
       d="m 197.92469,55.910551 c -1.9058,6.80182 -3.67052,13.678282 -6.20678,20.274958 -0.88283,3.155756 -4.85608,6.630805 -7.74588,3.490045 -3.19359,-3.906397 -3.31858,-9.24678 -4.21209,-13.993979 -1.89226,4.092684 -3.25336,8.421486 -5.1129,12.519126 -1.86877,3.998203 -6.79667,2.529222 -7.4984,-1.482058 -2.3963,-6.076534 -2.80286,-12.705527 -3.97151,-19.081597 -2.00152,-4.08101 3.73843,-8.295193 6.45609,-4.320299 1.42662,3.96607 1.10965,8.323659 2.05762,12.417919 0.20036,2.056834 0.47617,3.400771 1.14423,0.554858 1.56572,-4.13297 2.63229,-8.459854 4.32619,-12.532627 2.89554,-4.520726 8.06955,-0.07185 7.64458,4.078705 0.82384,3.983048 1.41407,8.009534 2.17842,12.003856 1.57527,-5.567666 2.69534,-11.296082 4.49733,-16.777707 1.95523,-2.761636 7.50021,-0.679699 6.4431,2.8488 z"
       id="path1186"
       style="fill:#ff00ff" />
    <path
       d="m 223.85949,63.784541 c -2.4e-4,4.813741 0.0479,9.642165 0.16736,14.442147 -0.80618,3.709992 -5.66538,2.842577 -7.13266,0.85604 -4.70826,1.524059 -10.86359,1.953654 -14.48346,-2.060771 -2.43892,-3.429084 -1.93384,-7.947843 -2.48996,-11.930261 -0.21206,-4.120054 -0.10623,-8.372784 1.09479,-12.336914 2.58302,-4.081587 8.55108,0.02285 6.51294,4.146514 -0.87378,5.216515 -0.68021,10.637307 0.45314,15.796707 2.50934,0.806071 7.88198,1.179216 8.78191,-1.268479 0.098,-6.131492 -0.58253,-12.413065 0.78443,-18.431115 2.80525,-4.374478 8.70612,0.165312 6.66305,4.472718 -0.11667,2.104314 -0.19173,4.212198 -0.35154,6.313414 z"
       id="path1183"
       style="fill:#ff00ff" />
  </g>
</svg>
