<?xml version="1.0" encoding="UTF-8"?>
<!-- Created using Krita: https://krita.org -->
<svg width="365.16pt" height="106.68pt" version="1.1" viewBox="0 0 365.16 106.68" xmlns="http://www.w3.org/2000/svg">
<symbol id="mastodon-svg-logo-full">
 <path transform="translate(151.28 74.127)" d="m15.504-27.216c-7.728 0-14.064 6.288-14.064 13.92 0 7.68 6.336 13.92 14.112 13.92 7.728 0 14.16-6.24 14.16-13.728 0-7.92-6.192-14.112-14.208-14.112zm0.048 5.856c4.272 0 7.728 3.6 7.728 8.064s-3.456 8.064-7.68 8.064c-4.32 0-7.728-3.6-7.728-8.16 0-4.368 3.456-7.968 7.68-7.968zm24.048 21.36h3.936l5.136-17.232 5.04 17.232h3.984l9.6-26.592h-6.816l-4.848 16.224-4.368-16.224h-5.088l-4.464 16.224-4.752-16.224h-6.864zm42.48-27.216c-7.728 0-14.064 6.288-14.064 13.92 0 7.68 6.336 13.92 14.112 13.92 7.728 0 14.16-6.24 14.16-13.728 0-7.92-6.192-14.112-14.208-14.112zm0.048 5.856c4.272 0 7.728 3.6 7.728 8.064s-3.456 8.064-7.68 8.064c-4.32 0-7.728-3.6-7.728-8.16 0-4.368 3.456-7.968 7.68-7.968zm18 21.36h6.384v-6.144h-6.384zm31.632-8.736c-1.584 2.448-3.408 3.504-6.048 3.504-4.416 0-7.728-3.456-7.728-8.112 0-4.704 3.12-8.016 7.584-8.016 2.88 0 4.896 1.2 6.192 3.648h7.2c-0.912-2.688-1.776-4.08-3.6-5.76-2.592-2.4-6.096-3.744-9.792-3.744-7.872 0-14.016 6.096-14.016 13.92 0 7.728 6.336 13.92 14.208 13.92 6.24 0 10.992-3.408 13.2-9.36zm37.872-17.856h-5.856v3.552c-2.208-2.928-4.848-4.176-8.688-4.176-7.872 0-13.536 5.904-13.536 14.016 0 8.016 5.616 13.824 13.392 13.824 3.744 0 6.288-1.152 8.832-4.08v3.456h5.856zm-13.872 5.232c4.56 0 7.824 3.408 7.824 8.256 0 1.92-0.768 4.128-1.92 5.472-1.296 1.584-3.36 2.4-5.808 2.4-4.656 0-7.872-3.168-7.872-7.824 0-4.848 3.216-8.304 7.776-8.304zm18.816 21.36h6.384v-20.784h3.6v-5.328h-3.6c0.048-2.448 0.864-3.216 3.408-3.216h0.576v-6.048c-0.768-0.096-1.104-0.096-1.584-0.096-2.784 0-5.04 1.008-6.672 2.976-1.296 1.536-1.776 3.072-2.112 6.384h-2.304v5.328h2.304zm39.072-10.464c0.192-0.96 0.24-1.536 0.24-2.496 0-8.208-5.808-14.256-13.728-14.256-7.824 0-14.016 6.192-14.016 14.016 0 7.776 6.288 13.824 14.4 13.824 4.368 0 7.776-1.584 10.56-4.8 1.008-1.248 1.68-2.352 2.112-3.696h-6.96c-1.632 1.92-3.216 2.64-5.856 2.64-3.792 0-6.576-2.016-7.344-5.232zm-20.784-5.616c1.008-3.456 3.6-5.28 7.392-5.28 3.936 0 6.528 1.872 7.344 5.28z" fill="#2b0000" stroke-opacity="0" aria-label="owo.cafe"/>
 <path transform="translate(150.13 72.486)" d="m15.504-27.216c-7.728 0-14.064 6.288-14.064 13.92 0 7.68 6.336 13.92 14.112 13.92 7.728 0 14.16-6.24 14.16-13.728 0-7.92-6.192-14.112-14.208-14.112zm0.048 5.856c4.272 0 7.728 3.6 7.728 8.064s-3.456 8.064-7.68 8.064c-4.32 0-7.728-3.6-7.728-8.16 0-4.368 3.456-7.968 7.68-7.968zm24.048 21.36h3.936l5.136-17.232 5.04 17.232h3.984l9.6-26.592h-6.816l-4.848 16.224-4.368-16.224h-5.088l-4.464 16.224-4.752-16.224h-6.864zm42.48-27.216c-7.728 0-14.064 6.288-14.064 13.92 0 7.68 6.336 13.92 14.112 13.92 7.728 0 14.16-6.24 14.16-13.728 0-7.92-6.192-14.112-14.208-14.112zm0.048 5.856c4.272 0 7.728 3.6 7.728 8.064s-3.456 8.064-7.68 8.064c-4.32 0-7.728-3.6-7.728-8.16 0-4.368 3.456-7.968 7.68-7.968zm18 21.36h6.384v-6.144h-6.384zm31.632-8.736c-1.584 2.448-3.408 3.504-6.048 3.504-4.416 0-7.728-3.456-7.728-8.112 0-4.704 3.12-8.016 7.584-8.016 2.88 0 4.896 1.2 6.192 3.648h7.2c-0.912-2.688-1.776-4.08-3.6-5.76-2.592-2.4-6.096-3.744-9.792-3.744-7.872 0-14.016 6.096-14.016 13.92 0 7.728 6.336 13.92 14.208 13.92 6.24 0 10.992-3.408 13.2-9.36zm37.872-17.856h-5.856v3.552c-2.208-2.928-4.848-4.176-8.688-4.176-7.872 0-13.536 5.904-13.536 14.016 0 8.016 5.616 13.824 13.392 13.824 3.744 0 6.288-1.152 8.832-4.08v3.456h5.856zm-13.872 5.232c4.56 0 7.824 3.408 7.824 8.256 0 1.92-0.768 4.128-1.92 5.472-1.296 1.584-3.36 2.4-5.808 2.4-4.656 0-7.872-3.168-7.872-7.824 0-4.848 3.216-8.304 7.776-8.304zm18.816 21.36h6.384v-20.784h3.6v-5.328h-3.6c0.048-2.448 0.864-3.216 3.408-3.216h0.576v-6.048c-0.768-0.096-1.104-0.096-1.584-0.096-2.784 0-5.04 1.008-6.672 2.976-1.296 1.536-1.776 3.072-2.112 6.384h-2.304v5.328h2.304zm39.072-10.464c0.192-0.96 0.24-1.536 0.24-2.496 0-8.208-5.808-14.256-13.728-14.256-7.824 0-14.016 6.192-14.016 14.016 0 7.776 6.288 13.824 14.4 13.824 4.368 0 7.776-1.584 10.56-4.8 1.008-1.248 1.68-2.352 2.112-3.696h-6.96c-1.632 1.92-3.216 2.64-5.856 2.64-3.792 0-6.576-2.016-7.344-5.232zm-20.784-5.616c1.008-3.456 3.6-5.28 7.392-5.28 3.936 0 6.528 1.872 7.344 5.28z" fill="#bd2222" stroke-opacity="0" aria-label="owo.cafe"/>
 <g>
  <g fill-rule="evenodd" stroke-linecap="square" stroke-linejoin="bevel">
   <path transform="matrix(.72648 0 0 .72648 89.344 29.317)" d="m24.804 0c-0.9768 6.1775-0.4395 9.1402 1.6116 8.8881 3.0768-0.37822 20.512-8.1316 30.035 2.8366 6.3489 7.3121 8.4489 17.965 6.3001 31.959-2.6372 13.364-9.7675 23.323-21.391 29.879-11.623 6.5557-23.198 10.716-34.724 12.481-2.5396 0-4.6396 1.5128-6.3001 4.5386-1.6605 3.0257 2.8326-8.1317 13.479-33.472-1.8559 3.2779-1.9047 5.6102-0.1466 6.997 1.7582 1.3868 6.2513 1.702 13.479 0.9455 12.729-3.2794 20.22-10.555 23.704-21.774 3.4849-11.219 2.3779-17.37-3.0605-20.965-6.2935-2.5884-11.651-3.5414-16.62 0.6999s-9.7073 10.483-12.375 16.32c0.4672 0.1168 2.0023-13.112 6.007-39.334z" fill="#bfbfbf" stroke="#392526" stroke-width="1.2"/>
   <path transform="matrix(.72648 0 0 .72648 92.983 62.193)" d="m3.1797 34.585c-1.1881 1.4279-1.8791 4.0387-3.1797 6.0291 8.6475-1.2512 20.722-4.5497 26.883-8.259 6.5113-2.5497 11.812-5.2906 18.17-10.943 6.3581-5.6527 10.438-13.205 11.604-21.412-5.1009 18.301-25.208 31.46-53.477 34.585z" fill="#9a9a9a" stroke="#000" stroke-opacity="0" stroke-width="0"/>
   <path transform="matrix(.72648 0 0 .72648 111.48 40.733)" d="m1.168 0.99291c-1.3839 1.4008-0.26946 6.6398-1.168 7.8256 2.24-3.0107 2.8607-4.8571 8.5264-4.7888 3.2418-0.12727 7.8028 1.7146 8.6432 2.336 2.1652 1.8358-3.4789-5.7769-8.2928-6.0736-3.2036-0.98665-7.446 0.85524-7.7088 0.7008z" fill="#989898" stroke="#000" stroke-opacity="0" stroke-width="0"/>
   <path transform="matrix(.72648 0 0 .72648 .34888 .34888)" d="m155.03 35.332c0.381 58.339-26.111 103.68-38.913 108.29-9.902 3.567-68.911 2.4-73.836 0-18.654-9.09-43.89-73.541-42.198-112.39 0.89936-20.643 41.898-32.806 80.933-31.072 37.583-1.3068 73.847 9.674 74.014 35.168z" fill="#c0c0c0" stroke="#2b0000" stroke-width=".96"/>
   <g stroke="#000" stroke-opacity="0" stroke-width="0">
    <path transform="matrix(.72648 0 0 .72648 2.9152 4.427)" d="m5.1915 40.573c7.6134-14.972 35.889-27.396 67.861-27.682 31.971-0.2856 59.992 6.66 71.082 27.449 3.519-2.6066 7.507-13.7-0.03-22.35-13.319-11.917-36.935-17.906-70.175-17.989-33.241-0.082801-55.036 5.6276-68.271 18.029-6.6763 8.7673-8.19 16.545-0.4672 22.542z" fill="#999"/>
    <path transform="matrix(.72648 0 0 .72648 66.623 44.508)" d="m61.805 0c0.5161 0.14304-1.2039 11.358-3.3302 19.507-3.3391 13.086-9.0373 31.531-17.053 44.268-4.6255 8.4497-12.537 17.597-15.651 18.338-6.8601 2.3335-21.906 2.6159-24.995 2.5696-4.2083 0.1563 9.5128-0.2588 21.725-8.9936 19.201-11.894 30.462-43.693 39.305-75.688z" fill="#999"/>
    <path transform="matrix(.72648 0 0 .72648 6.5873 13.707)" d="m67.998 0c39.989 0.6588 61.865 9.3463 70.623 26.867 4.298 4.4623-34.754 15.652-72.959 14.948-34.81 0.0138-70.08-11.138-65.209-15.202 8.6144-13.968 32.463-24.428 67.545-26.612z" fill="#bd2222"/>
    <path transform="matrix(.72648 0 0 .72648 6.8561 19.477)" d="m26.981 0c-38.971 30.527 75.255 36.322 16.954 32.384-25.465-3.8153-44.043-10.268-43.935-13.579 1.5594-4.5012 10.836-11.968 26.981-18.805z" fill="#701a06"/>
   </g>
  </g>
  <path transform="translate(-.016658 -.97231)" d="m29.548 75.148s5.2216 2.8294 11.929-1.6509c0 0-1.2529 4.7725-4.0366 5.4811s-8.4185 0.86326-9.057-5.5365z" fill="#999" stroke-linecap="round" stroke-linejoin="round" stroke-width=".90425" style="paint-order:markers fill stroke"/>
  <path transform="translate(-.016658 -.97231)" d="m84.806 75.385s-5.2216 2.8294-11.929-1.6509c0 0 1.2529 4.7725 4.0366 5.4811s8.4185 0.86326 9.057-5.5365z" fill="#999" stroke-linecap="round" stroke-linejoin="round" stroke-width=".90425" style="paint-order:markers fill stroke"/>
 </g>
 <circle transform="matrix(.72648 0 0 .72648 27.946 61.978)" cx="9.6" cy="9.6" r="9.6" fill-rule="evenodd" stroke="#000" stroke-linecap="square" stroke-linejoin="bevel" stroke-width="1.3296"/>
 <g stroke-linecap="round" stroke-linejoin="round">
  <path transform="translate(-.016658 -.97231)" d="m47.485 82.823 1.9074 5.6458 1.3493-3.7262z" fill="#fff" stroke-width=".90425" style="paint-order:markers fill stroke"/>
  <path transform="translate(-.016658 -.97231)" d="m66.428 82.815-2.1175 5.5932-0.93236-3.6252z" fill="#fff" stroke-width=".91626" style="paint-order:markers fill stroke"/>
  <path transform="translate(-.016658 -.97231)" d="m49.595 84.231c0.55936 1.3672-0.0074 2.8483-0.18901 4.2904l1.3381-3.7492z" fill="#dadada" stroke-width=".90425" style="paint-order:markers fill stroke"/>
  <path transform="translate(-.016658 -.97231)" d="m64.154 84.229c-0.55936 1.3672 0.0074 2.8483 0.18901 4.2904l-1.3381-3.7492z" fill="#dadada" stroke-width=".90425" style="paint-order:markers fill stroke"/>
 </g>
 <circle transform="matrix(.72648 0 0 .72648 72.382 62.303)" cx="9.6" cy="9.6" r="9.6" stroke="#000" stroke-linecap="square" stroke-linejoin="bevel" stroke-width="1.3296"/>
 <g fill-rule="evenodd" stroke-linecap="square" stroke-linejoin="bevel">
  <ellipse transform="matrix(.72648 0 0 .72648 79.729 64.07)" cx="3" cy="2.88" rx="3" ry="2.88" fill="#fff" stroke="#fff" stroke-width="1.3296"/>
  <ellipse transform="matrix(.72648 0 0 .72648 35.81 64.051)" cx="3" cy="2.88" rx="3" ry="2.88" fill="#fff" stroke="#fff" stroke-width="1.3296"/>
  <path transform="matrix(.72648 0 0 .72648 47.675 76.495)" d="m1.3111 0.16971c-2.2708 4.7867-1.5919 7.6435 2.0365 8.5701 3.5747 1.7346 9.1462-1.8944 9.249-4.4972 0.9524 3.6232 3.498 5.2071 7.6367 4.7518 4.9786 0.27537 6.2514-2.7228 3.8184-8.9944" fill="#bfbfbf" stroke="#000" stroke-width="2.4"/>
  <ellipse transform="matrix(.72648 0 0 .72648 79.729 64.07)" cx="3" cy="2.88" rx="3" ry="2.88" fill="#fff" stroke="#fff" stroke-width="1.3296"/>
 </g>
 <path transform="translate(-.016658 -.97231)" d="m73.867 73.55s2.4215 1.6355 5.3484 1.6598c2.8937 0.02399 5.3218-1.3646 5.3218-1.3646s-1.9283 3.2495-5.4072 3.0354c-3.6843-0.22676-5.2629-3.3306-5.2629-3.3306z" fill="#bd2222" stroke-linecap="round" stroke-linejoin="round" stroke-width=".90425" style="paint-order:markers fill stroke"/>
 <path transform="translate(-.016658 -.97231)" d="m29.467 73.342s2.4215 1.6355 5.3484 1.6598c2.8937 0.02399 5.3218-1.3646 5.3218-1.3646s-1.9283 3.2495-5.4072 3.0354c-3.6843-0.22676-5.2629-3.3306-5.2629-3.3306z" fill="#bd2222" stroke-linecap="round" stroke-linejoin="round" stroke-width=".90425" style="paint-order:markers fill stroke"/>
</symbol>
</svg>
