<?xml version="1.0" standalone="no"?>
<!DOCTYPE svg PUBLIC "-//W3C//DTD SVG 20010904//EN" "http://www.w3.org/TR/2001/REC-SVG-20010904/DTD/svg10.dtd">
<!-- Created using Krita: https://krita.org -->
<svg xmlns="http://www.w3.org/2000/svg" 
    xmlns:xlink="http://www.w3.org/1999/xlink"
    xmlns:krita="http://krita.org/namespaces/svg/krita"
    xmlns:sodipodi="http://sodipodi.sourceforge.net/DTD/sodipodi-0.dtd"
    width="136.08pt"
    height="108.24pt"
    viewBox="0 0 136.08 108.24">
<defs/>
<path id="shape0" transform="matrix(0.72647523895201 0 0 0.72647523895201 89.3604758658112 30.288926735462)" fill="#ffffff" fill-rule="evenodd" stroke-opacity="0" stroke="#000000" stroke-width="0" stroke-linecap="square" stroke-linejoin="bevel" d="M24.8037 0C23.8269 6.17752 24.3642 9.1402 26.4153 8.88806C29.4921 8.50984 46.9272 0.756431 56.4505 11.7247C62.7994 19.0368 64.8994 29.6899 62.7506 43.6839C60.1134 57.0475 52.9831 67.0071 41.3597 73.5629C29.7363 80.1186 18.1618 84.279 6.63612 86.044C4.09656 86.044 1.99653 87.5568 0.336048 90.5826C-1.32443 93.6083 3.16865 82.4509 13.8153 57.1105C11.9594 60.3884 11.9106 62.7207 13.6687 64.1075C15.4269 65.4943 19.92 65.8095 27.1479 65.053C39.8772 61.7736 47.3674 54.4983 50.8523 43.2795C54.3372 32.0605 53.2302 25.9092 47.7918 22.3147C41.4983 19.7263 36.1408 18.7733 31.1714 23.0146C26.202 27.2559 21.4641 33.4974 18.7967 39.3344C19.2639 39.4512 20.799 26.2229 24.8037 0Z" sodipodi:nodetypes="czzczczczczczcc"/><path id="shape01" transform="matrix(0.726475260793962 0 0 0.726475260793962 96.3503696568939 63.3426250957398)" fill="#ded6d3" fill-rule="evenodd" stroke-opacity="0" stroke="#000000" stroke-width="0" stroke-linecap="square" stroke-linejoin="bevel" d="M3.44562 33.9306C2.25749 35.3585 1.30061 38.0722 0 40.0626C8.64746 38.8114 16.4402 36.2383 22.6009 32.529C29.1122 29.9793 34.1134 27.436 40.4714 21.7833C46.8295 16.1306 51.4531 8.2066 52.6187 0C47.5178 18.3012 31.7154 30.8055 3.44562 33.9306Z" sodipodi:nodetypes="ccczcc"/><path id="shape1" transform="matrix(0.726475260793962 0 0 0.726475260793962 111.496594427903 41.7050815664905)" fill="#ded6d3" fill-rule="evenodd" stroke-opacity="0" stroke="#000000" stroke-width="0" stroke-linecap="square" stroke-linejoin="bevel" d="M1.16801 0.992915C-0.215899 2.39372 0.89855 7.63276 0 8.81856C2.22099 5.94091 2.85956 4.9626 8.60787 4.4529C11.8497 4.32563 16.4394 6.10272 17.2799 6.72414C19.4451 8.55998 13.6908 0.58889 8.87685 0.292111C5.67325 -0.694538 1.43083 1.14735 1.16801 0.992915Z" sodipodi:nodetypes="cccccc"/><path id="shape2" transform="matrix(0.726475260793962 0 0 0.726475260793962 0.125533659877313 1.13030235414933)" fill="#ffffff" fill-rule="evenodd" stroke-opacity="0" stroke="#000000" stroke-width="0" stroke-linecap="square" stroke-linejoin="bevel" d="M155.028 35.3319C155.409 93.6709 128.917 139.011 116.115 143.623C106.213 147.19 47.2038 146.023 42.2788 143.623C23.6248 134.533 -1.61155 70.0818 0.080843 31.236C0.980207 10.5928 41.9787 -1.57006 81.0137 0.16354C118.597 -1.14321 154.861 9.83751 155.028 35.3319Z" sodipodi:nodetypes="cssscs"/><path id="shape3" transform="matrix(0.726475260793962 0 0 0.726475260793962 2.93190655985212 5.39936006959355)" fill="#ded6d3" fill-rule="evenodd" stroke-opacity="0" stroke="#000000" stroke-width="0" stroke-linecap="square" stroke-linejoin="bevel" d="M5.19147 40.5728C12.8049 25.6007 41.0809 13.1766 73.0527 12.891C105.024 12.6054 133.045 19.551 144.135 40.3397C147.654 37.7331 151.642 26.6396 144.105 17.9897C130.786 6.0725 107.17 0.0836878 73.9297 0.000887255C40.6886 -0.0819133 18.894 5.62849 5.65867 18.0303C-1.01765 26.7976 -2.53136 34.5757 5.19147 40.5728Z" sodipodi:nodetypes="czcczcc"/><path id="shape4" transform="matrix(0.726475260793962 0 0 0.726475260793962 66.558737432093 45.5700025825928)" fill="#ded6d3" fill-rule="evenodd" stroke-opacity="0" stroke="#000000" stroke-width="0" stroke-linecap="square" stroke-linejoin="bevel" d="M62.2888 0C62.8049 0.143041 61.0702 11.631 58.9439 19.7804C55.6048 32.8668 50.0753 50.8563 42.0597 63.5924C37.4342 72.0421 28.9969 81.7153 25.8828 82.4557C16.2516 85.008 0.717717 85.2029 0.77062 84.9085C-3.43768 85.0648 10.4002 84.2993 22.6123 75.5645C41.8134 63.6709 53.4465 31.9955 62.2888 0Z" sodipodi:nodetypes="ccccccc"/><path id="shape011" transform="matrix(0.726475264055561 0 0 0.726475264055561 6.60391637353195 14.679539997569)" fill="#8d5943" fill-rule="evenodd" stroke-opacity="0" stroke="#000000" stroke-width="0" stroke-linecap="square" stroke-linejoin="bevel" d="M67.9981 0C107.987 0.658804 129.863 9.34631 138.621 26.8671C142.919 31.3294 103.867 42.5192 65.6621 41.8146C30.8519 41.8284 -4.41755 30.6766 0.452699 26.6121C9.0671 12.6445 32.916 2.18441 67.9981 0Z" sodipodi:nodetypes="ccccc"/><path id="shape02" transform="matrix(0.726475264055561 0 0 0.726475264055561 6.66094570277469 20.279823744914)" fill="#2b0000" fill-rule="evenodd" stroke-opacity="0" stroke="#000000" stroke-width="0" stroke-linecap="square" stroke-linejoin="bevel" d="M27.0394 0C-11.9576 30.5099 100.257 36.0429 43.9351 33.3766C18.0848 28.9405 0.231437 23.8727 0 19.7977C1.37967 15.1938 10.072 6.36669 27.0394 0Z" sodipodi:nodetypes="cccc"/><ellipse id="shape6" transform="matrix(0.726475260793962 0 0 0.726475260793962 79.7460616583903 65.0427626497237)" rx="3" ry="2.88" cx="3" cy="2.88" fill="#ffffff" fill-rule="evenodd" stroke="#ffffff" stroke-width="1.3296" stroke-linecap="square" stroke-linejoin="bevel"/><ellipse id="shape04" transform="matrix(0.726475253295246 0 0 0.726475253295246 35.8266937632782 65.0228801376605)" rx="3" ry="2.88" cx="3" cy="2.88" fill="#ffffff" fill-rule="evenodd" stroke="#ffffff" stroke-width="1.3296" stroke-linecap="square" stroke-linejoin="bevel"/><path id="shape7" transform="matrix(0.726475260793962 0 0 0.726475260793962 47.6917276906872 77.4678004700258)" fill="#ffffff" fill-rule="evenodd" stroke="#000000" stroke-width="2.4" stroke-linecap="square" stroke-linejoin="bevel" d="M1.31113 0.169706C-0.959641 4.95645 -0.280819 7.81316 3.3476 8.73984C6.92228 10.4744 12.4938 6.84539 12.5966 4.24264C13.549 7.86583 16.0946 9.44975 20.2333 8.9944C25.2119 9.26977 26.4847 6.27163 24.0517 0" sodipodi:nodetypes="ccccc"/><ellipse id="shape05" transform="matrix(0.726475253295246 0 0 0.726475253295246 79.7460616066615 65.0427616364972)" rx="3" ry="2.88" cx="3" cy="2.88" fill="#ffffff" fill-rule="evenodd" stroke="#ffffff" stroke-width="1.3296" stroke-linecap="square" stroke-linejoin="bevel"/><text id="shape0111" krita:useRichText="true" krita:textVersion="2" transform="matrix(0.999999979772216 0 0 0.999999979772216 151.292635865648 75.0994141630407)" fill="#2b0000" stroke-opacity="0" stroke="#000000" stroke-width="0" stroke-linecap="square" stroke-linejoin="bevel" font-family="URW Gothic" font-size="48" font-size-adjust="0.514706" font-stretch="normal" font-weight="600" letter-spacing="0" word-spacing="0"><tspan x="0">owo.cafe</tspan></text><text id="shape021" krita:useRichText="true" krita:textVersion="2" transform="matrix(0.99999997035868 0 0 0.99999997035868 150.1493437227 73.4582374559324)" fill="#8d5943" stroke-opacity="0" stroke="#000000" stroke-width="0.48" stroke-linecap="square" stroke-linejoin="bevel" font-family="URW Gothic" font-size="48" font-size-adjust="0.514706" font-stretch="normal" font-weight="600" letter-spacing="0" word-spacing="0"><tspan x="0">owo.cafe</tspan></text><path id="shape71" transform="matrix(0.726475270128592 0 0 0.726475270128592 75.188326431633 67.1407357067002)" fill="#ffffff" fill-rule="evenodd" stroke="#000000" stroke-width="2.4" stroke-linecap="square" stroke-linejoin="bevel" d="M0.0438019 0C-0.162205 5.77783 0.161223 8.65255 5.44145 8.67074C10.9157 8.67089 11.0081 5.41083 11.1109 1.06581e-14" sodipodi:nodetypes="ccc"/><path id="shape72" transform="matrix(0.726475251835544 0 0 0.726475251835544 30.7791154062845 67.2527177406969)" fill="#ffffff" fill-rule="evenodd" stroke="#000000" stroke-width="2.4" stroke-linecap="square" stroke-linejoin="bevel" d="M0.0438019 0C-0.162205 5.77783 0.161223 8.65255 5.44145 8.67074C10.9157 8.67089 11.0081 5.41083 11.1109 1.06581e-14" sodipodi:nodetypes="ccc"/>
</svg>
