<?xml version="1.0" encoding="UTF-8"?>
<!-- Created using Krita: https://krita.org -->
<svg width="365.16pt" height="112.45pt" version="1.1" viewBox="0 0 365.16 112.45" xmlns="http://www.w3.org/2000/svg" xmlns:krita="http://krita.org/namespaces/svg/krita">
 <symbol id="mastodon-svg-logo-full">
 <g stroke-linecap="square" stroke-linejoin="bevel">
  <g transform="translate(-.018452 4.799)" fill-rule="evenodd">
   <path transform="matrix(.72648 0 0 .72648 89.36 30.289)" d="m24.804 0c-0.9768 6.1775-0.4395 9.1402 1.6116 8.8881 3.0768-0.37822 20.512-8.1316 30.035 2.8366 6.3489 7.3121 8.4489 17.965 6.3001 31.959-2.6372 13.364-9.7675 23.323-21.391 29.879-11.623 6.5557-23.198 10.716-34.724 12.481-2.5396 0-4.6396 1.5128-6.3001 4.5386-1.6605 3.0257 2.8326-8.1317 13.479-33.472-1.8559 3.2779-1.9047 5.6102-0.1466 6.997 1.7582 1.3868 6.2513 1.702 13.479 0.9455 12.729-3.2794 20.22-10.555 23.704-21.774 3.4849-11.219 2.3779-17.37-3.0605-20.965-6.2935-2.5884-11.651-3.5414-16.62 0.6999s-9.7073 10.483-12.375 16.32c0.4672 0.1168 2.0023-13.112 6.007-39.334z" fill="#fff" stroke="#392526" stroke-width="1.2"/>
   <path transform="matrix(.72648 0 0 .72648 93 63.165)" d="m3.1797 34.585c-1.1881 1.4279-1.8791 4.0387-3.1797 6.0291 8.6475-1.2512 20.722-4.5497 26.883-8.259 6.5113-2.5497 11.812-5.2906 18.17-10.943 6.3581-5.6527 10.438-13.205 11.604-21.412-5.1009 18.301-25.208 31.46-53.477 34.585z" fill="#ded6d3" stroke="#000" stroke-opacity="0" stroke-width="0"/>
   <path transform="matrix(.72648 0 0 .72648 111.5 41.705)" d="m1.168 0.99291c-1.3839 1.4008-0.26946 6.6398-1.168 7.8256 2.24-3.0107 2.8607-4.8571 8.5264-4.7888 3.2418-0.12727 7.8028 1.7146 8.6432 2.336 2.1652 1.8358-3.4789-5.7769-8.2928-6.0736-3.2036-0.98665-7.446 0.85524-7.7088 0.7008z" fill="#ded6d3" stroke="#000" stroke-opacity="0" stroke-width="0"/>
   <path transform="matrix(.72648 0 0 .72648 .36553 1.3212)" d="m155.03 35.332c0.381 58.339-26.111 103.68-38.913 108.29-9.902 3.567-68.911 2.4-73.836 0-18.654-9.09-43.89-73.541-42.198-112.39 0.89936-20.643 41.898-32.806 80.933-31.072 37.583-1.3068 73.847 9.674 74.014 35.168z" fill="#fff" stroke="#2b0000" stroke-width=".95943"/>
   <g stroke="#000">
    <g stroke-opacity="0" stroke-width="0">
     <path transform="matrix(.72648 0 0 .72648 2.9319 5.3994)" d="m5.1915 40.573c7.6134-14.972 35.889-27.396 67.861-27.682 31.971-0.2856 59.992 6.66 71.082 27.449 3.519-2.6066 7.507-13.7-0.03-22.35-13.319-11.917-36.935-17.906-70.175-17.989-33.241-0.082801-55.036 5.6276-68.271 18.029-6.6763 8.7673-8.19 16.545-0.4672 22.542z" fill="#ded6d3"/>
     <path transform="matrix(.72648 0 0 .72648 66.64 45.48)" d="m61.805 0c0.5161 0.14304-1.2039 11.358-3.3302 19.507-3.3391 13.086-9.0373 31.531-17.053 44.268-4.6255 8.4497-12.537 17.597-15.651 18.338-6.8601 2.3335-21.906 2.6159-24.995 2.5696-4.2083 0.1563 9.5128-0.2588 21.725-8.9936 19.201-11.894 30.462-43.693 39.305-75.688z" fill="#ded6d3"/>
     <path transform="matrix(.72648 0 0 .72648 6.6039 14.68)" d="m67.998 0c39.989 0.6588 61.865 9.3463 70.623 26.867 4.298 4.4623-34.754 15.652-72.959 14.948-34.81 0.0138-70.08-11.138-65.209-15.202 8.6144-13.968 32.463-24.428 67.545-26.612z" display="none" fill="#8d5943"/>
     <path transform="matrix(.72648 0 0 .72648 6.8727 20.45)" d="M 26.981,0 C -11.99,30.527 102.236,36.322 43.935,32.384 18.47,28.5687 -0.108,22.116 0,18.805 1.5594,14.3038 10.836,6.837 26.981,0 Z" display="none" fill="#2b0000"/>
    </g>
    <circle transform="matrix(.72648 0 0 .72648 27.963 62.951)" cx="9.6" cy="9.6" r="9.6" display="none" stroke-width="1.3296"/>
   </g>
  </g>
  <circle cx="79.355" cy="75.048" r="6.9742" display="none" stroke="#000" stroke-width=".96593"/>
  <g transform="translate(-.018452 4.799)" fill="#fff" fill-rule="evenodd">
   <ellipse transform="matrix(.72648 0 0 .72648 79.746 65.043)" cx="3" cy="2.88" rx="3" ry="2.88" display="none" stroke="#fff" stroke-width="1.3296"/>
   <ellipse transform="matrix(.72648 0 0 .72648 35.827 65.023)" cx="3" cy="2.88" rx="3" ry="2.88" display="none" stroke="#fff" stroke-width="1.3296"/>
   <path transform="matrix(.72648 0 0 .72648 47.692 77.468)" d="m1.3111 0.16971c-2.2708 4.7867-1.5919 7.6435 2.0365 8.5701 3.5747 1.7346 9.1462-1.8944 9.249-4.4972 0.9524 3.6232 3.498 5.2071 7.6367 4.7518 4.9786 0.27537 6.2514-2.7228 3.8184-8.9944" stroke="#000" stroke-width="2.4"/>
   <ellipse transform="matrix(.72648 0 0 .72648 79.746 65.043)" cx="3" cy="2.88" rx="3" ry="2.88" stroke="#fff" stroke-width="1.3296"/>
  </g>
  <text x="151.27155" y="79.898003" fill="#2b0000" font-family="'URW Gothic'" font-size="48px" font-size-adjust=".51471" font-weight="600" letter-spacing="0" stroke="#000000" stroke-opacity="0" stroke-width="0" word-spacing="0" krita:textVersion="2" krita:useRichText="true"><tspan x="151.27155">owo.cafe</tspan></text>
  <text x="150.13155" y="78.257004" fill="#8d5943" font-family="'URW Gothic'" font-size="48px" font-size-adjust=".51471" font-weight="600" letter-spacing="0" stroke="#000000" stroke-opacity="0" stroke-width=".48" word-spacing="0" krita:textVersion="2" krita:useRichText="true"><tspan x="150.13155">owo.cafe</tspan></text>
 </g>
 <path d="m30.647 76.107s5.439-11.903 13.129 0.17211" fill="none" stroke="#000" stroke-linecap="round" stroke-linejoin="round" stroke-width="1.7" style="paint-order:markers fill stroke"/>
 <path d="m83.046 76.09s-5.439-11.903-13.129 0.17211" fill="none" stroke="#000" stroke-linecap="round" stroke-linejoin="round" stroke-width="1.7" style="paint-order:markers fill stroke"/>
 <g transform="translate(-.018452 4.799)">
  <path d="m6.6239 35.123s-7.4938-3.4106-1.9544-14.414c11.014-21.878 79.303-32.669 105.34-0.29104 2.6408 3.2837-0.052 12.777-2.1096 14.032-37.03 22.57-98.472 8.9547-101.28 0.67324z" fill="#ffcb9b" style="paint-order:markers fill stroke"/>
  <path d="m2.8208 27.944s-0.21343 16.788 54.774 16.547c47.049-0.2058 53.071-16.764 53.071-16.764 0.95045 12.233-27.994 19.414-53.426 19.121-30.874-0.35581-56.574-7.7435-54.42-18.904z" fill="#d3a77f" style="paint-order:markers fill stroke"/>
  <path d="m4.3575 29.317s9.9456 12.01 49.993 10.773c40.048-1.2372 53.079-6.1994 55.101-11.441 2.0214-5.242-7.0207-11.999-14.413-9.2974-1.3769 0.50327 16.809-10.284-11.232-10.32-22.663-0.028902-13.728-13.82-13.728-13.82s-56.547 12.655-55.364 19.873c1.1831 7.2182 8.7017 2.6629 8.7017 2.6629s-22.804-3.2134-19.059 11.569z" fill="#fff" style="paint-order:markers fill stroke"/>
 </g>
 <g transform="translate(-.018452 4.799)" fill="#fffaf1">
  <path d="m88.304 9.0611s12.3 4.3942-20.97 20.933c-6.106 3.0354 27.905-10.714 27.905-10.714s13.597-8.6874-6.9348-10.219z" style="paint-order:markers fill stroke"/>
  <path d="m95.714 19.528s9.4881-1.2468 7.2258 7.1736-38.432 13.088-38.432 13.088 39.207-0.58535 44.4-10.242c4.5333-8.4307-10.765-12.856-13.193-10.019z" style="paint-order:markers fill stroke"/>
  <path d="m51.365-0.23285s-40.342 10.625-32.699 16.974c7.6432 6.3483 29.921 8.1063 29.921 8.1063s-28.004-1.9543-32.892-6.9321c-4.1618-4.2383 2.4779-10.25 35.671-18.148z" style="paint-order:markers fill stroke"/>
  <path d="m15.442 17.667c-1.8221-0.48637-34.23 14.864 26.101 22.435 4.7219 0.59255-38.22-1.9136-37.946-13.453 0.22848-9.6259 13.014-8.6707 11.846-8.9827z" style="paint-order:markers fill stroke"/>
  <path d="m70.134-4.7988s-20.59 8.1748-8.8769 13.745c11.713 5.5705 25.153-1.096 29.558 2.7138 2.3414 2.0251-1.8428-2.6181-1.8428-2.6181s-18.014 0.88216-20.154-5.4952c-1.4659-4.3695 1.3154-8.3457 1.3154-8.3457z" style="paint-order:markers fill stroke"/>
 </g>
 <g stroke-linecap="round" stroke-linejoin="round" stroke-width=".6">
  <path d="m12 32.739 2.7254-4.0019 0.72404 1.4713-2.0415 2.6888z" fill="#e63643" style="paint-order:markers fill stroke"/>
  <path d="m43.913 13.572 2.7254-4.0019 0.72404 1.4713-2.0415 2.6888z" fill="#e6a536" style="paint-order:markers fill stroke"/>
  <path d="m27.427 32.346-3.2396-4.1022 1.2075-0.75806 2.8871 4.7065z" fill="#36c0e6" style="paint-order:markers fill stroke"/>
  <path d="m62.899 27.945-3.2396-4.1022 1.2075-0.75806 2.8871 4.7065z" fill="#36e642" style="paint-order:markers fill stroke"/>
  <path d="m86.908 37.338-3.2396-4.1022 1.2075-0.75806 2.8871 4.7065z" fill="#e636d7" style="paint-order:markers fill stroke"/>
  <path d="m75.194 40.278-3.2396-4.1022 1.2075-0.75806 2.8871 4.7065z" fill="#e6a536" style="paint-order:markers fill stroke"/>
  <path d="m31.915 15.703-1.6127 6.5077 0.9644 0.07766z" fill="#36e642" style="paint-order:markers fill stroke"/>
  <path d="m52.584 26.686-1.6127 6.5077 0.9644 0.07766z" fill="#36c0e6" style="paint-order:markers fill stroke"/>
  <path d="m75.21 22.623-1.6127 6.5077 0.9644 0.07766z" fill="#e63643" style="paint-order:markers fill stroke"/>
  <path d="m17.466 36.475 5.9147 1.0604-0.19606 1.2856-6.0185-1.359z" fill="#e6a536" style="paint-order:markers fill stroke"/>
  <path d="m34.929 33.056 5.9147 1.0604-0.19606 1.2856-6.0185-1.359z" fill="#e63643" style="paint-order:markers fill stroke"/>
  <path d="m57.157 37.983 5.9147 1.0604-0.19606 1.2856-6.0185-1.359z" fill="#36c0e6" style="paint-order:markers fill stroke"/>
  <path d="m91.41 30.254 5.9147 1.0604-0.19606 1.2856-6.0185-1.359z" fill="#36e642" style="paint-order:markers fill stroke"/>
  <path d="m49.217 17.424-2.1126 4.8146 0.85459 0.42847 2.0913-4.4305" fill="#e636d7" style="paint-order:markers fill stroke"/>
  <path d="m83.987 17.924-2.1126 4.8146 0.85459 0.42847 2.0913-4.4305" fill="#36c0e6" style="paint-order:markers fill stroke"/>
  <path d="m46.12 36.976-2.1126 4.8146 0.85459 0.42847 2.0913-4.4305" fill="#36e642" style="paint-order:markers fill stroke"/>
 </g>
 </symbol>
</svg>
