<?xml version="1.0" encoding="UTF-8"?>
<!-- Created using Krita: https://krita.org -->
<svg width="365.28pt" height="108.24pt" version="1.1" viewBox="0 0 365.28 108.24" xmlns="http://www.w3.org/2000/svg">
    <symbol id="mastodon-svg-logo-full">
        <g fill-rule="evenodd" stroke-linecap="square" stroke-linejoin="bevel">
            <path transform="matrix(.72648 0 0 .72648 89.36 30.289)"
                  d="m24.804 0c-0.9768 6.1775-0.4395 9.1402 1.6116 8.8881 3.0768-0.37822 20.512-8.1316 30.035 2.8366 6.3489 7.3121 8.4489 17.965 6.3001 31.959-2.6372 13.364-9.7675 23.323-21.391 29.879-11.623 6.5557-23.198 10.716-34.724 12.481-2.5396 0-4.6396 1.5128-6.3001 4.5386-1.6605 3.0257 2.8326-8.1317 13.479-33.472-1.8559 3.2779-1.9047 5.6102-0.1466 6.997 1.7582 1.3868 6.2513 1.702 13.479 0.9455 12.729-3.2794 20.22-10.555 23.704-21.774 3.4849-11.219 2.3779-17.37-3.0605-20.965-6.2935-2.5884-11.651-3.5414-16.62 0.6999s-9.7073 10.483-12.375 16.32c0.4672 0.1168 2.0023-13.112 6.007-39.334z"
                  fill="#fff" stroke="#392526" stroke-width="1.2"/>
            <path transform="matrix(.72648 0 0 .72648 93 63.165)"
                  d="m3.1797 34.585c-1.1881 1.4279-1.8791 4.0387-3.1797 6.0291 8.6475-1.2512 20.722-4.5497 26.883-8.259 6.5113-2.5497 11.812-5.2906 18.17-10.943 6.3581-5.6527 10.438-13.205 11.604-21.412-5.1009 18.301-25.208 31.46-53.477 34.585z"
                  fill="#ded6d3" stroke="#000" stroke-opacity="0" stroke-width="0"/>
            <path transform="matrix(.72648 0 0 .72648 111.45 41.705)"
                  d="m1.2264 0.99292c-1.3839 1.4008-0.32786 6.231-1.2264 7.4168 2.2489-2.9484 3.0081-3.825 8.5848-4.38 3.2418-0.12727 7.7064 1.2471 8.547 1.8685 2.1652 1.8358-3.3826-5.3094-8.1966-5.6061-3.2036-0.98665-7.446 0.85524-7.7088 0.7008z"
                  fill="#ded6d3" stroke="#000" stroke-opacity="0" stroke-width="0"/>
            <path transform="matrix(.72648 0 0 .72648 .36553 1.3212)"
                  d="m155.03 35.332c0.381 58.339-26.111 103.68-38.913 108.29-9.902 3.567-68.911 2.4-73.836 0-18.654-9.09-43.89-73.541-42.198-112.39 0.89936-20.643 41.898-32.806 80.933-31.072 37.583-1.3068 73.847 9.674 74.014 35.168z"
                  fill="#fff" stroke="#2b0000" stroke-width=".96"/>
            <g stroke="#000" stroke-opacity="0" stroke-width="0">
                <path transform="matrix(.72648 0 0 .72648 2.9319 5.3994)"
                      d="m5.1915 40.573c7.6134-14.972 36.116-27.902 67.861-27.682 31.745 0.2197 59.992 6.8567 71.082 27.449 3.519-2.6066 7.507-13.7-0.03-22.35-13.319-11.917-36.935-17.906-70.175-17.989-33.241-0.082801-55.036 5.6276-68.271 18.029-6.6763 8.7673-8.19 16.545-0.4672 22.542z"
                      fill="#ded6d3"/>
                <path transform="matrix(.72648 0 0 .72648 66.64 45.48)"
                      d="m61.805 0c0.6099 0.17429-0.6964 11.527-3.3302 19.507-3.3391 13.086-9.0373 31.531-17.053 44.268-4.6255 8.4497-12.537 17.597-15.651 18.338-6.8601 2.3335-21.906 2.6159-24.995 2.5696-4.2083 0.1563 9.5128-0.2588 21.725-8.9936 19.201-11.894 30.462-43.693 39.305-75.688z"
                      fill="#ded6d3"/>
                <path transform="matrix(.72648 0 0 .72648 6.6039 14.68)"
                      d="m67.998 0c39.989 0.6588 61.865 9.3463 70.623 26.867 4.298 4.4623-34.754 15.652-72.959 14.948-34.81 0.0138-70.08-11.138-65.209-15.202 8.6144-13.968 33.289-25.914 67.545-26.612z"
                      fill="#8d5943"/>
                <path transform="matrix(.72648 0 0 .72648 6.5995 20.16)"
                      d="m26.76 0c-38.971 30.527 75.397 36.809 17.096 32.871-25.738-3.3597-43.983-9.3754-43.856-12.719 1.5489-4.5222 10.229-14.087 26.759-20.152z"
                      fill="#2b0000"/>
            </g>
        </g>
        <g fill="#fff" fill-rule="evenodd" stroke-linecap="square" stroke-linejoin="bevel">
            <ellipse transform="matrix(.72648 0 0 .72648 79.746 65.043)" cx="3" cy="2.88" rx="3" ry="2.88" stroke="#fff"
                     stroke-width="1.3296"/>
            <ellipse transform="matrix(.72648 0 0 .72648 35.827 65.023)" cx="3" cy="2.88" rx="3" ry="2.88" stroke="#fff"
                     stroke-width="1.3296"/>
            <path transform="matrix(.72648 0 0 .72648 47.692 77.468)"
                  d="m1.3111 0.16971c-2.2708 4.7867-1.5919 7.6435 2.0365 8.5701 3.5747 1.7346 9.1462-1.8944 9.249-4.4972 0.9524 3.6232 3.498 5.2071 7.6367 4.7518 4.9786 0.27537 6.2514-2.7228 3.8184-8.9944"
                  stroke="#000" stroke-width="2.4"/>
            <ellipse transform="matrix(.72648 0 0 .72648 79.746 65.043)" cx="3" cy="2.88" rx="3" ry="2.88" stroke="#fff"
                     stroke-width="1.3296"/>
        </g>
        <path transform="matrix(1 0 0 1 151.29 75.099)"
              d="m183.36-35.472c-2.784 0-5.0404 1.0086-6.6724 2.9766-1.296 1.536-1.7748 3.0718-2.1108 6.3838h-2.3042v5.3276h2.3042v20.785h6.3838v-20.785h3.5991v-5.3276h-3.5991c0.048-2.448 0.86323-3.2153 3.4072-3.2153h0.57569v-6.0483c-0.768-0.095999-1.1035-0.096679-1.5835-0.096679zm-57.792 8.2559c-7.872 0-14.016 6.0964-14.016 13.92 0 7.728 6.3355 13.92 14.208 13.92 6.24 0 10.993-3.4084 13.201-9.3604h-7.2012c-1.584 2.448-3.4069 3.5039-6.0469 3.5039-4.416 0-7.7285-3.4563-7.7285-8.1123 0-4.704 3.1195-8.0156 7.5835-8.0156 2.88 0 4.8959 1.1995 6.1919 3.6475h7.2012c-0.912-2.688-1.7766-4.0798-3.6006-5.7598-2.592-2.4-6.0965-3.7441-9.7925-3.7441zm29.521 0c-7.872 0-13.537 5.9051-13.537 14.017 0 8.016 5.6156 13.824 13.392 13.824 3.744 0 6.289-1.1516 8.833-4.0796v3.4556h5.855v-26.593h-5.855v3.5522c-2.208-2.928-4.848-4.1763-8.688-4.1763zm45.072 0c-7.824 0-14.016 6.1931-14.016 14.017 0 7.776 6.2874 13.824 14.399 13.824 4.368 0 7.7761-1.5843 10.56-4.8003 1.008-1.248 1.6803-2.3518 2.1123-3.6958h-6.9609c-1.632 1.92-3.215 2.6396-5.855 2.6396-3.792 0-6.5767-2.0164-7.3447-5.2324h20.593c0.192-0.96 0.24024-1.5346 0.24024-2.4946 0-8.208-5.8085-14.257-13.729-14.257zm-44.401 5.8564c4.56 0 7.8252 3.4079 7.8252 8.2559 0 1.92-0.76841 4.1287-1.9204 5.4727-1.296 1.584-3.3601 2.3994-5.8081 2.3994-4.656 0-7.8721-3.1677-7.8721-7.8237 0-4.848 3.2154-8.3042 7.7754-8.3042zm44.496 0c3.936 0 6.5287 1.8728 7.3447 5.2808h-14.736c1.008-3.456 3.5996-5.2808 7.3916-5.2808zm-100.13 15.217v6.1436h6.3852v-6.1436h-6.3852z"/>
        <path transform="matrix(1 0 0 1 151.59 37.989)"
              d="m181.89-1.8015e-4c-2.782 0-5.0324 1.0004-6.6724 2.9692-1.297 1.5312-1.7654 3.0772-2.1094 6.3896h-2.2954v5.3291h2.2954v20.78h6.3911v-20.78h3.5933v-5.3291h-3.5933c0.047-2.4531 0.85877-3.2183 3.4058-3.2183h0.57861v-6.0469c-0.765-0.0938-1.1098-0.09375-1.5938-0.09375zm-57.782 8.25c-7.875 0-14.014 6.0938-14.014 13.922 0 7.7344 6.3442 13.922 14.219 13.922 6.234 0 10.984-3.4057 13.187-9.3589h-7.1865c-1.594 2.4532-3.4069 3.4995-6.0469 3.4995-4.422 0-7.7358-3.4531-7.7358-8.1094 0-4.7031 3.1246-8.0156 7.5776-8.0156 2.891 0 4.9081 1.2026 6.2051 3.6401h7.1865c-0.90599-2.6875-1.7667-4.0776-3.5947-5.7495-2.593-2.4062-6.0929-3.75-9.7969-3.75zm29.533 0c-7.875 0-13.547 5.9062-13.547 14.016 0 8.0156 5.6252 13.828 13.39 13.828 3.75 0 6.2963-1.1562 8.8433-4.0781v3.4526h5.8447v-26.593h-5.8447v3.5464c-2.219-2.9219-4.8585-4.1719-8.6865-4.1719zm45.047 0c-7.813 0-14.016 6.1874-14.016 14.016 0 7.7812 6.2963 13.828 14.405 13.828 4.36 0 7.781-1.5786 10.563-4.7974 1-1.25 1.6724-2.3593 2.1094-3.7031h-6.9697c-1.625 1.9219-3.2018 2.6411-5.8418 2.6411-3.797 0-6.5797-2.0151-7.3447-5.2339h20.594c0.187-0.9531 0.23438-1.5317 0.23438-2.5005 0-8.2031-5.8134-14.25-13.734-14.25zm-44.375 5.8594c4.546 0 7.812 3.4063 7.812 8.25 0 1.9219-0.76587 4.125-1.9219 5.4844-1.281 1.5781-3.3599 2.3906-5.7978 2.3906-4.656 0-7.875-3.1718-7.875-7.8281 0-4.8438 3.2197-8.2969 7.7827-8.2969zm44.467 0c3.938 0 6.5328 1.8759 7.3608 5.2822h-14.75c1.015-3.4532 3.6077-5.2822 7.3887-5.2822zm-100.11 15.22v6.1392h6.3911v-6.1392h-6.3911z"
              fill="#8d5943"/>
        <path transform="matrix(.72648 0 0 .72648 75.358 67.31)"
              d="m0.043802 0c-0.20601 5.7778 0.11742 8.6526 5.3976 8.6707 5.4742 1.5e-4 5.5666-3.2599 5.6694-8.6707"
              fill="#fff" fill-rule="evenodd" stroke="#000" stroke-linecap="square" stroke-linejoin="bevel"
              stroke-width="2.4"/>
        <path transform="matrix(.72648 0 0 .72648 30.846 66.567)"
              d="m0.043802 0c-0.20601 5.7778 0.11742 8.6526 5.3976 8.6707 5.4742 1.5e-4 5.5666-3.2599 5.6694-8.6707"
              fill="#fff" fill-rule="evenodd" stroke="#000" stroke-linecap="square" stroke-linejoin="bevel"
              stroke-width="2.4"/>
        <g stroke-width="1.3305px">
            <g transform="matrix(1.0958 0 0 .9126 2.7816 1.8049)" fill="#1a1a1a" aria-label="uwu">
                <path d="m159.78 63.785c-2.5e-4 4.8137 0.0479 9.6422 0.16735 14.442-0.80617 3.71-5.6654 2.8426-7.1326 0.85604-4.7083 1.5241-10.864 1.9537-14.483-2.0608-2.4389-3.4291-1.9338-7.9478-2.49-11.93-0.21206-4.1201-0.10623-8.3728 1.0948-12.337 2.583-4.0816 8.5511 0.02286 6.5129 4.1465-0.87376 5.2165-0.68021 10.637 0.45315 15.797 2.5093 0.80607 7.882 1.1792 8.7819-1.2685 0.098-6.1315-0.58252-12.413 0.78444-18.431 2.8052-4.3745 8.7061 0.16531 6.663 4.4727-0.11667 2.1043-0.19173 4.2122-0.35154 6.3134z"/>
                <path d="m197.92 55.911c-1.9058 6.8018-3.6705 13.678-6.2068 20.275-0.88283 3.1558-4.8561 6.6308-7.7459 3.49-3.1936-3.9064-3.3186-9.2468-4.2121-13.994-1.8923 4.0927-3.2534 8.4215-5.1129 12.519-1.8688 3.9982-6.7967 2.5292-7.4984-1.4821-2.3963-6.0765-2.8029-12.706-3.9715-19.082-2.0015-4.081 3.7384-8.2952 6.4561-4.3203 1.4266 3.9661 1.1096 8.3237 2.0576 12.418 0.20036 2.0568 0.47617 3.4008 1.1442 0.55486 1.5657-4.133 2.6323-8.4599 4.3262-12.533 2.8955-4.5207 8.0696-0.07185 7.6446 4.0787 0.82384 3.983 1.4141 8.0095 2.1784 12.004 1.5753-5.5677 2.6953-11.296 4.4973-16.778 1.9552-2.7616 7.5002-0.6797 6.4431 2.8488z"/>
                <path d="m223.86 63.785c-2.4e-4 4.8137 0.0479 9.6422 0.16736 14.442-0.80618 3.71-5.6654 2.8426-7.1327 0.85604-4.7083 1.5241-10.864 1.9537-14.483-2.0608-2.4389-3.4291-1.9338-7.9478-2.49-11.93-0.21206-4.1201-0.10623-8.3728 1.0948-12.337 2.583-4.0816 8.5511 0.02285 6.5129 4.1465-0.87378 5.2165-0.68021 10.637 0.45314 15.797 2.5093 0.80607 7.882 1.1792 8.7819-1.2685 0.098-6.1315-0.58253-12.413 0.78443-18.431 2.8052-4.3745 8.7061 0.16531 6.663 4.4727-0.11667 2.1043-0.19173 4.2122-0.35154 6.3134z"/>
            </g>
            <g transform="matrix(1.0958 0 0 .9126 -.26289 -.48021)" fill="#4d4d4d" aria-label="uwu">
                <path d="m159.78 63.785c-2.5e-4 4.8137 0.0479 9.6422 0.16735 14.442-0.80617 3.71-5.6654 2.8426-7.1326 0.85604-4.7083 1.5241-10.864 1.9537-14.483-2.0608-2.4389-3.4291-1.9338-7.9478-2.49-11.93-0.21206-4.1201-0.10623-8.3728 1.0948-12.337 2.583-4.0816 8.5511 0.02286 6.5129 4.1465-0.87376 5.2165-0.68021 10.637 0.45315 15.797 2.5093 0.80607 7.882 1.1792 8.7819-1.2685 0.098-6.1315-0.58252-12.413 0.78444-18.431 2.8052-4.3745 8.7061 0.16531 6.663 4.4727-0.11667 2.1043-0.19173 4.2122-0.35154 6.3134z"/>
                <path d="m197.92 55.911c-1.9058 6.8018-3.6705 13.678-6.2068 20.275-0.88283 3.1558-4.8561 6.6308-7.7459 3.49-3.1936-3.9064-3.3186-9.2468-4.2121-13.994-1.8923 4.0927-3.2534 8.4215-5.1129 12.519-1.8688 3.9982-6.7967 2.5292-7.4984-1.4821-2.3963-6.0765-2.8029-12.706-3.9715-19.082-2.0015-4.081 3.7384-8.2952 6.4561-4.3203 1.4266 3.9661 1.1096 8.3237 2.0576 12.418 0.20036 2.0568 0.47617 3.4008 1.1442 0.55486 1.5657-4.133 2.6323-8.4599 4.3262-12.533 2.8955-4.5207 8.0696-0.07185 7.6446 4.0787 0.82384 3.983 1.4141 8.0095 2.1784 12.004 1.5753-5.5677 2.6953-11.296 4.4973-16.778 1.9552-2.7616 7.5002-0.6797 6.4431 2.8488z"/>
                <path d="m223.86 63.785c-2.4e-4 4.8137 0.0479 9.6422 0.16736 14.442-0.80618 3.71-5.6654 2.8426-7.1327 0.85604-4.7083 1.5241-10.864 1.9537-14.483-2.0608-2.4389-3.4291-1.9338-7.9478-2.49-11.93-0.21206-4.1201-0.10623-8.3728 1.0948-12.337 2.583-4.0816 8.5511 0.02285 6.5129 4.1465-0.87378 5.2165-0.68021 10.637 0.45314 15.797 2.5093 0.80607 7.882 1.1792 8.7819-1.2685 0.098-6.1315-0.58253-12.413 0.78443-18.431 2.8052-4.3745 8.7061 0.16531 6.663 4.4727-0.11667 2.1043-0.19173 4.2122-0.35154 6.3134z"/>
            </g>
            <g transform="matrix(1.0958 0 0 .9126 -2.7369 -2.4824)" fill="#f0f" aria-label="uwu">
                <path d="m159.78 63.785c-2.5e-4 4.8137 0.0479 9.6422 0.16735 14.442-0.80617 3.71-5.6654 2.8426-7.1326 0.85604-4.7083 1.5241-10.864 1.9537-14.483-2.0608-2.4389-3.4291-1.9338-7.9478-2.49-11.93-0.21206-4.1201-0.10623-8.3728 1.0948-12.337 2.583-4.0816 8.5511 0.02286 6.5129 4.1465-0.87376 5.2165-0.68021 10.637 0.45315 15.797 2.5093 0.80607 7.882 1.1792 8.7819-1.2685 0.098-6.1315-0.58252-12.413 0.78444-18.431 2.8052-4.3745 8.7061 0.16531 6.663 4.4727-0.11667 2.1043-0.19173 4.2122-0.35154 6.3134z"/>
                <path d="m197.92 55.911c-1.9058 6.8018-3.6705 13.678-6.2068 20.275-0.88283 3.1558-4.8561 6.6308-7.7459 3.49-3.1936-3.9064-3.3186-9.2468-4.2121-13.994-1.8923 4.0927-3.2534 8.4215-5.1129 12.519-1.8688 3.9982-6.7967 2.5292-7.4984-1.4821-2.3963-6.0765-2.8029-12.706-3.9715-19.082-2.0015-4.081 3.7384-8.2952 6.4561-4.3203 1.4266 3.9661 1.1096 8.3237 2.0576 12.418 0.20036 2.0568 0.47617 3.4008 1.1442 0.55486 1.5657-4.133 2.6323-8.4599 4.3262-12.533 2.8955-4.5207 8.0696-0.07185 7.6446 4.0787 0.82384 3.983 1.4141 8.0095 2.1784 12.004 1.5753-5.5677 2.6953-11.296 4.4973-16.778 1.9552-2.7616 7.5002-0.6797 6.4431 2.8488z"/>
                <path d="m223.86 63.785c-2.4e-4 4.8137 0.0479 9.6422 0.16736 14.442-0.80618 3.71-5.6654 2.8426-7.1327 0.85604-4.7083 1.5241-10.864 1.9537-14.483-2.0608-2.4389-3.4291-1.9338-7.9478-2.49-11.93-0.21206-4.1201-0.10623-8.3728 1.0948-12.337 2.583-4.0816 8.5511 0.02285 6.5129 4.1465-0.87378 5.2165-0.68021 10.637 0.45314 15.797 2.5093 0.80607 7.882 1.1792 8.7819-1.2685 0.098-6.1315-0.58253-12.413 0.78443-18.431 2.8052-4.3745 8.7061 0.16531 6.663 4.4727-0.11667 2.1043-0.19173 4.2122-0.35154 6.3134z"/>
            </g>
        </g>
    </symbol>
</svg>