<?xml version="1.0" encoding="UTF-8" standalone="no"?>
<!-- Created using Krita: https://krita.org -->

<svg
   width="365.16388pt"
   height="103.57125pt"
   viewBox="0 0 365.16387 103.57125"
   version="1.1"
   id="svg2"
   sodipodi:docname="owocafe.svg"
   inkscape:version="1.3 (0e150ed6c4, 2023-07-21)"
   xmlns:inkscape="http://www.inkscape.org/namespaces/inkscape"
   xmlns:sodipodi="http://sodipodi.sourceforge.net/DTD/sodipodi-0.dtd"
   xmlns="http://www.w3.org/2000/svg"
   xmlns:svg="http://www.w3.org/2000/svg"
   xmlns:krita="http://krita.org/namespaces/svg/krita">
  <sodipodi:namedview
     id="namedview2"
     pagecolor="#505050"
     bordercolor="#eeeeee"
     borderopacity="1"
     inkscape:showpageshadow="0"
     inkscape:pageopacity="0"
     inkscape:pagecheckerboard="0"
     inkscape:deskcolor="#505050"
     inkscape:document-units="pt"
     inkscape:zoom="4"
     inkscape:cx="44.25"
     inkscape:cy="66"
     inkscape:window-width="2560"
     inkscape:window-height="1023"
     inkscape:window-x="0"
     inkscape:window-y="0"
     inkscape:window-maximized="1"
     inkscape:current-layer="owoTan" />
  <defs
     id="defs1" />
  <g
     id="g5"
     style="display:none;opacity:1"
     inkscape:label="owoTanChata"
     transform="matrix(0.70070668,0,0,0.66193183,-35.357131,-23.928681)">
    <path
       id="shape01-6"
       transform="matrix(1.0911925,0,0,1.0911925,176.70273,80.525153)"
       fill="#ffffff"
       fill-rule="evenodd"
       stroke="#392526"
       stroke-width="1.2"
       stroke-linecap="square"
       stroke-linejoin="bevel"
       d="m 24.8037,0 c -0.9768,6.17752 -0.4395,9.1402 1.6116,8.88806 3.0768,-0.37822 20.5119,-8.131629 30.0352,2.83664 6.3489,7.3121 8.4489,17.9652 6.3001,31.9592 C 60.1134,57.0475 52.9831,67.0071 41.3597,73.5629 29.7363,80.1186 18.1618,84.279 6.63612,86.044 c -2.53956,0 -4.63959,1.5128 -6.300072,4.5386 -1.660478,3.0257 2.832602,-8.1317 13.479252,-33.4721 -1.8559,3.2779 -1.9047,5.6102 -0.1466,6.997 1.7582,1.3868 6.2513,1.702 13.4792,0.9455 C 39.8772,61.7736 47.3674,54.4983 50.8523,43.2795 54.3372,32.0605 53.2302,25.9092 47.7918,22.3147 41.4983,19.7263 36.1408,18.7733 31.1714,23.0146 26.202,27.2559 21.4641,33.4974 18.7967,39.3344 19.2639,39.4512 20.799,26.2229 24.8037,0 Z"
       sodipodi:nodetypes="czzczczczczczcc" />
    <path
       id="shape011-7"
       transform="matrix(1.0911926,0,0,1.0911926,182.16944,129.90623)"
       fill="#ded6d3"
       fill-rule="evenodd"
       stroke-opacity="0"
       stroke="#000000"
       stroke-width="0"
       stroke-linecap="square"
       stroke-linejoin="bevel"
       d="M 3.17974,34.5848 C 1.99161,36.0127 1.30061,38.6235 0,40.6139 8.64746,39.3627 20.7225,36.0642 26.8832,32.3549 33.3945,29.8052 38.6952,27.0643 45.0532,21.4116 51.4113,15.7589 55.4915,8.2066 56.6571,0 51.5562,18.3012 31.4495,31.4597 3.17974,34.5848 Z"
       sodipodi:nodetypes="ccczcc" />
    <path
       id="shape1-5"
       transform="matrix(1.0911926,0,0,1.0911926,209.952,97.672637)"
       fill="#ded6d3"
       fill-rule="evenodd"
       stroke-opacity="0"
       stroke="#000000"
       stroke-width="0"
       stroke-linecap="square"
       stroke-linejoin="bevel"
       d="M 1.16801,0.992915 C -0.215899,2.39372 0.89855,7.63276 0,8.81856 2.24,5.80787 2.8607,3.96147 8.52645,4.02973 11.7683,3.90246 16.3292,5.74433 17.1697,6.36575 19.3349,8.20159 13.6908,0.58889 8.87685,0.292111 5.67325,-0.694538 1.43083,1.14735 1.16801,0.992915 Z"
       sodipodi:nodetypes="cccccc" />
    <path
       id="shape2-3"
       fill="#ffffff"
       fill-rule="evenodd"
       stroke="#2b0000"
       stroke-width="0.96"
       stroke-linecap="square"
       stroke-linejoin="bevel"
       d="m 155.028,35.3319 c 0.381,58.339 -26.111,103.6791 -38.913,108.2911 -9.902,3.567 -68.9112,2.4 -73.8362,0 C 23.6248,134.533 -1.61155,70.0818 0.0808431,31.236 0.980207,10.5928 41.9787,-1.57006 81.0137,0.16354 118.597,-1.14321 154.861,9.83751 155.028,35.3319 Z"
       sodipodi:nodetypes="cssscs"
       transform="matrix(1.0911926,0,0,1.0911926,43.029055,37.014555)" />
    <path
       id="shape3-5"
       transform="matrix(1.0911926,0,0,1.0911926,46.883838,43.140108)"
       fill="#ded6d3"
       fill-rule="evenodd"
       stroke-opacity="0"
       stroke="#000000"
       stroke-width="0"
       stroke-linecap="square"
       stroke-linejoin="bevel"
       d="M 5.19147,40.5728 C 12.8049,25.6007 41.0809,13.1766 73.0527,12.891 c 31.9713,-0.2856 59.9923,6.66 71.0823,27.4487 3.519,-2.6066 7.507,-13.7001 -0.03,-22.35 C 130.786,6.0725 107.17,0.0836878 73.9297,8.87255e-4 40.6886,-0.0819133 18.894,5.62849 5.65867,18.0303 -1.01765,26.7976 -2.53136,34.5757 5.19147,40.5728 Z"
       sodipodi:nodetypes="czcczcc" />
    <path
       id="shape4-6"
       transform="matrix(1.0911926,0,0,1.0911926,142.57561,103.34271)"
       fill="#ded6d3"
       fill-rule="evenodd"
       stroke-opacity="0"
       stroke="#000000"
       stroke-width="0"
       stroke-linecap="square"
       stroke-linejoin="bevel"
       d="M 61.8054,0 C 62.3215,0.143041 60.6015,11.3578 58.4752,19.5072 55.1361,32.5936 49.4379,51.0386 41.4223,63.7747 36.7968,72.2244 28.8851,81.372 25.771,82.1124 18.9109,84.4459 3.8648,84.7283 0.775678,84.682 -3.43262,84.8383 10.2885,84.4232 22.5006,75.6884 41.7017,63.7948 52.9631,31.9955 61.8054,0 Z"
       sodipodi:nodetypes="ccccccc" />
    <path
       id="shape0111"
       transform="matrix(1.0911926,0,0,1.0911926,52.399336,57.07928)"
       fill="#8d5943"
       fill-rule="evenodd"
       stroke-opacity="0"
       stroke="#000000"
       stroke-width="0"
       stroke-linecap="square"
       stroke-linejoin="bevel"
       d="M 67.9981,0 C 107.987,0.658804 129.863,9.34631 138.621,26.8671 142.919,31.3294 103.867,42.5192 65.6621,41.8146 30.8519,41.8284 -4.41755,30.6766 0.452699,26.6121 9.0671,12.6445 32.916,2.18441 67.9981,0 Z"
       sodipodi:nodetypes="ccccc" />
    <path
       id="shape02-2"
       transform="matrix(1.0911926,0,0,1.0911926,52.803112,65.746019)"
       fill="#2b0000"
       fill-rule="evenodd"
       stroke-opacity="0"
       stroke="#000000"
       stroke-width="0"
       stroke-linecap="square"
       stroke-linejoin="bevel"
       d="M 26.9814,0 C -11.9892,30.5269 102.236,36.3218 43.9356,32.3838 18.4705,28.5685 -0.107888,22.1159 4.71549e-4,18.8049 1.5599,14.3037 10.8364,6.8366 26.9814,0 Z"
       sodipodi:nodetypes="cccc" />
    <circle
       id="shape5-9"
       transform="matrix(1.0911926,0,0,1.0911926,84.481322,129.58406)"
       cx="9.6000004"
       cy="9.6000004"
       fill="#000000"
       fill-rule="evenodd"
       stroke="#000000"
       stroke-width="1.3296"
       stroke-linecap="square"
       stroke-linejoin="bevel"
       r="9.6000004" />
    <circle
       id="shape03-1"
       transform="matrix(1.0911925,0,0,1.0911925,151.22612,130.07164)"
       cx="9.6000004"
       cy="9.6000004"
       fill="#000000"
       stroke="#000000"
       stroke-width="1.3296"
       stroke-linecap="square"
       stroke-linejoin="bevel"
       r="9.6000004" />
    <ellipse
       id="shape6-2"
       transform="matrix(1.0911926,0,0,1.0911926,162.26153,132.72669)"
       rx="3"
       ry="2.8800001"
       cx="3"
       cy="2.8800001"
       fill="#ffffff"
       fill-rule="evenodd"
       stroke="#ffffff"
       stroke-width="1.3296"
       stroke-linecap="square"
       stroke-linejoin="bevel" />
    <ellipse
       id="shape04-7"
       transform="matrix(1.0911926,0,0,1.0911926,96.293022,132.69683)"
       rx="3"
       ry="2.8800001"
       cx="3"
       cy="2.8800001"
       fill="#ffffff"
       fill-rule="evenodd"
       stroke="#ffffff"
       stroke-width="1.3296"
       stroke-linecap="square"
       stroke-linejoin="bevel" />
    <path
       id="shape7-0"
       transform="matrix(1.0911926,0,0,1.0911926,114.11474,151.38956)"
       fill="#ffffff"
       fill-rule="evenodd"
       stroke="#000000"
       stroke-width="2.4"
       stroke-linecap="square"
       stroke-linejoin="bevel"
       d="M 1.31113,0.169706 C -0.959641,4.95645 -0.280819,7.81316 3.3476,8.73984 6.92228,10.4744 12.4938,6.84539 12.5966,4.24264 13.549,7.86583 16.0946,9.44975 20.2333,8.9944 25.2119,9.26977 26.4847,6.27163 24.0517,0"
       sodipodi:nodetypes="ccccc" />
    <ellipse
       id="shape05-9"
       transform="matrix(1.0911926,0,0,1.0911926,162.26153,132.72669)"
       rx="3"
       ry="2.8800001"
       cx="3"
       cy="2.8800001"
       fill="#ffffff"
       fill-rule="evenodd"
       stroke="#ffffff"
       stroke-width="1.3296"
       stroke-linecap="square"
       stroke-linejoin="bevel" />
  </g>
  <g
     id="owoTan"
     inkscape:label=""
     transform="translate(-0.01664935,-0.97231284)"
     style="display:inline">
    <path
       id="brazo"
       transform="matrix(0.72647526,0,0,0.72647526,89.360475,30.288924)"
       fill="#ffffff"
       fill-rule="evenodd"
       stroke="#392526"
       stroke-width="1.2"
       stroke-linecap="square"
       stroke-linejoin="bevel"
       d="m 24.8037,0 c -0.9768,6.17752 -0.4395,9.1402 1.6116,8.88806 3.0768,-0.37822 20.5119,-8.131629 30.0352,2.83664 6.3489,7.3121 8.4489,17.9652 6.3001,31.9592 C 60.1134,57.0475 52.9831,67.0071 41.3597,73.5629 29.7363,80.1186 18.1618,84.279 6.63612,86.044 c -2.53956,0 -4.63959,1.5128 -6.300072,4.5386 -1.660478,3.0257 2.832602,-8.1317 13.479252,-33.4721 -1.8559,3.2779 -1.9047,5.6102 -0.1466,6.997 1.7582,1.3868 6.2513,1.702 13.4792,0.9455 C 39.8772,61.7736 47.3674,54.4983 50.8523,43.2795 54.3372,32.0605 53.2302,25.9092 47.7918,22.3147 41.4983,19.7263 36.1408,18.7733 31.1714,23.0146 26.202,27.2559 21.4641,33.4974 18.7967,39.3344 19.2639,39.4512 20.799,26.2229 24.8037,0 Z"
       sodipodi:nodetypes="czzczczczczczcc"
       inkscape:label="borde"
       style="stroke-width:1.54857304;stroke-dasharray:none;paint-order:markers stroke fill" />
    <path
       id="brazoSombraAbajo"
       transform="matrix(0.72647528,0,0,0.72647528,93.000008,63.165002)"
       fill="#ded6d3"
       fill-rule="evenodd"
       stroke-opacity="0"
       stroke="#000000"
       stroke-width="0"
       stroke-linecap="square"
       stroke-linejoin="bevel"
       d="M 3.17974,34.5848 C 1.99161,36.0127 3.0444028,38.839866 1.7437928,40.830266 10.391253,39.579066 19.200288,36.666524 27.324307,32.889022 36.350766,28.821714 40.742636,25.970673 45.515126,21.677357 50.287616,17.384041 55.265278,9.6502914 57.404365,0.0106593 52.303465,18.31186 31.4495,31.4597 3.17974,34.5848 Z"
       sodipodi:nodetypes="ccczcc"
       inkscape:label="sombra"
       style="stroke-width:1.03238;stroke-dasharray:none" />
    <path
       id="brazoSombraArriba"
       transform="matrix(0.72647528,0,0,0.72647528,111.4966,41.705079)"
       fill="#ded6d3"
       fill-rule="evenodd"
       stroke-opacity="0"
       stroke="#000000"
       stroke-width="0"
       stroke-linecap="square"
       stroke-linejoin="bevel"
       d="M 0.97144317,1.0164197 C -0.0280902,4.7723037 0.05715265,6.7385626 -0.12371836,8.035561 2.6434,5.6176163 5.1417733,4.4722979 8.5219944,4.3921653 11.764335,4.3919535 16.905617,6.2715598 17.746117,6.8929798 10.517652,-3.904958 1.5500281,1.3564027 0.97144317,1.0164197 Z"
       sodipodi:nodetypes="ccccc"
       inkscape:label="sombra" />
    <path
       id="taza"
       fill="#ffffff"
       fill-rule="evenodd"
       stroke="#2b0000"
       stroke-width="0.687187"
       stroke-linecap="square"
       stroke-linejoin="bevel"
       d="m 112.99466,26.234106 c 0.27681,41.143927 -18.97072,73.120302 -28.271902,76.372944 -7.194212,2.51564 -50.066831,1.69262 -53.645047,0 C 17.52481,96.196272 -0.81044021,50.741679 0.41915339,23.345448 1.0725782,8.7867088 30.859676,0.20877942 59.220214,1.4314111 86.526034,0.50981792 112.87333,8.254036 112.99466,26.234106 Z"
       sodipodi:nodetypes="cssscs"
       inkscape:label="borde"
       style="paint-order:markers stroke fill;stroke-width:1.125;stroke-dasharray:none" />
    <path
       id="tazaSombraArriba"
       fill="#ded6d3"
       fill-rule="evenodd"
       stroke-opacity="0"
       stroke="#000000"
       stroke-width="0"
       stroke-linecap="square"
       stroke-linejoin="bevel"
       d="M 6.7864352,33.453644 C 12.317404,22.576784 32.859219,13.550982 56.085941,13.343501 79.3123,13.13602 99.668864,18.181826 107.72548,33.284303 c 2.55646,-1.89363 4.37137,-9.475142 -1.10408,-15.75908 C 96.945474,8.8676712 80.871316,4.0393053 56.72306,3.9791528 32.574223,3.9190002 16.740985,8.0674671 7.1258445,17.077075 2.275663,23.446302 1.1759901,29.0969 6.7864352,33.453644 Z"
       sodipodi:nodetypes="czcczcc"
       inkscape:label="sombra" />
    <path
       id="tazaSombraAbajo"
       fill="#ded6d3"
       fill-rule="evenodd"
       stroke-opacity="0"
       stroke="#000000"
       stroke-width="0"
       stroke-linecap="square"
       stroke-linejoin="bevel"
       d="m 111.65982,45.846561 c -0.25017,2.105411 -1.2843,7.85197 -2.60665,13.253235 -1.94151,8.216296 -5.90582,20.180386 -12.23228,30.455084 -3.589357,5.919796 -7.361833,10.77588 -11.456441,12.78702 -2.676709,1.52462 -16.02844,1.83439 -18.272612,1.80245 -3.057224,0.1078 7.023201,-0.44077 15.89499,-6.464905 C 96.935951,89.476886 105.23611,67.91263 111.65982,45.846561 Z"
       sodipodi:nodetypes="ccccccc"
       inkscape:label="sombra" />
    <path
       id="cafe"
       fill="#8d5943"
       fill-rule="evenodd"
       stroke-opacity="0"
       stroke="#000000"
       stroke-width="0"
       stroke-linecap="square"
       stroke-linejoin="bevel"
       d="M 56.302834,12.94126 C 85.353782,13.419865 100.57497,20.370221 107.74657,33.255741 97.492054,39.723124 84.264125,45.477439 56.50921,44.965564 31.22046,44.97559 14.719726,40.101882 6.8180002,33.464526 12.983204,22.021588 30.816556,14.52818 56.302834,12.94126 Z"
       sodipodi:nodetypes="ccccc"
       inkscape:label="" />
    <path
       id="cafeSombra"
       fill="#2b0000"
       fill-rule="evenodd"
       stroke-opacity="0"
       stroke="#000000"
       stroke-width="0"
       stroke-linecap="square"
       stroke-linejoin="bevel"
       d="M 25.139885,19.161171 C -3.1712926,41.338209 79.616255,47.249981 38.678194,44.05026 19.582715,41.603428 12.309643,38.518963 6.8115517,33.475475 7.9444379,30.205464 13.45792,23.858793 25.139885,19.161171 Z"
       sodipodi:nodetypes="cccc"
       style="display:inline"
       inkscape:label="sombra" />
    <g
       inkscape:groupmode="layer"
       id="cara"
       inkscape:label=""
       transform="translate(0.01664935,0.97231284)">
      <circle
         id="ojoDerecho"
         cx="35.434528"
         cy="68.584373"
         fill="#000000"
         fill-rule="evenodd"
         stroke="#000000"
         stroke-width="0.965922"
         stroke-linecap="square"
         stroke-linejoin="bevel"
         r="6.9741631"
         inkscape:label=""
         style="display:inline"
         transform="translate(-0.01664935,-0.97231283)" />
      <circle
         id="ojoIzquierdo"
         cx="79.87072"
         cy="68.908981"
         fill="#000000"
         stroke="#000000"
         stroke-width="0.965921"
         stroke-linecap="square"
         stroke-linejoin="bevel"
         r="6.9741626"
         inkscape:label=""
         style="display:inline"
         transform="translate(-0.01664935,-0.97231283)" />
      <ellipse
         id="ojoIzquierdoBrilli"
         rx="2.179426"
         ry="2.0922489"
         cx="82.422951"
         cy="65.794708"
         fill="#ffffff"
         fill-rule="evenodd"
         stroke="#ffffff"
         stroke-width="0.965922"
         stroke-linecap="square"
         stroke-linejoin="bevel"
         inkscape:label=""
         style="display:inline"
         transform="translate(-0.01664935,-0.97231283)" />
      <ellipse
         id="ojoDerechoBrilli"
         rx="2.179426"
         ry="2.0922489"
         cx="38.503578"
         cy="65.774826"
         fill="#ffffff"
         fill-rule="evenodd"
         stroke="#ffffff"
         stroke-width="0.965922"
         stroke-linecap="square"
         stroke-linejoin="bevel"
         inkscape:label=""
         style="display:inline"
         transform="translate(-0.01664935,-0.97231283)" />
      <path
         id="boca"
         fill="#ffffff"
         fill-rule="evenodd"
         stroke="#000000"
         stroke-width="1.74354"
         stroke-linecap="square"
         stroke-linejoin="bevel"
         d="m 49.141692,76.250784 c -1.649659,3.477451 -1.156512,5.55278 1.479445,6.22599 2.596917,1.260115 6.644488,-1.376271 6.71917,-3.267104 0.691895,2.632158 2.54121,3.782836 5.547874,3.452036 3.616829,0.200049 4.541487,-1.978025 2.773973,-6.534209"
         sodipodi:nodetypes="ccccc"
         inkscape:label=""
         style="display:inline;fill:none"
         transform="translate(-0.01664935,-0.97231283)" />
    </g>
  </g>
  <g
     id="owocafeLogo"
     inkscape:label=""
     transform="translate(-0.01664935,-0.97231284)">
    <text
       id="textoSombra"
       krita:useRichText="true"
       krita:textVersion="2"
       transform="translate(151.29264,75.099413)"
       fill="#2b0000"
       stroke-opacity="0"
       stroke="#000000"
       stroke-width="0"
       stroke-linecap="square"
       stroke-linejoin="bevel"
       font-family="'URW Gothic'"
       font-size="48px"
       font-size-adjust="0.514706"
       font-stretch="normal"
       font-weight="600"
       letter-spacing="0"
       word-spacing="0"
       inkscape:label="sombra"><tspan
         x="0"
         id="tspan1">owo.cafe</tspan></text>
    <text
       id="texto"
       krita:useRichText="true"
       krita:textVersion="2"
       transform="translate(150.14935,73.458236)"
       fill="#8d5943"
       stroke-opacity="0"
       stroke="#000000"
       stroke-width="0.48"
       stroke-linecap="square"
       stroke-linejoin="bevel"
       font-family="'URW Gothic'"
       font-size="48px"
       font-size-adjust="0.514706"
       font-stretch="normal"
       font-weight="600"
       letter-spacing="0"
       word-spacing="0"
       inkscape:label=""><tspan
         x="0"
         id="tspan2">owo.cafe</tspan></text>
  </g>
</svg>
