<?xml version="1.0" encoding="UTF-8" standalone="no"?>
<!-- Created using Krita: https://krita.org -->

<svg
   width="300.39999pt"
   height="300.39999pt"
   viewBox="-18 -18 300.4 300.4"
   version="1.1"
   id="svg2"
   sodipodi:docname="owocafe_coaster_final.svg"
   inkscape:version="1.3 (0e150ed6c4, 2023-07-21)"
   inkscape:export-filename="owocafe_coaster2.svg"
   inkscape:export-xdpi="96"
   inkscape:export-ydpi="96"
   xmlns:inkscape="http://www.inkscape.org/namespaces/inkscape"
   xmlns:sodipodi="http://sodipodi.sourceforge.net/DTD/sodipodi-0.dtd"
   xmlns="http://www.w3.org/2000/svg"
   xmlns:svg="http://www.w3.org/2000/svg">
  <sodipodi:namedview
     id="namedview2"
     pagecolor="#505050"
     bordercolor="#eeeeee"
     borderopacity="1"
     inkscape:showpageshadow="0"
     inkscape:pageopacity="0"
     inkscape:pagecheckerboard="0"
     inkscape:deskcolor="#505050"
     inkscape:document-units="pt"
     inkscape:zoom="1.4399307"
     inkscape:cx="90.976598"
     inkscape:cy="159.03543"
     inkscape:window-width="2560"
     inkscape:window-height="1023"
     inkscape:window-x="0"
     inkscape:window-y="0"
     inkscape:window-maximized="1"
     inkscape:current-layer="layer3" />
  <defs
     id="defs1">
    <rect
       x="247.57742"
       y="48.091751"
       width="72.253822"
       height="65.712845"
       id="rect10" />
    <linearGradient
       id="swatch6"
       inkscape:swatch="solid">
      <stop
         style="stop-color:#ffffff;stop-opacity:0;"
         offset="0"
         id="stop6" />
    </linearGradient>
  </defs>
  <g
     inkscape:groupmode="layer"
     id="layer2"
     inkscape:label="Layer 1"
     style="display:inline">
    <ellipse
       id="shape0"
       cx="133.20001"
       cy="133.20001"
       fill="#21140c"
       fill-rule="evenodd"
       stroke="none"
       stroke-width="2.45072"
       stroke-linecap="square"
       stroke-linejoin="bevel"
       style="display:inline"
       rx="135.21426"
       ry="135.34592" />
  </g>
  <g
     inkscape:groupmode="layer"
     id="layer3"
     inkscape:label="Layer 2"
     style="display:inline">
    <g
       id="g6"
       style="display:inline;fill:#4f3828;fill-opacity:1"
       transform="matrix(0.78344959,-0.17647904,0.17730114,0.81120948,30.447539,50.770931)">
      <path
         style="font-weight:600;font-size:19.5006px;line-height:0;font-family:'URW Gothic';letter-spacing:0;word-spacing:20.4449px;fill:#8d5943;stroke:#8d5943;stroke-width:0;stroke-linecap:square;stroke-linejoin:bevel"
         d="m 269.49372,139.76903 c 0.14275,-3.13635 -2.29214,-5.82392 -5.38953,-5.9649 -3.11687,-0.14187 -5.76637,2.31428 -5.91001,5.47011 -0.14275,3.13635 2.27089,5.86199 5.30984,6.00032 3.21427,0.1463 5.84163,-2.2523 5.9897,-5.50553 z m -2.3775,-0.0887 c -0.0789,1.73375 -1.60379,3.06984 -3.41547,2.98738 -1.81168,-0.0825 -3.20887,-1.55155 -3.13084,-3.26583 0.0798,-1.75324 1.60379,-3.06985 3.45443,-2.98561 1.77272,0.0807 3.16991,1.54978 3.09188,3.26406 z m -9.46046,9.34347 -0.24002,1.58094 6.6082,3.11374 -7.22874,0.97355 -0.24295,1.60021 10.09552,5.47753 0.41565,-2.73771 -6.2209,-2.9366 6.78289,-0.7651 0.31027,-2.04364 -6.24431,-2.78236 6.80631,-0.91934 0.41857,-2.75699 z m 7.3753,19.73271 c 0.79724,-3.03669 -1.01997,-6.17508 -4.01894,-6.96242 -3.01782,-0.79228 -6.12344,1.05369 -6.92564,4.10924 -0.79724,3.03669 0.99121,6.20785 3.93359,6.98033 3.11213,0.81705 6.18404,-0.97729 7.01099,-4.12715 z m -2.30605,-0.58526 c -0.44071,1.67867 -2.21184,2.66531 -3.96596,2.20479 -1.75411,-0.46052 -2.81218,-2.18992 -2.37643,-3.84973 0.44567,-1.69753 2.21185,-2.6653 4.00369,-2.19488 1.71638,0.45061 2.77446,2.18002 2.3387,3.83982 z m -10.45564,4.81158 -0.82991,2.45722 2.36484,0.7987 0.82991,-2.45721 z m -1.29578,13.37038 c -0.67065,-0.97644 -0.78177,-1.82545 -0.36938,-2.81553 0.6898,-1.65614 2.50327,-2.3584 4.24942,-1.63111 1.76415,0.7348 2.51889,2.42225 1.82159,4.09639 -0.44988,1.0801 -1.21483,1.64871 -2.33535,1.75236 l -1.12468,2.70023 c 1.15054,0.0779 1.80755,-0.0287 2.72252,-0.45037 1.30497,-0.59719 2.35635,-1.70136 2.93369,-3.08747 1.22966,-2.95225 -0.0968,-6.20868 -3.03106,-7.43084 -2.89824,-1.20716 -6.21016,0.20181 -7.43982,3.15406 -0.97472,2.3402 -0.4389,4.65471 1.44838,6.41251 z m -0.72532,17.46094 1.12549,-2.09601 -1.27135,-0.68267 c 1.47237,-0.22756 2.42645,-0.93262 3.16448,-2.30706 1.51295,-2.81759 0.48834,-5.97959 -2.41515,-7.53867 -2.86913,-1.54063 -6.02732,-0.64678 -7.52182,2.13645 -0.71958,1.34007 -0.79619,2.47204 -0.23713,3.94535 l -1.23699,-0.66423 -1.12548,2.09602 z m 0.79345,-5.9707 c -0.8764,1.63214 -2.72354,2.14541 -4.45876,1.21365 -0.68722,-0.36901 -1.32991,-1.06826 -1.58955,-1.7389 -0.31787,-0.76831 -0.21325,-1.66389 0.25724,-2.5401 0.89485,-1.6665 2.64686,-2.20872 4.31336,-1.31386 1.73522,0.93176 2.35412,2.74707 1.47771,4.37921 z m -11.44989,2.52403 -1.38623,2.19203 7.13647,4.51307 -0.78171,1.23611 1.82945,1.15693 0.78171,-1.23611 c 0.83013,0.54804 0.91665,0.99499 0.36424,1.86851 l -0.12508,0.19778 2.07667,1.31327 c 0.19973,-0.24286 0.27269,-0.35823 0.37691,-0.52304 0.60453,-0.95593 0.74829,-1.94944 0.42692,-2.93714 -0.24599,-0.77853 -0.66917,-1.27687 -1.73343,-2.11142 l 0.50029,-0.79111 -1.82944,-1.15693 -0.50029,0.79111 z m -5.63368,15.54491 c 0.26811,0.29379 0.44514,0.44807 0.75943,0.679 2.6872,1.97447 6.06438,1.52788 7.96957,-1.06504 1.8821,-2.56148 1.34443,-6.07818 -1.21705,-7.96027 -2.54577,-1.87056 -6.03842,-1.26682 -7.98979,1.38895 -1.05075,1.43003 -1.35197,2.92681 -0.9688,4.61188 0.1661,0.63022 0.36589,1.11579 0.70197,1.58053 l 1.67426,-2.27862 c -0.236,-0.99616 -0.0907,-1.68794 0.54439,-2.55224 0.91218,-1.24146 2.2419,-1.66795 3.47952,-1.14576 z m 6.8383,-5.45347 c 0.88897,1.16136 0.86261,2.44872 -0.0496,3.69018 -0.94683,1.28859 -2.18321,1.68687 -3.49524,1.1342 z m -27.53035,34.46262 c 2.52841,-1.86125 3.08695,-5.44452 1.24882,-7.94151 -1.84968,-2.5127 -5.42553,-3.02828 -7.96964,-1.15547 -2.5284,1.86125 -3.12992,5.45193 -1.32647,7.90181 1.90749,2.59122 5.42466,3.12578 8.04729,1.19517 z m -1.42609,-1.90438 c -1.39769,1.02889 -3.39544,0.68342 -4.47057,-0.77708 -1.07513,-1.46051 -0.81146,-3.4707 0.57052,-4.48802 1.4134,-1.04045 3.39545,-0.68342 4.4937,0.80849 1.05201,1.4291 0.78834,3.43928 -0.59365,4.45661 z m -13.21905,-1.48773 -1.38248,0.80355 1.71403,7.10112 -5.28825,-5.02364 -1.39935,0.81336 2.05699,11.30008 2.39406,-1.39153 -1.6094,-6.68827 4.84643,4.80678 1.78711,-1.03874 -1.74428,-6.60988 4.98131,4.72838 2.41092,-1.40132 z m -10.79845,18.10705 c 2.87019,-1.27244 4.18805,-4.65105 2.93142,-7.48558 -1.26454,-2.85236 -4.64517,-4.12666 -7.53318,-2.84632 -2.87019,1.27244 -4.2316,4.64903 -2.99868,7.43008 1.30405,2.94149 4.6233,4.22168 7.60044,2.90182 z m -0.98203,-2.16702 c -1.58663,0.7034 -3.46294,-0.0646 -4.19795,-1.72254 -0.73501,-1.65793 -0.0442,-3.56402 1.5246,-4.25951 1.60445,-0.7113 3.46294,0.0646 4.21375,1.75819 0.71921,1.62228 0.0284,3.52836 -1.5404,4.22386 z m -10.28758,-5.17203 -2.4397,0.88007 0.84698,2.34798 2.4397,-0.88007 z m -11.28229,7.29628 c 0.34913,-1.13195 0.94574,-1.74614 1.97794,-2.03751 1.72658,-0.48738 3.40295,0.49832 3.91682,2.31874 0.51917,1.83919 -0.33516,3.47847 -2.08051,3.97115 -1.12603,0.31786 -2.0467,0.0712 -2.82359,-0.74291 l -2.81509,0.79465 c 0.65325,0.95031 1.14469,1.3992 2.04326,1.85474 1.27832,0.65229 2.79666,0.79104 4.24173,0.38312 3.07782,-0.86881 4.80723,-3.93035 3.94371,-6.9894 -0.85292,-3.02152 -4.01359,-4.74321 -7.09141,-3.87439 -2.43974,0.68869 -3.92156,2.54563 -4.12795,5.11646 z m -14.17711,10.2425 2.34313,-0.41198 -0.24989,-1.42124 c 1.08947,1.01623 2.23359,1.32986 3.77007,1.05971 3.14979,-0.55381 5.00074,-3.31462 4.43004,-6.56043 -0.56393,-3.2074 -3.21964,-5.13623 -6.33101,-4.58918 -1.49807,0.2634 -2.43494,0.90332 -3.24687,2.25386 l -0.24313,-1.38284 -2.34313,0.41198 z m 5.18245,-3.06937 c -1.82457,0.32081 -3.37033,-0.81319 -3.7114,-2.753 -0.13507,-0.76824 0.0169,-1.70574 0.38328,-2.32456 0.40712,-0.72497 1.17557,-1.19668 2.15508,-1.3689 1.86298,-0.32755 3.37265,0.71379 3.70021,2.57677 0.34107,1.93981 -0.7026,3.54889 -2.52717,3.86969 z m -9.06591,-7.44234 -2.58039,0.26122 0.85041,8.40082 -1.45511,0.1473 0.21801,2.15356 1.45511,-0.1473 c 0.0808,0.99144 -0.21764,1.33525 -1.24592,1.43934 l -0.23282,0.0236 0.24747,2.44458 c 0.31435,0.007 0.45016,-0.006 0.64417,-0.026 1.12529,-0.11391 1.99591,-0.61365 2.57504,-1.47588 0.46099,-0.67388 0.59215,-1.31436 0.59245,-2.66681 l 0.93127,-0.0943 -0.21801,-2.15356 -0.93127,0.0943 z m -15.71859,5.1372 c -0.0666,0.39213 -0.0792,0.62661 -0.0678,1.01645 0.0975,3.33318 2.52797,5.72018 5.7442,5.62606 3.17723,-0.093 5.61815,-2.68106 5.52517,-5.8583 -0.0924,-3.15774 -2.71776,-5.53904 -6.01195,-5.44264 -1.7738,0.0519 -3.13893,0.73565 -4.23126,2.07472 -0.39451,0.51877 -0.65428,0.97508 -0.81374,1.526 l 2.82638,-0.0827 c 0.63992,-0.79909 1.27461,-1.1103 2.34668,-1.14167 1.53989,-0.0451 2.6944,0.74053 3.04449,2.03738 z m 8.50688,2.03361 c -0.36826,1.41542 -1.39917,2.18693 -2.93906,2.23199 -1.59836,0.0468 -2.67319,-0.68262 -3.04506,-2.05688 z m -44.146076,-0.62867 c 3.018248,0.86444 6.196196,-0.88268 7.049886,-3.86343 0.85907,-2.9995 -0.91753,-6.14533 -3.954526,-7.01513 -3.018249,-0.86443 -6.228321,0.8532 -7.065908,3.77771 -0.88591,3.09324 0.839818,6.2042 3.970548,7.10085 z m 0.636289,-2.29249 c -1.668473,-0.47785 -2.615562,-2.27045 -2.116231,-4.01391 0.499331,-1.74346 2.251793,-2.76289 3.901518,-2.29041 1.68722,0.48323 2.61556,2.27045 2.10549,4.05141 -0.488589,1.70596 -2.241051,2.7254 -3.890777,2.25291 z m -6.897775,-11.37756 -1.480314,-0.60467 -4.578916,5.69186 0.751763,-7.25516 -1.498366,-0.61205 -7.695751,8.52633 2.56347,1.04712 4.315746,-5.357 -0.849645,6.77282 1.913576,0.78165 4.171325,-5.41599 -0.705224,6.83181 2.581523,1.05449 z m -20.934553,2.49509 c 2.759574,1.49727 6.240358,0.47948 7.719029,-2.24581 1.487971,-2.74243 0.434439,-6.19824 -2.342275,-7.70481 -2.759573,-1.49727 -6.265338,-0.51522 -7.71611,2.15865 -1.53447,2.82814 -0.523059,6.2389 2.339356,7.79197 z m 1.117437,-2.1004 c -1.525478,-0.82769 -2.062087,-2.78279 -1.197204,-4.37683 0.864883,-1.59404 2.796465,-2.20997 4.304803,-1.39158 1.542619,0.83698 2.062088,2.78278 1.178605,4.4111 -0.846284,1.55976 -2.777865,2.17569 -4.286204,1.35731 z m -2.181151,-11.30571 -2.186456,-1.39502 -1.342571,2.10426 2.186455,1.39501 z m -12.667404,-4.47682 c 1.109409,-0.41523 1.960147,-0.31821 2.821479,0.32087 1.440773,1.06903 1.684727,2.99835 0.557606,4.51743 -1.13874,1.53474 -2.958444,1.86003 -4.414877,0.77939 -0.939635,-0.69719 -1.306884,-1.57674 -1.13711,-2.68916 l -2.349087,-1.74297 c -0.353158,1.09777 -0.408241,1.76108 -0.219832,2.75075 0.264681,1.4105 1.082548,2.69724 2.288413,3.59197 2.568335,1.90565 6.048603,1.40409 7.94263,-1.14859 1.870788,-2.52135 1.302546,-6.07538 -1.265788,-7.98103 -2.035876,-1.51057 -4.411278,-1.54903 -6.57252,-0.14163 z m -16.769916,-4.94352 1.759987,1.60076 0.970954,-1.06753 c -0.136779,1.48356 0.315512,2.58029 1.469602,3.62997 2.365884,2.15185 5.682048,1.92571 7.899496,-0.5123 2.191205,-2.40917 2.090989,-5.68988 -0.246043,-7.81548 -1.125238,-1.02344 -2.204726,-1.37263 -3.769691,-1.18805 l 0.944711,-1.03868 -1.759987,-1.60076 z m 5.599338,2.21952 c -1.370482,-1.24649 -1.419868,-3.16297 -0.09465,-4.62001 0.52484,-0.57705 1.359224,-1.03071 2.072838,-1.11974 0.822498,-0.1218 1.665878,0.19716 2.401611,0.86633 1.399334,1.27274 1.499898,3.10397 0.227162,4.5033 -1.32522,1.45704 -3.236481,1.61662 -4.606963,0.37012 z m 0.333533,-11.72217 -1.788423,-1.87835 -6.115231,5.82246 -1.008509,-1.05922 -1.567645,1.49259 1.008509,1.05922 c -0.733717,0.67166 -1.188279,0.64672 -1.900959,-0.10179 l -0.161361,-0.16948 -1.77949,1.6943 c 0.186903,0.25286 0.28103,0.35172 0.415498,0.49295 0.779914,0.81913 1.708495,1.20052 2.744726,1.12939 0.814997,-0.049 1.401399,-0.33805 2.470009,-1.16702 l 0.645446,0.6779 1.567646,-1.49259 -0.645446,-0.6779 z m -13.703134,-9.25345 c -0.350299,0.18837 -0.543084,0.32243 -0.843685,0.57093 -2.570137,2.12461 -2.960544,5.50874 -0.910481,7.9887 2.025213,2.4499 5.566865,2.786 8.016762,0.76078 2.434867,-2.01278 2.701027,-5.54722 0.601266,-8.0873 -1.13064,-1.36773 -2.50878,-2.02485 -4.236421,-2.06415 -0.651698,0.007 -1.171334,0.0828 -1.703997,0.29538 l 1.801571,2.17935 c 1.023638,0.014 1.659102,0.32366 2.342456,1.15031 0.981545,1.18738 1.070911,2.58095 0.262692,3.65388 z m 3.621347,7.96169 c -1.343081,0.57894 -2.585152,0.23945 -3.566697,-0.94792 -1.018819,-1.23247 -1.103577,-2.52865 -0.247662,-3.66631 z M 7.28083,186.00798 c 1.196375,2.90271 4.53909,4.30913 7.405747,3.12762 2.884685,-1.18894 4.247614,-4.53483 3.043808,-7.45557 -1.196375,-2.90272 -4.535923,-4.35262 -7.348492,-3.1934 -2.9748317,1.22609 -4.3420234,4.51046 -3.101063,7.52135 z m 2.192142,-0.9246 c -0.6613502,-1.60461 0.1558214,-3.46003 1.832545,-4.15111 1.676724,-0.69107 3.563945,0.0497 4.217864,1.6363 0.668781,1.62263 -0.155821,3.46003 -1.868603,4.16597 -1.640666,0.67621 -3.527887,-0.0646 -4.181806,-1.65116 z m 4.625928,-12.46761 -0.450113,-1.53439 -7.3049827,-0.0316 6.1412757,-3.93539 -0.455603,-1.5531 -11.46433431,-0.70141 0.77946441,2.65711 6.8790939,0.0346 -5.8251701,3.55815 0.5818538,1.98348 6.8351803,-0.11512 -5.7812565,3.70784 0.7849536,2.67583 z M -0.91928615,157.84283 c 0.55965425,3.08931 3.53216585,5.16679 6.58310225,4.61409 3.0701247,-0.55618 5.1057539,-3.54092 4.5426239,-6.64943 -0.5596544,-3.08931 -3.5199299,-5.20864 -6.5133015,-4.66637 -3.16606615,0.57356 -5.1929356,3.49727 -4.61242465,6.70171 z m 2.33749395,-0.44328 c -0.3093741,-1.70775 0.8794667,-3.35002 2.6639767,-3.6733 1.78451,-0.32327 3.4739111,0.79757 3.7798091,2.48614 0.3128502,1.72695 -0.8794667,3.35002 -2.7023532,3.68025 -1.7461335,0.31633 -3.4355346,-0.80452 -3.7414326,-2.49309 z m 7.44554,-8.77686 -0.2857459,-2.57779 -2.4808815,0.27501 0.285746,2.57779 z M 4.3882096,135.95745 c 1.0205409,0.60142 1.4801302,1.32388 1.524927,2.39548 0.074933,1.79249 -1.2716856,3.1955 -3.1615932,3.2745 -1.90939123,0.0798 -3.30670019,-1.13041 -3.3824475,-2.94238 -0.0488692,-1.16902 0.4040119,-2.00769 1.37568352,-2.57529 l -0.12217308,-2.92253 c -1.07560545,0.41579 -1.62596864,0.79012 -2.27694354,1.559 -0.9301969,1.09284 -1.4162797,2.53795 -1.3535641,4.03818 0.1335759,3.19531 2.71224539,5.58577 5.8880696,5.45301 3.136857,-0.13113 5.542727,-2.80804 5.4091511,-6.00334 -0.1058834,-2.53287 -1.569852,-4.40392 -4.0232829,-5.19916 z m -6.7320004,-16.12377 -0.1322913,2.37539 1.4408117,0.0802 c -1.2375765,0.82949 -1.8034472,1.87217 -1.8901956,3.42981 -0.1778342,3.19315 2.08907469,5.62404 5.3795772,5.80729 3.2515616,0.18109 5.7343531,-1.96574 5.9100186,-5.11995 0.08458,-1.5187 -0.3252398,-2.57665 -1.4554651,-3.67473 l 1.4018708,0.0781 0.1322914,-2.37539 z m 1.80889814,5.74514 c 0.10301372,-1.84969 1.55915036,-3.09669 3.52566366,-2.98717 0.7788172,0.0434 1.6571072,0.40478 2.1762547,0.90244 0.6132466,0.56148 0.8976166,1.41714 0.8423145,2.41014 -0.1051824,1.88863 -1.4628825,3.12158 -3.3515141,3.0164 -1.96651338,-0.10952 -3.29573249,-1.49212 -3.19271876,-3.34181 z m 9.30276046,-7.13443 0.3261323,-2.57299 -8.37673761,-1.06177 0.18390918,-1.45093 -2.14738537,-0.27219 -0.1839092,1.45094 c -0.9841844,-0.14441 -1.2520313,-0.51252 -1.1220689,-1.53785 l 0.029426,-0.23215 -2.4375726,-0.30897 c -0.077926,0.30463 -0.09509,0.44005 -0.1196116,0.63351 -0.1422231,1.12206 0.1487892,2.08281 0.8585954,2.8411 0.5528588,0.60081 1.1474036,0.87273 2.4650999,1.17735 l -0.1177018,0.9286 2.14738535,0.27218 0.11770187,-0.92859 z M 7.2713217,101.97894 c -0.3674968,-0.15211 -0.5932865,-0.2166 -0.9759022,-0.2922 -3.2713648,-0.64633 -6.13919185,1.19225 -6.76284795,4.34883 -0.61609665,3.11832 1.36418932,6.07377 4.48250775,6.68987 3.0991876,0.61232 6.0048117,-1.41757 6.6435867,-4.65067 0.343956,-1.7409 -0.019,-3.22392 -1.0815369,-4.58675 -0.4180261,-0.50002 -0.805118,-0.85478 -1.3067624,-1.13279 l -0.5480614,2.77396 c 0.6367205,0.80164 0.7989511,1.48965 0.5910658,2.54184 -0.298599,1.51133 -1.3213167,2.46217 -2.6635552,2.51502 z m -3.8749269,7.84141 c -1.2980423,-0.67389 -1.8209066,-1.85058 -1.5223077,-3.36192 0.3099382,-1.56872 1.2601446,-2.45437 2.682686,-2.51124 z M 13.586411,66.938853 c -1.486301,2.765498 -0.454695,6.242213 2.276448,7.71005 2.748321,1.47707 6.199914,0.409824 7.695446,-2.372851 1.486301,-2.765497 0.490336,-6.267334 -2.189276,-7.707477 -2.834206,-1.523228 -6.240927,-0.498281 -7.782618,2.370278 z m 2.104826,1.109089 c 0.82162,-1.528754 2.774577,-2.073122 4.372038,-1.214575 1.597461,0.858546 2.221056,2.787667 1.408667,4.299243 -0.830851,1.54593 -2.774576,2.073121 -4.406391,1.196112 -1.563108,-0.840084 -2.186702,-2.769204 -1.374314,-4.28078 z m 12.575549,-4.326487 0.902133,-1.32027 -4.603035,-5.672375 6.935379,2.258992 0.913135,-1.336371 -6.719553,-9.315071 -1.56223,2.286322 4.330927,5.344735 -6.443239,-2.25337 -1.166172,1.706692 4.418941,5.215928 -6.531252,-2.124563 -1.573232,2.302423 z M 30.199797,42.73673 c -2.039024,2.387352 -1.768266,6.003766 0.58943,8.01746 2.372523,2.026359 5.971945,1.715444 8.023634,-0.686737 2.039023,-2.387352 1.808423,-6.020757 -0.504787,-7.996457 -2.446665,-2.089683 -5.993265,-1.810587 -8.108277,0.665734 z m 1.821714,1.530271 c 1.127163,-1.319717 3.151145,-1.437496 4.530174,-0.259675 1.379029,1.177821 1.579288,3.195312 0.464791,4.5002 -1.139827,1.334545 -3.151144,1.437497 -4.55983,0.234346 -1.349373,-1.152492 -1.549632,-3.169983 -0.435135,-4.474871 z m 11.509983,0.218585 1.818197,-1.849545 -1.780013,-1.749844 -1.818197,1.849545 z m 7.00374,-11.464743 c 0.176546,1.171341 -0.09451,1.983558 -0.898082,2.693909 -1.344158,1.188223 -3.28219,1.027441 -4.534991,-0.389769 -1.265716,-1.43182 -1.207206,-3.279444 0.151562,-4.480582 0.876624,-0.774929 1.813148,-0.952118 2.866318,-0.555705 l 2.191562,-1.93732 c -1.000864,-0.572789 -1.6384,-0.764013 -2.645637,-0.784589 -1.434736,-0.03308 -2.862929,0.500652 -3.98793,1.495143 -2.396108,2.118137 -2.625976,5.62684 -0.520754,8.008336 2.07939,2.352276 5.67406,2.532177 8.070167,0.414041 1.899354,-1.679011 2.428786,-3.994982 1.499347,-6.400785 z m 8.308634,-15.383777 -1.930545,1.390319 0.843308,1.170986 c -1.42307,-0.441054 -2.589695,-0.225699 -3.855626,0.685985 -2.595159,1.868953 -3.060694,5.160056 -1.134761,7.834336 1.903141,2.642632 5.133487,3.224015 7.696998,1.377854 1.234283,-0.888892 1.799458,-1.872662 1.942978,-3.441925 l 0.820516,1.139338 1.930545,-1.390318 z m -3.331007,5.018291 c 1.503293,-1.082625 3.388455,-0.734043 4.539456,0.864196 0.455842,0.632965 0.726874,1.543213 0.666184,2.259794 -0.05118,0.82989 -0.537887,1.58893 -1.344918,2.170129 -1.534942,1.105417 -3.347299,0.824559 -4.452716,-0.710382 -1.151001,-1.598239 -0.911299,-3.501112 0.591994,-4.583737 z m 11.399501,2.754767 2.208656,-1.359593 -4.426343,-7.190589 1.245483,-0.766688 -1.134698,-1.843315 -1.245483,0.766688 c -0.504741,-0.857151 -0.385992,-1.296636 0.49415,-1.838429 l 0.199277,-0.12267 -1.288035,-2.092412 c -0.286148,0.130347 -0.402393,0.201905 -0.568458,0.30413 -0.963173,0.592905 -1.529004,1.422098 -1.6745,2.450527 -0.121254,0.807414 0.0398,1.441045 0.628909,2.658447 l -0.797109,0.49068 1.134698,1.843315 0.797109,-0.49068 z M 78.815771,13.931869 c -0.111221,-0.381868 -0.202159,-0.598363 -0.382539,-0.944156 -1.542244,-2.956528 -4.77068,-4.0437268 -7.623471,-2.555597 -2.818211,1.470093 -3.885127,4.863903 -2.415034,7.682114 1.461073,2.800922 4.862406,3.797931 7.784355,2.273725 1.573357,-0.820727 2.503295,-2.031632 2.901823,-3.713138 0.128589,-0.638929 0.163208,-1.162856 0.06628,-1.728137 l -2.506997,1.307751 c -0.227089,0.998231 -0.662363,1.555201 -1.613293,2.051245 -1.365881,0.712499 -2.747477,0.509434 -3.628382,-0.504668 z m -8.541633,1.882327 c -0.286284,-1.434252 0.304636,-2.578283 1.670517,-3.290782 1.41775,-0.739555 2.703131,-0.552284 3.637402,0.521958 z M 110.25009,-2.9107776 c -3.09238,0.5424296 -5.1864,3.50331772 -4.6507,6.5572868 0.53906,3.0731765 3.51241,5.1254075 6.624,4.5796088 3.09239,-0.5424296 5.22819,-3.4908486 4.7026,-6.4871956 -0.5559,-3.1692133 -3.46827,-5.2123443 -6.6759,-4.6497 z m 0.43024,2.33992795 c 1.70946,-0.29985238 3.34507,0.8981219 3.6584,2.68440575 0.31333,1.7862838 -0.81691,3.4694125 -2.50716,3.7658957 -1.72866,0.3032215 -3.34507,-0.8981219 -3.66514,-2.7228204 -0.30659,-1.7478691 0.82366,-3.4309978 2.5139,-3.72748105 z m 11.17874,7.21644295 1.59573,-0.10289 1.63179,-7.12046746 2.49377,6.85445896 1.6152,-0.1041449 3.1969,-11.031897 -2.76334,0.1781755 -1.54138,6.7042749 -2.19498,-6.4633615 -2.06278,0.1330043 -1.38569,6.6942368 -2.35067,-6.4533235 -2.78281,0.1794303 z m 17.74874,-11.3861006 c -3.13631,-0.1434558 -5.82443,2.2908389 -5.9661,5.38819605 -0.14257,3.11683735 2.31299,5.76688365 5.46879,5.91123035 3.13632,0.1434558 5.8625,-2.2695766 6.0015,-5.3084931 0.14702,-3.2142385 -2.25099,-5.8421314 -5.50419,-5.9909333 z m -0.0892,2.3774795 c 1.73374,0.079302 3.06949,1.60447323 2.98662,3.416135 -0.0829,1.8116617 -1.55227,3.2085251 -3.26653,3.1301145 -1.75322,-0.080193 -3.06949,-1.6044733 -2.98484,-3.45509547 0.0811,-1.77270123 1.55049,-3.16956463 3.26475,-3.09115403 z m 6.89455,9.2236609 2.57579,0.303211 0.29181,-2.4789606 -2.57579,-0.303211 z m 13.35432,-1.4824003 c -0.81842,0.8563807 -1.62669,1.1389899 -2.68024,0.938081 -1.7623,-0.3360659 -2.82101,-1.9673051 -2.46668,-3.8253801 0.35798,-1.87723039 1.85513,-2.96151598 3.63659,-2.62179719 1.14932,0.21917342 1.86253,0.85148012 2.19342,1.92703419 l 2.87332,0.5479335 c -0.15939,-1.142108 -0.39826,-1.76336696 -0.99831,-2.57261622 -0.85175,-1.15502668 -2.14781,-1.95803928 -3.62278,-2.23931178 -3.14149,-0.599074 -6.0573,1.3660934 -6.65272,4.4884256 -0.58812,3.0840214 1.46918,6.0372512 4.61066,6.6363252 2.49021,0.4748757 4.64595,-0.5235225 5.98006,-2.7307606 z m 17.26067,-2.8222764 -2.28008,-0.6791366 -0.41194,1.3829991 c -0.52013,-1.3961077 -1.4033,-2.1881945 -2.89844,-2.63352994 -3.06502,-0.91293775 -5.95505,0.72896124 -6.89582,3.88743224 -0.92964,3.1210926 0.58342,6.0337858 3.61107,6.9355908 1.45776,0.434202 2.58188,0.280696 3.91198,-0.564309 l -0.4008,1.345621 2.28008,0.679137 z m -6.00795,0.4283459 c 1.77547,0.5288359 2.6511,2.2343027 2.08887,4.1219096 -0.22267,0.7475671 -0.77776,1.5182022 -1.38217,1.9078985 -0.68831,0.4664421 -1.58658,0.5447903 -2.53973,0.2608889 -1.81285,-0.5399692 -2.69762,-2.1464234 -2.15765,-3.9592736 0.56223,-1.887607 2.21521,-2.8602593 3.99068,-2.3314234 z m 4.78206,10.7101517 2.42509,0.919541 2.9937,-7.895243 1.36754,0.5185386 0.76743,-2.0239539 -1.36753,-0.5185386 c 0.37084,-0.9230109 0.79143,-1.0972166 1.75783,-0.7307826 l 0.2188,0.082966 0.87115,-2.2974612 C 184.55833,1.6024313 184.4307,1.5540344 184.24836,1.4848959 183.1908,1.0838927 182.18862,1.141852 181.2852,1.6543678 c -0.71356,0.3968083 -1.11714,0.911152 -1.72183,2.1208885 l -0.87522,-0.3318647 -0.76744,2.0239538 0.87522,0.3318648 z m 16.35758,2.425035 c 0.23466,-0.321137 0.35068,-0.52529 0.51455,-0.879202 1.40115,-3.02595 0.2924,-6.2470499 -2.62738,-7.5990304 -2.88438,-1.3355929 -6.22412,-0.1098618 -7.55971,2.7745234 -1.3274,2.866689 -0.0417,6.169727 2.94886,7.554483 1.6103,0.745638 3.13709,0.743444 4.71242,0.03308 0.58465,-0.288016 1.02084,-0.580301 1.40953,-1.002034 l -2.56586,-1.188104 c -0.92941,0.429235 -1.63627,0.424273 -2.60953,-0.02639 -1.39795,-0.647311 -2.08016,-1.865769 -1.8143,-3.182476 z m -6.70353,-5.618311 c 0.96157,-1.1020139 2.2285,-1.3319809 3.62645,-0.684669 1.45104,0.671893 2.08704,1.804489 1.80611,3.200172 z m 39.22648,20.204975 c -2.32175,-2.113418 -5.94491,-1.957031 -8.03208,0.33588 -2.10029,2.307331 -1.90323,5.914778 0.43295,8.041322 2.32175,2.113418 5.96063,1.997705 8.00841,-0.251943 2.16592,-2.379435 1.999,-5.933081 -0.40928,-8.125259 z m -1.58705,1.772466 c 1.28345,1.168287 1.33724,3.19498 0.11645,4.536116 -1.2208,1.341136 -3.24361,1.477567 -4.51264,0.322407 -1.29787,-1.181414 -1.33724,-3.194979 -0.0902,-4.564957 1.19454,-1.312295 3.21735,-1.448726 4.48638,-0.293566 z m 1.13972,13.252852 1.06057,1.196728 6.62324,-3.081628 -3.88129,6.175607 1.0735,1.211322 10.67196,-4.246443 -1.83659,-2.072382 -6.23916,2.897585 3.75588,-5.699679 -1.37097,-1.54699 -6.1357,3.014339 3.65242,-5.816433 -1.84953,-2.086976 z m 19.87967,6.991721 c -1.81813,-2.559582 -5.39142,-3.178773 -7.9192,-1.383226 -2.54369,1.806839 -3.11979,5.373436 -1.29037,7.948917 1.81814,2.559582 5.39811,3.221861 7.8782,1.460193 2.62318,-1.863303 3.21726,-5.370913 1.33137,-8.025884 z m -1.92827,1.393613 c 1.00506,1.414925 0.62578,3.406539 -0.85274,4.456764 -1.47851,1.050225 -3.48394,0.752523 -4.4777,-0.646503 -1.01635,-1.430823 -0.62578,-3.406539 0.88453,-4.47935 1.44672,-1.02764 3.45215,-0.729937 4.44591,0.669089 z m -3.01778,11.10881 1.35128,2.213755 2.13053,-1.300475 -1.35128,-2.213755 z m 9.41817,9.579061 c -1.17917,-0.11298 -1.90133,-0.573033 -2.39545,-1.524967 -0.82652,-1.592325 -0.20024,-3.43341 1.47862,-4.30485 1.69618,-0.880424 3.47438,-0.375302 4.30988,1.23433 0.53903,1.038473 0.48366,1.990002 -0.15647,2.915494 l 1.34758,2.596182 c 0.79855,-0.831949 1.13877,-1.404024 1.40316,-2.376161 0.38026,-1.383821 0.20905,-2.898846 -0.48271,-4.231553 -1.47336,-2.838492 -4.8214,-3.912943 -7.64259,-2.448564 -2.78657,1.446411 -3.83341,4.889976 -2.36004,7.728468 1.16791,2.250024 3.28617,3.325646 5.84561,3.007803 z m 12.91838,11.769259 -0.88401,-2.208739 -1.33972,0.536198 c 0.77105,-1.274805 0.84324,-2.458942 0.26357,-3.907296 -1.18833,-2.969125 -4.27019,-4.214198 -7.32984,-2.989637 -3.02344,1.210069 -4.3663,4.205042 -3.19246,7.137959 0.56518,1.412144 1.38372,2.197777 2.87212,2.71531 l -1.30351,0.521706 0.884,2.208739 z m -4.06746,-4.442372 c 0.68837,1.71992 -0.10433,3.465481 -1.93287,4.197319 -0.72418,0.289837 -1.67292,0.333478 -2.35374,0.101858 -0.79309,-0.249704 -1.41244,-0.905013 -1.78198,-1.828339 -0.70285,-1.756129 0.007,-3.447356 1.76269,-4.15021 1.82855,-0.731838 3.61754,-0.04055 4.3059,1.679372 z m -5.41701,10.3979 0.79108,2.46999 8.0414,-2.575461 0.4461,1.392852 2.06142,-0.660223 -0.4461,-1.392851 c 0.95309,-0.284774 1.35134,-0.06423 1.66658,0.920053 l 0.0714,0.222857 2.33999,-0.749442 c -0.058,-0.309037 -0.0997,-0.439037 -0.15914,-0.62475 -0.34498,-1.077139 -1.01453,-1.825086 -1.97819,-2.212646 -0.75488,-0.311093 -1.40864,-0.306472 -2.7317,-0.02606 l -0.2855,-0.891425 -2.06142,0.660222 0.2855,0.891425 z m 8.30944,14.293737 c 0.39736,-0.0173 0.62927,-0.0542 1.00802,-0.14719 3.23835,-0.79539 5.06168,-3.67294 4.29419,-6.797665 -0.75818,-3.086849 -3.80118,-4.929781 -6.88803,-4.171596 -3.06791,0.753533 -4.84473,3.820457 -4.05864,7.020931 0.42328,1.72333 1.37848,2.91442 2.91709,3.70116 0.59006,0.27675 1.09075,0.4349 1.66287,0.4751 l -0.67446,-2.74597 c -0.91566,-0.45783 -1.35322,-1.013 -1.60905,-2.05458 -0.36746,-1.49608 0.15814,-2.789826 1.35254,-3.404476 z m 0.20164,-8.744256 c 1.4612,0.06279 2.43201,0.908672 2.79947,2.404756 0.38142,1.55289 -0.10597,2.75693 -1.37148,3.40913 z"
         id="shape011_167d4828"
         transform="matrix(1.055459,0.09718211,-0.10334875,1.0214111,-23.704461,-24.922287)"
         aria-label="owo.cafe owo.cafe owo.cafe owo.cafe owo.cafe owo.cafe owo.cafe" />
      <text
         xml:space="preserve"
         transform="matrix(0.89504953,0.19471848,-0.19562555,0.86442061,-21.165775,-64.069055)"
         id="text10"
         style="font-size:21.3333px;line-height:0;letter-spacing:0px;word-spacing:6.85px;white-space:pre;shape-inside:url(#rect10);display:inline;fill:#8d5943;fill-opacity:1;stroke:#8d5943;stroke-width:6.66667;stroke-linecap:round;stroke-dasharray:none;stroke-opacity:1;paint-order:normal"
         inkscape:label="text10" />
    </g>
    <g
       id="g5"
       style="display:inline"
       inkscape:label="g5"
       transform="matrix(0.88849392,0,0,0.83932752,12.492065,34.640187)">
      <path
         id="shape01"
         transform="matrix(1.0911925,0,0,1.0911925,176.70273,80.525153)"
         fill="#ffffff"
         fill-rule="evenodd"
         stroke="#392526"
         stroke-width="1.2"
         stroke-linecap="square"
         stroke-linejoin="bevel"
         d="m 24.8037,0 c -0.9768,6.17752 -0.4395,9.1402 1.6116,8.88806 3.0768,-0.37822 20.5119,-8.131629 30.0352,2.83664 6.3489,7.3121 8.4489,17.9652 6.3001,31.9592 C 60.1134,57.0475 52.9831,67.0071 41.3597,73.5629 29.7363,80.1186 18.1618,84.279 6.63612,86.044 c -2.53956,0 -4.63959,1.5128 -6.300072,4.5386 -1.660478,3.0257 2.832602,-8.1317 13.479252,-33.4721 -1.8559,3.2779 -1.9047,5.6102 -0.1466,6.997 1.7582,1.3868 6.2513,1.702 13.4792,0.9455 C 39.8772,61.7736 47.3674,54.4983 50.8523,43.2795 54.3372,32.0605 53.2302,25.9092 47.7918,22.3147 41.4983,19.7263 36.1408,18.7733 31.1714,23.0146 26.202,27.2559 21.4641,33.4974 18.7967,39.3344 19.2639,39.4512 20.799,26.2229 24.8037,0 Z"
         sodipodi:nodetypes="czzczczczczczcc" />
      <path
         id="shape011"
         transform="matrix(1.0911926,0,0,1.0911926,182.16944,129.90623)"
         fill="#ded6d3"
         fill-rule="evenodd"
         stroke-opacity="0"
         stroke="#000000"
         stroke-width="0"
         stroke-linecap="square"
         stroke-linejoin="bevel"
         d="M 3.17974,34.5848 C 1.99161,36.0127 1.30061,38.6235 0,40.6139 8.64746,39.3627 20.7225,36.0642 26.8832,32.3549 33.3945,29.8052 38.6952,27.0643 45.0532,21.4116 51.4113,15.7589 55.4915,8.2066 56.6571,0 51.5562,18.3012 31.4495,31.4597 3.17974,34.5848 Z"
         sodipodi:nodetypes="ccczcc" />
      <path
         id="shape1"
         transform="matrix(1.0911926,0,0,1.0911926,209.952,97.672637)"
         fill="#ded6d3"
         fill-rule="evenodd"
         stroke-opacity="0"
         stroke="#000000"
         stroke-width="0"
         stroke-linecap="square"
         stroke-linejoin="bevel"
         d="M 1.16801,0.992915 C -0.215899,2.39372 0.89855,7.63276 0,8.81856 2.24,5.80787 2.8607,3.96147 8.52645,4.02973 11.7683,3.90246 16.3292,5.74433 17.1697,6.36575 19.3349,8.20159 13.6908,0.58889 8.87685,0.292111 5.67325,-0.694538 1.43083,1.14735 1.16801,0.992915 Z"
         sodipodi:nodetypes="cccccc" />
      <path
         id="shape2"
         transform="matrix(1.0911926,0,0,1.0911926,43.029055,37.014555)"
         fill="#ffffff"
         fill-rule="evenodd"
         stroke="#2b0000"
         stroke-width="0.96"
         stroke-linecap="square"
         stroke-linejoin="bevel"
         d="m 155.028,35.3319 c 0.381,58.339 -26.111,103.6791 -38.913,108.2911 -9.902,3.567 -68.9112,2.4 -73.8362,0 C 23.6248,134.533 -1.61155,70.0818 0.0808431,31.236 0.980207,10.5928 41.9787,-1.57006 81.0137,0.16354 118.597,-1.14321 154.861,9.83751 155.028,35.3319 Z"
         sodipodi:nodetypes="cssscs" />
      <path
         id="shape3"
         transform="matrix(1.0911926,0,0,1.0911926,46.883838,43.140108)"
         fill="#ded6d3"
         fill-rule="evenodd"
         stroke-opacity="0"
         stroke="#000000"
         stroke-width="0"
         stroke-linecap="square"
         stroke-linejoin="bevel"
         d="M 5.19147,40.5728 C 12.8049,25.6007 41.0809,13.1766 73.0527,12.891 c 31.9713,-0.2856 59.9923,6.66 71.0823,27.4487 3.519,-2.6066 7.507,-13.7001 -0.03,-22.35 C 130.786,6.0725 107.17,0.0836878 73.9297,8.87255e-4 40.6886,-0.0819133 18.894,5.62849 5.65867,18.0303 -1.01765,26.7976 -2.53136,34.5757 5.19147,40.5728 Z"
         sodipodi:nodetypes="czcczcc" />
      <path
         id="shape4"
         transform="matrix(1.0911926,0,0,1.0911926,142.57561,103.34271)"
         fill="#ded6d3"
         fill-rule="evenodd"
         stroke-opacity="0"
         stroke="#000000"
         stroke-width="0"
         stroke-linecap="square"
         stroke-linejoin="bevel"
         d="M 61.8054,0 C 62.3215,0.143041 60.6015,11.3578 58.4752,19.5072 55.1361,32.5936 49.4379,51.0386 41.4223,63.7747 36.7968,72.2244 28.8851,81.372 25.771,82.1124 18.9109,84.4459 3.8648,84.7283 0.775678,84.682 -3.43262,84.8383 10.2885,84.4232 22.5006,75.6884 41.7017,63.7948 52.9631,31.9955 61.8054,0 Z"
         sodipodi:nodetypes="ccccccc" />
      <path
         id="shape0111"
         transform="matrix(1.0911926,0,0,1.0911926,52.399336,57.07928)"
         fill="#8d5943"
         fill-rule="evenodd"
         stroke-opacity="0"
         stroke="#000000"
         stroke-width="0"
         stroke-linecap="square"
         stroke-linejoin="bevel"
         d="M 67.9981,0 C 107.987,0.658804 129.863,9.34631 138.621,26.8671 142.919,31.3294 103.867,42.5192 65.6621,41.8146 30.8519,41.8284 -4.41755,30.6766 0.452699,26.6121 9.0671,12.6445 32.916,2.18441 67.9981,0 Z"
         sodipodi:nodetypes="ccccc" />
      <path
         id="shape02"
         transform="matrix(1.0911926,0,0,1.0911926,52.803112,65.746019)"
         fill="#2b0000"
         fill-rule="evenodd"
         stroke-opacity="0"
         stroke="#000000"
         stroke-width="0"
         stroke-linecap="square"
         stroke-linejoin="bevel"
         d="M 26.9814,0 C -11.9892,30.5269 102.236,36.3218 43.9356,32.3838 18.4705,28.5685 -0.107888,22.1159 4.71549e-4,18.8049 1.5599,14.3037 10.8364,6.8366 26.9814,0 Z"
         sodipodi:nodetypes="cccc" />
      <circle
         id="shape5"
         transform="matrix(1.0911926,0,0,1.0911926,84.481322,129.58406)"
         cx="9.6000004"
         cy="9.6000004"
         fill="#000000"
         fill-rule="evenodd"
         stroke="#000000"
         stroke-width="1.3296"
         stroke-linecap="square"
         stroke-linejoin="bevel"
         r="9.6000004" />
      <circle
         id="shape03"
         transform="matrix(1.0911925,0,0,1.0911925,151.22612,130.07164)"
         cx="9.6000004"
         cy="9.6000004"
         fill="#000000"
         stroke="#000000"
         stroke-width="1.3296"
         stroke-linecap="square"
         stroke-linejoin="bevel"
         r="9.6000004" />
      <ellipse
         id="shape6"
         transform="matrix(1.0911926,0,0,1.0911926,162.26153,132.72669)"
         rx="3"
         ry="2.8800001"
         cx="3"
         cy="2.8800001"
         fill="#ffffff"
         fill-rule="evenodd"
         stroke="#ffffff"
         stroke-width="1.3296"
         stroke-linecap="square"
         stroke-linejoin="bevel" />
      <ellipse
         id="shape04"
         transform="matrix(1.0911926,0,0,1.0911926,96.293022,132.69683)"
         rx="3"
         ry="2.8800001"
         cx="3"
         cy="2.8800001"
         fill="#ffffff"
         fill-rule="evenodd"
         stroke="#ffffff"
         stroke-width="1.3296"
         stroke-linecap="square"
         stroke-linejoin="bevel" />
      <path
         id="shape7"
         transform="matrix(1.0911926,0,0,1.0911926,114.11474,151.38956)"
         fill="#ffffff"
         fill-rule="evenodd"
         stroke="#000000"
         stroke-width="2.4"
         stroke-linecap="square"
         stroke-linejoin="bevel"
         d="M 1.31113,0.169706 C -0.959641,4.95645 -0.280819,7.81316 3.3476,8.73984 6.92228,10.4744 12.4938,6.84539 12.5966,4.24264 13.549,7.86583 16.0946,9.44975 20.2333,8.9944 25.2119,9.26977 26.4847,6.27163 24.0517,0"
         sodipodi:nodetypes="ccccc" />
      <ellipse
         id="shape05"
         transform="matrix(1.0911926,0,0,1.0911926,162.26153,132.72669)"
         rx="3"
         ry="2.8800001"
         cx="3"
         cy="2.8800001"
         fill="#ffffff"
         fill-rule="evenodd"
         stroke="#ffffff"
         stroke-width="1.3296"
         stroke-linecap="square"
         stroke-linejoin="bevel" />
    </g>
  </g>
  <g
     inkscape:groupmode="layer"
     id="layer5"
     inkscape:label="Layer 3">
    <ellipse
       id="circle6"
       cx="133.09293"
       cy="133.31152"
       fill="#21140c"
       fill-rule="evenodd"
       stroke="none"
       stroke-width="2.39136"
       stroke-linecap="square"
       stroke-linejoin="bevel"
       style="display:inline;fill:none;stroke:#4f3828;stroke-width:4.77816;stroke-dasharray:none;stroke-opacity:1"
       transform="matrix(0.99999913,-0.00132169,0.00128779,0.99999917,0,0)"
       rx="125.3297"
       ry="126.96841" />
  </g>
</svg>
