<?xml version="1.0" encoding="UTF-8" standalone="no"?>
<!-- Created with Inkscape (http://www.inkscape.org/) -->

<svg
   width="66.551239mm"
   height="49.863861mm"
   viewBox="0 0 66.551239 49.863862"
   version="1.1"
   id="svg1"
   inkscape:version="1.3 (0e150ed6c4, 2023-07-21)"
   sodipodi:docname="owocafe_magnet.svg"
   xmlns:inkscape="http://www.inkscape.org/namespaces/inkscape"
   xmlns:sodipodi="http://sodipodi.sourceforge.net/DTD/sodipodi-0.dtd"
   xmlns="http://www.w3.org/2000/svg"
   xmlns:svg="http://www.w3.org/2000/svg">
  <sodipodi:namedview
     id="namedview1"
     pagecolor="#505050"
     bordercolor="#eeeeee"
     borderopacity="1"
     inkscape:showpageshadow="0"
     inkscape:pageopacity="0"
     inkscape:pagecheckerboard="0"
     inkscape:deskcolor="#505050"
     inkscape:document-units="mm"
     inkscape:zoom="4.1726443"
     inkscape:cx="91.309006"
     inkscape:cy="94.18488"
     inkscape:window-width="2560"
     inkscape:window-height="1023"
     inkscape:window-x="0"
     inkscape:window-y="0"
     inkscape:window-maximized="1"
     inkscape:current-layer="g5" />
  <defs
     id="defs1" />
  <g
     inkscape:label="Layer 1"
     inkscape:groupmode="layer"
     id="layer1"
     transform="translate(-65.6376,-6.798438)">
    <g
       id="g5"
       style="display:inline"
       inkscape:label="g5"
       transform="matrix(0.3134409,0,0,0.29609609,53.738147,-3.0059375)">
      <path
         style="display:inline;fill:#21140c;fill-opacity:1;stroke:none;stroke-width:0.277424;stroke-linecap:round;stroke-linejoin:round;stroke-dasharray:none;stroke-opacity:1;paint-order:markers fill stroke"
         d="m 202.00647,150.61964 c 1.353,-3.32381 4.42344,-12.06952 5.65024,-16.0939 2.68418,-8.80527 4.8182,-17.8762 6.35319,-27.00519 0.44391,-2.64005 0.83534,-4.82339 0.86985,-4.85188 0.26527,-0.21896 2.89132,-0.55341 4.34529,-0.55341 3.8895,0 10.02389,1.7106 12.33545,3.43981 4.52223,3.38292 5.59912,9.08656 3.3313,17.64382 -3.22975,12.18692 -9.36271,19.91436 -19.71324,24.83844 -4.04682,1.9252 -9.55782,3.68137 -12.44165,3.96475 l -1.34706,0.13236 z"
         id="path3" />
      <path
         id="path2"
         fill="#ffffff"
         fill-rule="evenodd"
         stroke="#392526"
         stroke-width="1.45703"
         stroke-linecap="square"
         stroke-linejoin="bevel"
         d="m 203.17405,76.024834 c -1.18729,7.492749 -0.53421,11.086201 1.95888,10.780378 3.7398,-0.458746 24.9319,-9.862898 36.50734,3.440577 7.71699,8.868883 10.26951,21.790091 7.65767,38.763491 -3.20547,16.20878 -11.87225,28.28884 -26.00032,36.2404 -14.12807,7.95144 -28.19671,12.99763 -42.206,15.1384 -3.0868,0 -5.63935,1.83489 -7.65765,5.5049 -2.01828,3.66988 3.44299,-9.86298 16.38384,-40.5985 -2.25583,3.97578 -2.31513,6.80465 -0.17819,8.4867 2.13706,1.68206 7.59836,2.06436 16.38377,1.1468 15.47228,-3.9776 24.57651,-12.80185 28.81235,-26.4092 4.23584,-13.60759 2.8903,-21.06853 -3.71999,-25.42833 -7.64966,-3.139473 -14.16162,-4.295375 -20.20186,0.84891 -6.04023,5.1443 -11.79908,12.71466 -15.04126,19.79439 0.56787,0.14167 2.43377,-15.90301 7.30142,-47.708916 z"
         sodipodi:nodetypes="czzczczczczczcc"
         style="display:inline;fill:#21140c;fill-opacity:1;stroke:none;stroke-opacity:1" />
      <path
         id="path1"
         fill="#ffffff"
         fill-rule="evenodd"
         stroke="#2b0000"
         stroke-width="0.96"
         stroke-linecap="square"
         stroke-linejoin="bevel"
         d="m 216.4916,74.183013 c 0.4374,66.905517 -29.97623,118.903387 -44.67331,124.192607 -11.36779,4.09078 -79.112141,2.75242 -84.76619,0 C 65.636742,187.95084 36.664648,114.0356 38.607566,69.485669 39.640063,45.811215 86.707575,31.862356 131.52094,33.850518 c 43.14676,-1.498633 84.77893,11.0945 84.97066,40.332495 z"
         sodipodi:nodetypes="cssscs"
         style="display:inline;fill:#21140c;fill-opacity:1;stroke:none;stroke-width:1.10109;stroke-linejoin:round;stroke-dasharray:none;stroke-opacity:1;paint-order:markers fill stroke" />
      <path
         id="shape01"
         fill="#ffffff"
         fill-rule="evenodd"
         stroke="#392526"
         stroke-width="1.2"
         stroke-linecap="square"
         stroke-linejoin="bevel"
         d="m 24.8037,0 c -0.9768,6.17752 -0.4395,9.1402 1.6116,8.88806 3.0768,-0.37822 20.5119,-8.131629 30.0352,2.83664 6.3489,7.3121 8.4489,17.9652 6.3001,31.9592 C 60.1134,57.0475 52.9831,67.0071 41.3597,73.5629 29.7363,80.1186 18.1618,84.279 6.63612,86.044 c -2.53956,0 -4.63959,1.5128 -6.300072,4.5386 -1.660478,3.0257 2.832602,-8.1317 13.479252,-33.4721 -1.8559,3.2779 -1.9047,5.6102 -0.1466,6.997 1.7582,1.3868 6.2513,1.702 13.4792,0.9455 C 39.8772,61.7736 47.3674,54.4983 50.8523,43.2795 54.3372,32.0605 53.2302,25.9092 47.7918,22.3147 41.4983,19.7263 36.1408,18.7733 31.1714,23.0146 26.202,27.2559 21.4641,33.4974 18.7967,39.3344 19.2639,39.4512 20.799,26.2229 24.8037,0 Z"
         sodipodi:nodetypes="czzczczczczczcc"
         style="stroke:#21140c;stroke-opacity:1"
         transform="matrix(1.0911925,0,0,1.0911925,176.70273,80.525153)" />
      <path
         id="shape011"
         transform="matrix(1.0911926,0,0,1.0911926,182.16944,129.90623)"
         fill="#ded6d3"
         fill-rule="evenodd"
         stroke-opacity="0"
         stroke="#000000"
         stroke-width="0"
         stroke-linecap="square"
         stroke-linejoin="bevel"
         d="M 3.17974,34.5848 C 1.99161,36.0127 1.30061,38.6235 0,40.6139 8.64746,39.3627 20.7225,36.0642 26.8832,32.3549 33.3945,29.8052 38.6952,27.0643 45.0532,21.4116 51.4113,15.7589 55.4915,8.2066 56.6571,0 51.5562,18.3012 31.4495,31.4597 3.17974,34.5848 Z"
         sodipodi:nodetypes="ccczcc" />
      <path
         id="shape1"
         fill="#ded6d3"
         fill-rule="evenodd"
         stroke-opacity="0"
         stroke="#000000"
         stroke-width="0"
         stroke-linecap="square"
         stroke-linejoin="bevel"
         d="M 1.16801,0.992915 C -0.215899,2.39372 0.89855,7.63276 0,8.81856 2.24,5.80787 2.8607,3.96147 8.52645,4.02973 11.7683,3.90246 16.632152,5.4462303 17.472652,6.0676503 19.807139,7.5988084 13.6908,0.58889 8.87685,0.292111 5.67325,-0.694538 1.43083,1.14735 1.16801,0.992915 Z"
         sodipodi:nodetypes="cccccc"
         transform="matrix(1.0911926,0,0,1.0911926,209.952,97.672637)" />
      <path
         id="shape2"
         transform="matrix(1.0911926,0,0,1.0911926,43.029055,37.014555)"
         fill="#ffffff"
         fill-rule="evenodd"
         stroke="#2b0000"
         stroke-width="0.96"
         stroke-linecap="square"
         stroke-linejoin="bevel"
         d="m 155.028,35.3319 c 0.381,58.339 -26.111,103.6791 -38.913,108.2911 -9.902,3.567 -68.9112,2.4 -73.8362,0 C 23.6248,134.533 -1.61155,70.0818 0.0808431,31.236 0.980207,10.5928 41.9787,-1.57006 81.0137,0.16354 118.597,-1.14321 154.861,9.83751 155.028,35.3319 Z"
         sodipodi:nodetypes="cssscs"
         style="stroke-width:0.959611;stroke-linejoin:round;stroke-dasharray:none;paint-order:markers fill stroke;stroke:#21140c;stroke-opacity:1" />
      <path
         id="shape3"
         transform="matrix(1.0911926,0,0,1.0911926,46.883838,43.140108)"
         fill="#ded6d3"
         fill-rule="evenodd"
         stroke-opacity="0"
         stroke="#000000"
         stroke-width="0"
         stroke-linecap="square"
         stroke-linejoin="bevel"
         d="M 5.19147,40.5728 C 12.8049,25.6007 41.0809,13.1766 73.0527,12.891 c 31.9713,-0.2856 59.9923,6.66 71.0823,27.4487 3.519,-2.6066 7.507,-13.7001 -0.03,-22.35 C 130.786,6.0725 107.17,0.0836878 73.9297,8.87255e-4 40.6886,-0.0819133 18.894,5.62849 5.65867,18.0303 -1.01765,26.7976 -2.53136,34.5757 5.19147,40.5728 Z"
         sodipodi:nodetypes="czcczcc" />
      <path
         id="shape4"
         transform="matrix(1.0911926,0,0,1.0911926,142.57561,103.34271)"
         fill="#ded6d3"
         fill-rule="evenodd"
         stroke-opacity="0"
         stroke="#000000"
         stroke-width="0"
         stroke-linecap="square"
         stroke-linejoin="bevel"
         d="M 61.805068,0.07566334 C 61.333919,5.0620485 60.378625,11.599986 58.4752,19.5072 55.1361,32.5936 49.4379,51.0386 41.4223,63.7747 36.7968,72.2244 28.8851,81.372 25.771,82.1124 18.698553,84.306834 4.389421,84.588638 0.45802336,84.536466 -3.7502746,84.692766 10.2885,84.4232 22.5006,75.6884 41.7017,63.7948 52.962768,32.071163 61.805068,0.07566334 Z"
         sodipodi:nodetypes="ccccccc" />
      <path
         id="shape0111"
         transform="matrix(1.0911926,0,0,1.0911926,52.399336,57.07928)"
         fill="#8d5943"
         fill-rule="evenodd"
         stroke-opacity="0"
         stroke="#000000"
         stroke-width="0"
         stroke-linecap="square"
         stroke-linejoin="bevel"
         d="M 67.9981,0 C 107.987,0.658804 129.863,9.34631 138.621,26.8671 142.919,31.3294 103.867,42.5192 65.6621,41.8146 30.8519,41.8284 -4.41755,30.6766 0.452699,26.6121 9.0671,12.6445 32.916,2.18441 67.9981,0 Z"
         sodipodi:nodetypes="ccccc" />
      <path
         id="shape02"
         transform="matrix(1.0911926,0,0,1.0911926,52.803112,65.746019)"
         fill="#2b0000"
         fill-rule="evenodd"
         stroke-opacity="0"
         stroke="#000000"
         stroke-width="0"
         stroke-linecap="square"
         stroke-linejoin="bevel"
         d="M 26.9814,0 C -11.9892,30.5269 102.236,36.3218 43.9356,32.3838 18.4705,28.5685 -0.107888,22.1159 4.71549e-4,18.8049 1.5599,14.3037 10.8364,6.8366 26.9814,0 Z"
         sodipodi:nodetypes="cccc" />
      <circle
         id="shape5"
         transform="matrix(1.0911926,0,0,1.0911926,84.481322,129.58406)"
         cx="9.6000004"
         cy="9.6000004"
         fill="#000000"
         fill-rule="evenodd"
         stroke="#000000"
         stroke-width="1.3296"
         stroke-linecap="square"
         stroke-linejoin="bevel"
         r="9.6000004" />
      <circle
         id="shape03"
         transform="matrix(1.0911925,0,0,1.0911925,151.22612,130.07164)"
         cx="9.6000004"
         cy="9.6000004"
         fill="#000000"
         stroke="#000000"
         stroke-width="1.3296"
         stroke-linecap="square"
         stroke-linejoin="bevel"
         r="9.6000004" />
      <ellipse
         id="shape6"
         transform="matrix(1.0911926,0,0,1.0911926,162.26153,132.72669)"
         rx="3"
         ry="2.8800001"
         cx="3"
         cy="2.8800001"
         fill="#ffffff"
         fill-rule="evenodd"
         stroke="#ffffff"
         stroke-width="1.3296"
         stroke-linecap="square"
         stroke-linejoin="bevel" />
      <ellipse
         id="shape04"
         transform="matrix(1.0911926,0,0,1.0911926,96.293022,132.69683)"
         rx="3"
         ry="2.8800001"
         cx="3"
         cy="2.8800001"
         fill="#ffffff"
         fill-rule="evenodd"
         stroke="#ffffff"
         stroke-width="1.3296"
         stroke-linecap="square"
         stroke-linejoin="bevel" />
      <path
         id="shape7"
         transform="matrix(1.0911926,0,0,1.0911926,114.11474,151.38956)"
         fill="#ffffff"
         fill-rule="evenodd"
         stroke="#000000"
         stroke-width="2.4"
         stroke-linecap="square"
         stroke-linejoin="bevel"
         d="M 1.31113,0.169706 C -0.959641,4.95645 -0.280819,7.81316 3.3476,8.73984 6.92228,10.4744 12.4938,6.84539 12.5966,4.24264 13.549,7.86583 16.0946,9.44975 20.2333,8.9944 25.2119,9.26977 26.4847,6.27163 24.0517,0"
         sodipodi:nodetypes="ccccc" />
      <ellipse
         id="shape05"
         transform="matrix(1.0911926,0,0,1.0911926,162.26153,132.72669)"
         rx="3"
         ry="2.8800001"
         cx="3"
         cy="2.8800001"
         fill="#ffffff"
         fill-rule="evenodd"
         stroke="#ffffff"
         stroke-width="1.3296"
         stroke-linecap="square"
         stroke-linejoin="bevel" />
    </g>
  </g>
</svg>
