<?xml version="1.0" encoding="UTF-8" standalone="no"?>
<!-- Created using Krita: https://krita.org -->

<svg
   width="365.164pt"
   height="106.677pt"
   viewBox="0 0 365.16399 106.677"
   version="1.1"
   id="svg2"
   xmlns="http://www.w3.org/2000/svg"
   xmlns:svg="http://www.w3.org/2000/svg">
  <defs
     id="defs1" />
  <path
     d="m 15.504,-27.216 c -7.728,0 -14.064,6.288 -14.064,13.92 0,7.68 6.336,13.92 14.112,13.92 7.728,0 14.16,-6.24 14.16,-13.728 0,-7.92 -6.192,-14.112 -14.208,-14.112 z m 0.048,5.856 c 4.272,0 7.728,3.6 7.728,8.064 0,4.464 -3.456,8.064 -7.68,8.064 -4.32,0 -7.728,-3.6 -7.728,-8.16 0,-4.368 3.456,-7.968 7.68,-7.968 z M 39.599936,0 h 3.936 l 5.136,-17.232 5.04,17.232 h 3.984 l 9.6,-26.592 h -6.816 l -4.848,16.224 -4.368,-16.224 h -5.088 l -4.464,16.224 -4.752,-16.224 h -6.864 z m 42.479931,-27.216 c -7.728,0 -14.064,6.288 -14.064,13.92 0,7.68 6.336,13.92 14.112,13.92 7.728,0 14.16,-6.24 14.16,-13.728 0,-7.92 -6.192,-14.112 -14.208,-14.112 z m 0.048,5.856 c 4.272,0 7.728,3.6 7.728,8.064 0,4.464 -3.456,8.064 -7.68,8.064 -4.32,0 -7.728,-3.6 -7.728,-8.16 0,-4.368 3.456,-7.968 7.68,-7.968 z M 100.12781,0 h 6.384 v -6.144 h -6.384 z m 31.63204,-8.736 c -1.584,2.448 -3.408,3.504 -6.048,3.504 -4.416,0 -7.728,-3.456 -7.728,-8.112 0,-4.704 3.12,-8.016 7.584,-8.016 2.88,0 4.896,1.2 6.192,3.648 h 7.2 c -0.912,-2.688 -1.776,-4.08 -3.6,-5.76 -2.592,-2.4 -6.096,-3.744 -9.792,-3.744 -7.872,0 -14.016,6.096 -14.016,13.92 0,7.728 6.336,13.92 14.208,13.92 6.24,0 10.992,-3.408 13.2,-9.36 z m 37.872,-17.856 h -5.856 v 3.552 c -2.208,-2.928 -4.848,-4.176 -8.688,-4.176 -7.872,0 -13.536,5.904 -13.536,14.016 0,8.016 5.616,13.824 13.392,13.824 3.744,0 6.288,-1.152 8.832,-4.08 V 0 h 5.856 z m -13.872,5.232 c 4.56,0 7.824,3.408 7.824,8.256 0,1.92 -0.768,4.128 -1.92,5.472 -1.296,1.584 -3.36,2.4 -5.808,2.4 -4.656,0 -7.872,-3.168 -7.872,-7.824 0,-4.848 3.216,-8.304 7.776,-8.304 z M 174.57584,0 h 6.384 v -20.784 h 3.6 v -5.328 h -3.6 c 0.048,-2.448 0.864,-3.216 3.408,-3.216 h 0.576 v -6.048 c -0.768,-0.096 -1.104,-0.096 -1.584,-0.096 -2.784,0 -5.04,1.008 -6.672,2.976 -1.296,1.536 -1.776,3.072 -2.112,6.384 h -2.304 v 5.328 h 2.304 z m 39.07205,-10.464 c 0.192,-0.96 0.24,-1.536 0.24,-2.496 0,-8.208 -5.808,-14.256 -13.728,-14.256 -7.824,0 -14.016,6.192 -14.016,14.016 0,7.776 6.288,13.824 14.4,13.824 4.368,0 7.776,-1.584 10.56,-4.8 1.008,-1.248 1.68,-2.352 2.112,-3.696 h -6.96 c -1.632,1.92 -3.216,2.64 -5.856,2.64 -3.792,0 -6.576,-2.016 -7.344,-5.232 z m -20.784,-5.616 c 1.008,-3.456 3.6,-5.28 7.392,-5.28 3.936,0 6.528,1.872 7.344,5.28 z"
     id="text1"
     style="font-weight:600;font-size:48px;font-family:'URW Gothic';letter-spacing:0;word-spacing:0;fill:#2b0000;stroke:#000000;stroke-width:0;stroke-linecap:square;stroke-linejoin:bevel;stroke-opacity:0"
     transform="translate(151.27598,74.127105)"
     aria-label="owo.cafe" />
  <path
     d="m 15.504,-27.216 c -7.728,0 -14.064,6.288 -14.064,13.92 0,7.68 6.336,13.92 14.112,13.92 7.728,0 14.16,-6.24 14.16,-13.728 0,-7.92 -6.192,-14.112 -14.208,-14.112 z m 0.048,5.856 c 4.272,0 7.728,3.6 7.728,8.064 0,4.464 -3.456,8.064 -7.68,8.064 -4.32,0 -7.728,-3.6 -7.728,-8.16 0,-4.368 3.456,-7.968 7.68,-7.968 z M 39.599936,0 h 3.936 l 5.136,-17.232 5.04,17.232 h 3.984 l 9.6,-26.592 h -6.816 l -4.848,16.224 -4.368,-16.224 h -5.088 l -4.464,16.224 -4.752,-16.224 h -6.864 z m 42.479931,-27.216 c -7.728,0 -14.064,6.288 -14.064,13.92 0,7.68 6.336,13.92 14.112,13.92 7.728,0 14.16,-6.24 14.16,-13.728 0,-7.92 -6.192,-14.112 -14.208,-14.112 z m 0.048,5.856 c 4.272,0 7.728,3.6 7.728,8.064 0,4.464 -3.456,8.064 -7.68,8.064 -4.32,0 -7.728,-3.6 -7.728,-8.16 0,-4.368 3.456,-7.968 7.68,-7.968 z M 100.12781,0 h 6.384 v -6.144 h -6.384 z m 31.63204,-8.736 c -1.584,2.448 -3.408,3.504 -6.048,3.504 -4.416,0 -7.728,-3.456 -7.728,-8.112 0,-4.704 3.12,-8.016 7.584,-8.016 2.88,0 4.896,1.2 6.192,3.648 h 7.2 c -0.912,-2.688 -1.776,-4.08 -3.6,-5.76 -2.592,-2.4 -6.096,-3.744 -9.792,-3.744 -7.872,0 -14.016,6.096 -14.016,13.92 0,7.728 6.336,13.92 14.208,13.92 6.24,0 10.992,-3.408 13.2,-9.36 z m 37.872,-17.856 h -5.856 v 3.552 c -2.208,-2.928 -4.848,-4.176 -8.688,-4.176 -7.872,0 -13.536,5.904 -13.536,14.016 0,8.016 5.616,13.824 13.392,13.824 3.744,0 6.288,-1.152 8.832,-4.08 V 0 h 5.856 z m -13.872,5.232 c 4.56,0 7.824,3.408 7.824,8.256 0,1.92 -0.768,4.128 -1.92,5.472 -1.296,1.584 -3.36,2.4 -5.808,2.4 -4.656,0 -7.872,-3.168 -7.872,-7.824 0,-4.848 3.216,-8.304 7.776,-8.304 z M 174.57584,0 h 6.384 v -20.784 h 3.6 v -5.328 h -3.6 c 0.048,-2.448 0.864,-3.216 3.408,-3.216 h 0.576 v -6.048 c -0.768,-0.096 -1.104,-0.096 -1.584,-0.096 -2.784,0 -5.04,1.008 -6.672,2.976 -1.296,1.536 -1.776,3.072 -2.112,6.384 h -2.304 v 5.328 h 2.304 z m 39.07205,-10.464 c 0.192,-0.96 0.24,-1.536 0.24,-2.496 0,-8.208 -5.808,-14.256 -13.728,-14.256 -7.824,0 -14.016,6.192 -14.016,14.016 0,7.776 6.288,13.824 14.4,13.824 4.368,0 7.776,-1.584 10.56,-4.8 1.008,-1.248 1.68,-2.352 2.112,-3.696 h -6.96 c -1.632,1.92 -3.216,2.64 -5.856,2.64 -3.792,0 -6.576,-2.016 -7.344,-5.232 z m -20.784,-5.616 c 1.008,-3.456 3.6,-5.28 7.392,-5.28 3.936,0 6.528,1.872 7.344,5.28 z"
     id="shape021"
     style="font-weight:600;font-size:48px;font-family:'URW Gothic';letter-spacing:0;word-spacing:0;fill:#bd2222;stroke:#000000;stroke-width:0.48;stroke-linecap:square;stroke-linejoin:bevel;stroke-opacity:0"
     transform="translate(150.13269,72.485928)"
     aria-label="owo.cafe" />
  <path
     id="shape0"
     fill="#ffffff"
     fill-rule="evenodd"
     stroke="#392526"
     stroke-width="1.2"
     stroke-linecap="square"
     stroke-linejoin="bevel"
     d="m 24.8037,0 c -0.9768,6.17752 -0.4395,9.1402 1.6116,8.88806 3.0768,-0.37822 20.5119,-8.131629 30.0352,2.83664 6.3489,7.3121 8.4489,17.9652 6.3001,31.9592 C 60.1134,57.0475 52.9831,67.0071 41.3597,73.5629 29.7363,80.1186 18.1618,84.279 6.63612,86.044 c -2.53956,0 -4.63959,1.5128 -6.300072,4.5386 -1.660478,3.0257 2.832602,-8.1317 13.479252,-33.4721 -1.8559,3.2779 -1.9047,5.6102 -0.1466,6.997 1.7582,1.3868 6.2513,1.702 13.4792,0.9455 C 39.8772,61.7736 47.3674,54.4983 50.8523,43.2795 54.3372,32.0605 53.2302,25.9092 47.7918,22.3147 41.4983,19.7263 36.1408,18.7733 31.1714,23.0146 26.202,27.2559 21.4641,33.4974 18.7967,39.3344 19.2639,39.4512 20.799,26.2229 24.8037,0 Z"
     style="fill:#bfbfbf;fill-opacity:1"
     transform="matrix(0.72647526,0,0,0.72647526,89.343818,29.316616)" />
  <path
     id="shape01"
     fill="#ded6d3"
     fill-rule="evenodd"
     stroke-opacity="0"
     stroke="#000000"
     stroke-width="0"
     stroke-linecap="square"
     stroke-linejoin="bevel"
     d="M 3.17974,34.5848 C 1.99161,36.0127 1.30061,38.6235 0,40.6139 8.64746,39.3627 20.7225,36.0642 26.8832,32.3549 33.3945,29.8052 38.6952,27.0643 45.0532,21.4116 51.4113,15.7589 55.4915,8.2066 56.6571,0 51.5562,18.3012 31.4495,31.4597 3.17974,34.5848 Z"
     style="fill:#9a9a9a;fill-opacity:1"
     transform="matrix(0.72647528,0,0,0.72647528,92.98335,62.192694)" />
  <path
     id="shape1"
     fill="#ded6d3"
     fill-rule="evenodd"
     stroke-opacity="0"
     stroke="#000000"
     stroke-width="0"
     stroke-linecap="square"
     stroke-linejoin="bevel"
     d="M 1.16801,0.992914 C -0.215899,2.39372 0.89855,7.63276 0,8.81856 2.24,5.80787 2.8607,3.96147 8.52645,4.02973 11.7683,3.90246 16.3292,5.74433 17.1697,6.36575 19.3349,8.20159 13.6908,0.588889 8.87685,0.29211 5.67325,-0.694539 1.43083,1.14735 1.16801,0.992914 Z"
     style="fill:#989898;fill-opacity:1"
     transform="matrix(0.72647528,0,0,0.72647528,111.47994,40.732771)" />
  <path
     id="shape2"
     fill="#ffffff"
     fill-rule="evenodd"
     stroke="#2b0000"
     stroke-width="0.96"
     stroke-linecap="square"
     stroke-linejoin="bevel"
     d="m 155.028,35.3319 c 0.381,58.339 -26.111,103.6791 -38.913,108.2911 -9.902,3.567 -68.9112,2.4 -73.8362,0 C 23.6248,134.533 -1.61155,70.0818 0.0808433,31.236 0.980207,10.5928 41.9787,-1.57006 81.0137,0.16354 118.597,-1.14321 154.861,9.83751 155.028,35.3319 Z"
     style="fill:#c0c0c0;fill-opacity:1"
     transform="matrix(0.72647528,0,0,0.72647528,0.34887523,0.34888418)" />
  <path
     id="shape3"
     fill="#ded6d3"
     fill-rule="evenodd"
     stroke-opacity="0"
     stroke="#000000"
     stroke-width="0"
     stroke-linecap="square"
     stroke-linejoin="bevel"
     d="M 5.19147,40.5728 C 12.8049,25.6007 41.0809,13.1766 73.0527,12.891 c 31.9713,-0.2856 59.9923,6.66 71.0823,27.4487 3.519,-2.6066 7.507,-13.7001 -0.03,-22.35 C 130.786,6.0725 107.17,0.0836878 73.9297,8.87256e-4 40.6886,-0.0819133 18.894,5.62849 5.65867,18.0303 -1.01765,26.7976 -2.53136,34.5757 5.19147,40.5728 Z"
     style="fill:#999999;fill-opacity:1"
     transform="matrix(0.72647528,0,0,0.72647528,2.9152431,4.4270485)" />
  <path
     id="shape4"
     fill="#ded6d3"
     fill-rule="evenodd"
     stroke-opacity="0"
     stroke="#000000"
     stroke-width="0"
     stroke-linecap="square"
     stroke-linejoin="bevel"
     d="M 61.8054,0 C 62.3215,0.143041 60.6015,11.3578 58.4752,19.5072 55.1361,32.5936 49.4379,51.0386 41.4223,63.7747 36.7968,72.2244 28.8851,81.372 25.771,82.1124 18.9109,84.4459 3.8648,84.7283 0.775677,84.682 -3.43262,84.8383 10.2885,84.4232 22.5006,75.6884 41.7017,63.7948 52.9631,31.9955 61.8054,0 Z"
     style="fill:#999999;fill-opacity:1"
     transform="matrix(0.72647528,0,0,0.72647528,66.62326,44.507694)" />
  <path
     id="shape011"
     fill="#8d5943"
     fill-rule="evenodd"
     stroke-opacity="0"
     stroke="#000000"
     stroke-width="0"
     stroke-linecap="square"
     stroke-linejoin="bevel"
     d="M 67.9981,0 C 107.987,0.658804 129.863,9.34631 138.621,26.8671 142.919,31.3294 103.867,42.5192 65.6621,41.8146 30.8519,41.8284 -4.41755,30.6766 0.452699,26.6121 9.0671,12.6445 32.916,2.18441 67.9981,0 Z"
     style="fill:#bd2222;fill-opacity:1"
     transform="matrix(0.72647528,0,0,0.72647528,6.5872584,13.707229)" />
  <path
     id="shape02"
     fill="#2b0000"
     fill-rule="evenodd"
     stroke-opacity="0"
     stroke="#000000"
     stroke-width="0"
     stroke-linecap="square"
     stroke-linejoin="bevel"
     d="M 26.9814,0 C -11.9892,30.5269 102.236,36.3218 43.9356,32.3838 18.4705,28.5685 -0.107888,22.1159 4.71548e-4,18.8049 1.5599,14.3037 10.8364,6.8366 26.9814,0 Z"
     style="fill:#701a06;fill-opacity:1"
     transform="matrix(0.72647528,0,0,0.72647528,6.8560774,19.477221)" />
  <path
     style="fill:#999999;fill-opacity:1;stroke-width:0.904253;stroke-linecap:round;stroke-linejoin:round;paint-order:markers fill stroke"
     d="m 29.548024,75.148376 c 0,0 5.221554,2.829399 11.928731,-1.650871 0,0 -1.252937,4.772502 -4.036573,5.481061 -2.783636,0.708559 -8.418518,0.863256 -9.057008,-5.536486 z"
     id="path8"
     transform="translate(-0.01665821,-0.97230825)" />
  <path
     style="fill:#999999;fill-opacity:1;stroke-width:0.904253;stroke-linecap:round;stroke-linejoin:round;paint-order:markers fill stroke"
     d="m 84.806289,75.385062 c 0,0 -5.221554,2.829399 -11.928731,-1.650871 0,0 1.252937,4.772502 4.036573,5.481061 2.783636,0.708559 8.418518,0.863256 9.057008,-5.536486 z"
     id="path9"
     transform="translate(-0.01665821,-0.97230825)" />
  <circle
     id="shape5"
     cx="9.6000004"
     cy="9.6000004"
     fill="#000000"
     fill-rule="evenodd"
     stroke="#000000"
     stroke-width="1.3296"
     stroke-linecap="square"
     stroke-linejoin="bevel"
     r="9.6000004"
     transform="matrix(0.72647528,0,0,0.72647528,27.946248,61.978203)" />
  <path
     style="fill:#ffffff;fill-opacity:1;stroke-width:0.904253;stroke-linecap:round;stroke-linejoin:round;paint-order:markers fill stroke"
     d="m 47.48493,82.822852 1.907448,5.645762 1.349294,-3.726173 z"
     id="path3"
     transform="translate(-0.01665821,-0.97230825)" />
  <path
     style="fill:#ffffff;fill-opacity:1;stroke-width:0.916258;stroke-linecap:round;stroke-linejoin:round;paint-order:markers fill stroke"
     d="m 66.428058,82.81462 -2.1175,5.593211 -0.932365,-3.625246 z"
     id="path4"
     transform="translate(-0.01665821,-0.97230825)" />
  <path
     style="fill:#dadada;fill-opacity:1;stroke-width:0.904253;stroke-linecap:round;stroke-linejoin:round;paint-order:markers fill stroke"
     d="m 49.594718,84.230563 c 0.559364,1.367154 -0.0074,2.848273 -0.189009,4.290422 l 1.338127,-3.749164 z"
     id="path10"
     transform="translate(-0.01665821,-0.97230825)" />
  <path
     style="fill:#dadada;fill-opacity:1;stroke-width:0.904253;stroke-linecap:round;stroke-linejoin:round;paint-order:markers fill stroke"
     d="m 64.154349,84.229342 c -0.559364,1.367154 0.0074,2.848273 0.189009,4.290422 L 63.005231,84.7706 Z"
     id="path11"
     transform="translate(-0.01665821,-0.97230825)" />
  <circle
     id="shape03"
     cx="9.6000004"
     cy="9.6000004"
     fill="#000000"
     stroke="#000000"
     stroke-width="1.3296"
     stroke-linecap="square"
     stroke-linejoin="bevel"
     r="9.6000004"
     transform="matrix(0.72647524,0,0,0.72647524,72.38244,62.302815)" />
  <ellipse
     id="shape6"
     rx="3"
     ry="2.8800001"
     cx="3"
     cy="2.8800001"
     fill="#ffffff"
     fill-rule="evenodd"
     stroke="#ffffff"
     stroke-width="1.3296"
     stroke-linecap="square"
     stroke-linejoin="bevel"
     transform="matrix(0.72647528,0,0,0.72647528,79.72941,64.070453)" />
  <ellipse
     id="shape04"
     rx="3"
     ry="2.8800001"
     cx="3"
     cy="2.8800001"
     fill="#ffffff"
     fill-rule="evenodd"
     stroke="#ffffff"
     stroke-width="1.3296"
     stroke-linecap="square"
     stroke-linejoin="bevel"
     transform="matrix(0.72647528,0,0,0.72647528,35.810037,64.05057)" />
  <path
     id="shape7"
     fill="#ffffff"
     fill-rule="evenodd"
     stroke="#000000"
     stroke-width="2.4"
     stroke-linecap="square"
     stroke-linejoin="bevel"
     d="M 1.31113,0.169706 C -0.959641,4.95645 -0.280819,7.81316 3.3476,8.73984 6.92228,10.4744 12.4938,6.84539 12.5966,4.24264 13.549,7.86583 16.0946,9.44975 20.2333,8.9944 25.2119,9.26977 26.4847,6.27163 24.0517,0"
     style="fill:#bfbfbf;fill-opacity:1"
     transform="matrix(0.72647528,0,0,0.72647528,47.675071,76.495493)" />
  <ellipse
     id="shape05"
     rx="3"
     ry="2.8800001"
     cx="3"
     cy="2.8800001"
     fill="#ffffff"
     fill-rule="evenodd"
     stroke="#ffffff"
     stroke-width="1.3296"
     stroke-linecap="square"
     stroke-linejoin="bevel"
     transform="matrix(0.72647528,0,0,0.72647528,79.72941,64.070452)" />
  <path
     style="fill:#bd2222;fill-opacity:1;stroke-width:0.904253;stroke-linecap:round;stroke-linejoin:round;paint-order:markers fill stroke"
     d="m 73.867326,73.549858 c 0,0 2.421452,1.635503 5.348378,1.659769 2.893671,0.02399 5.321797,-1.364646 5.321797,-1.364646 0,0 -1.928268,3.249546 -5.407228,3.035427 -3.684321,-0.226758 -5.262947,-3.33055 -5.262947,-3.33055 z"
     id="path2"
     transform="translate(-0.01665821,-0.97230825)" />
  <path
     style="fill:#bd2222;fill-opacity:1;stroke-width:0.904253;stroke-linecap:round;stroke-linejoin:round;paint-order:markers fill stroke"
     d="m 29.466997,73.342327 c 0,0 2.421452,1.635503 5.348378,1.659769 2.893671,0.02399 5.321797,-1.364646 5.321797,-1.364646 0,0 -1.928268,3.249546 -5.407228,3.035427 -3.684321,-0.226758 -5.262947,-3.33055 -5.262947,-3.33055 z"
     id="path2-6"
     transform="translate(-0.01665821,-0.97230825)" />
</svg>
