<?xml version="1.0" standalone="no"?>
<!DOCTYPE svg PUBLIC "-//W3C//DTD SVG 20010904//EN" "http://www.w3.org/TR/2001/REC-SVG-20010904/DTD/svg10.dtd">
<!-- Created using Krita: https://krita.org -->
<svg xmlns="http://www.w3.org/2000/svg" 
    xmlns:xlink="http://www.w3.org/1999/xlink"
    xmlns:krita="http://krita.org/namespaces/svg/krita"
    xmlns:sodipodi="http://sodipodi.sourceforge.net/DTD/sodipodi-0.dtd"
    width="365.28pt"
    height="108.24pt"
    viewBox="0 0 365.28 108.24">
<defs/>
<path id="shape0" transform="matrix(0.72647526335802 0 0 0.72647526335802 89.3604788678854 30.2889259348548)" fill="#ffffff" fill-rule="evenodd" stroke="#392526" stroke-width="1.2" stroke-linecap="square" stroke-linejoin="bevel" d="M24.8037 0C23.8269 6.17752 24.3642 9.1402 26.4153 8.88806C29.4921 8.50984 46.9272 0.756431 56.4505 11.7247C62.7994 19.0368 64.8994 29.6899 62.7506 43.6839C60.1134 57.0475 52.9831 67.0071 41.3597 73.5629C29.7363 80.1186 18.1618 84.279 6.63612 86.044C4.09656 86.044 1.99653 87.5568 0.336048 90.5826C-1.32443 93.6083 3.16865 82.4509 13.8153 57.1105C11.9594 60.3884 11.9106 62.7207 13.6687 64.1075C15.4269 65.4943 19.92 65.8095 27.1479 65.053C39.8772 61.7736 47.3674 54.4983 50.8523 43.2795C54.3372 32.0605 53.2302 25.9092 47.7918 22.3147C41.4983 19.7263 36.1408 18.7733 31.1714 23.0146C26.202 27.2559 21.4641 33.4974 18.7967 39.3344C19.2639 39.4512 20.799 26.2229 24.8037 0Z" sodipodi:nodetypes="czzczczczczczcc"/><path id="shape01" transform="matrix(0.726475285199972 0 0 0.726475285199972 93.0000071748737 63.1650033722094)" fill="#ded6d3" fill-rule="evenodd" stroke-opacity="0" stroke="#000000" stroke-width="0" stroke-linecap="square" stroke-linejoin="bevel" d="M3.17974 34.5848C1.99161 36.0127 1.30061 38.6235 0 40.6139C8.64746 39.3627 20.7225 36.0642 26.8832 32.3549C33.3945 29.8052 38.6952 27.0643 45.0532 21.4116C51.4113 15.7589 55.4915 8.2066 56.6571 0C51.5562 18.3012 31.4495 31.4597 3.17974 34.5848Z" sodipodi:nodetypes="ccczcc"/><path id="shape1" transform="matrix(0.726475285199972 0 0 0.726475285199972 111.45417386115 41.70508114941)" fill="#ded6d3" fill-rule="evenodd" stroke-opacity="0" stroke="#000000" stroke-width="0" stroke-linecap="square" stroke-linejoin="bevel" d="M1.22641 0.992915C-0.157502 2.39372 0.89855 7.22396 0 8.40976C2.2489 5.46139 3.00814 4.58476 8.58485 4.02973C11.8267 3.90246 16.2913 5.27682 17.1318 5.89824C19.297 7.73408 13.7492 0.58889 8.93525 0.292111C5.73165 -0.694538 1.48923 1.14735 1.22641 0.992915Z" sodipodi:nodetypes="cccccc"/><path id="shape2" transform="matrix(0.726475285199972 0 0 0.726475285199972 0.36553366080856 1.32119347008601)" fill="#ffffff" fill-rule="evenodd" stroke="#2b0000" stroke-width="0.96" stroke-linecap="square" stroke-linejoin="bevel" d="M155.028 35.3319C155.409 93.6709 128.917 139.011 116.115 143.623C106.213 147.19 47.2038 146.023 42.2788 143.623C23.6248 134.533 -1.61155 70.0818 0.080843 31.236C0.980207 10.5928 41.9787 -1.57006 81.0137 0.16354C118.597 -1.14321 154.861 9.83751 155.028 35.3319Z" sodipodi:nodetypes="cssscs"/><path id="shape3" transform="matrix(0.726475285199972 0 0 0.726475285199972 2.93190665834982 5.39935843281871)" fill="#ded6d3" fill-rule="evenodd" stroke-opacity="0" stroke="#000000" stroke-width="0" stroke-linecap="square" stroke-linejoin="bevel" d="M5.19147 40.5728C12.8049 25.6009 41.3073 12.6713 73.0527 12.891C104.798 13.1107 133.045 19.7477 144.135 40.3397C147.654 37.7331 151.642 26.6396 144.105 17.9897C130.786 6.0725 107.17 0.0836878 73.9297 0.000887255C40.6886 -0.0819133 18.894 5.62849 5.65867 18.0303C-1.01765 26.7976 -2.53136 34.5757 5.19147 40.5728Z" sodipodi:nodetypes="czcczcc"/><path id="shape4" transform="matrix(0.726475285199972 0 0 0.726475285199972 66.6399174040494 45.4800038879512)" fill="#ded6d3" fill-rule="evenodd" stroke-opacity="0" stroke="#000000" stroke-width="0" stroke-linecap="square" stroke-linejoin="bevel" d="M61.8054 0C62.4153 0.174291 61.109 11.527 58.4752 19.5072C55.1361 32.5936 49.4379 51.0386 41.4223 63.7747C36.7968 72.2244 28.8851 81.372 25.771 82.1124C18.9109 84.4459 3.8648 84.7283 0.775679 84.682C-3.43262 84.8383 10.2885 84.4232 22.5006 75.6884C41.7017 63.7948 52.9631 31.9955 61.8054 0Z" sodipodi:nodetypes="ccccccc"/><path id="shape011" transform="matrix(0.726475288461571 0 0 0.726475288461571 6.60391659539118 14.6795386725628)" fill="#8d5943" fill-rule="evenodd" stroke-opacity="0" stroke="#000000" stroke-width="0" stroke-linecap="square" stroke-linejoin="bevel" d="M67.9981 0C107.987 0.658804 129.863 9.34631 138.621 26.8671C142.919 31.3294 103.867 42.5192 65.6621 41.8146C30.8519 41.8284 -4.41755 30.6766 0.452699 26.6121C9.0671 12.6445 33.7419 0.69778 67.9981 0Z" sodipodi:nodetypes="ccccc"/><path id="shape02" transform="matrix(0.726475288461571 0 0 0.726475288461571 6.59951508527459 20.1600010352649)" fill="#2b0000" fill-rule="evenodd" stroke-opacity="0" stroke="#000000" stroke-width="0" stroke-linecap="square" stroke-linejoin="bevel" d="M26.76 0C-12.2106 30.5269 102.157 36.809 43.8563 32.871C18.1178 29.5113 -0.127168 23.4956 0.000667556 20.1521C1.54959 15.6299 10.2294 6.06548 26.76 0Z" sodipodi:nodetypes="cccc"/><ellipse id="shape6" transform="matrix(0.726475285199972 0 0 0.726475285199972 79.7460643374673 65.0427630166749)" rx="3" ry="2.88" cx="3" cy="2.88" fill="#ffffff" fill-rule="evenodd" stroke="#ffffff" stroke-width="1.3296" stroke-linecap="square" stroke-linejoin="bevel"/><ellipse id="shape04" transform="matrix(0.726475277701256 0 0 0.726475277701256 35.8266949668796 65.0228805039439)" rx="3" ry="2.88" cx="3" cy="2.88" fill="#ffffff" fill-rule="evenodd" stroke="#ffffff" stroke-width="1.3296" stroke-linecap="square" stroke-linejoin="bevel"/><path id="shape7" transform="matrix(0.726475285199972 0 0 0.726475285199972 47.6917292928956 77.4678012543976)" fill="#ffffff" fill-rule="evenodd" stroke="#000000" stroke-width="2.4" stroke-linecap="square" stroke-linejoin="bevel" d="M1.31113 0.169706C-0.959641 4.95645 -0.280819 7.81316 3.3476 8.73984C6.92228 10.4744 12.4938 6.84539 12.5966 4.24264C13.549 7.86583 16.0946 9.44975 20.2333 8.9944C25.2119 9.26977 26.4847 6.27163 24.0517 0" sodipodi:nodetypes="ccccc"/><ellipse id="shape05" transform="matrix(0.726475277701256 0 0 0.726475277701256 79.7460642857386 65.0427620034484)" rx="3" ry="2.88" cx="3" cy="2.88" fill="#ffffff" fill-rule="evenodd" stroke="#ffffff" stroke-width="1.3296" stroke-linecap="square" stroke-linejoin="bevel"/><text id="shape0111" krita:useRichText="true" krita:textVersion="2" transform="matrix(1.00000001336732 0 0 1.00000001336732 151.29264094834 75.0994148678462)" fill="#2b0000" stroke-opacity="0" stroke="#000000" stroke-width="0" stroke-linecap="square" stroke-linejoin="bevel" font-family="URW Gothic" font-size="48" font-size-adjust="0.514706" font-stretch="normal" font-weight="600" letter-spacing="0" word-spacing="0"><tspan x="0">owo.cafe</tspan></text><path id="shape01" transform="matrix(1.00000000395378 0 0 1.00000000395378 151.586848772666 37.9894379653666)" fill="#8d5943" fill-rule="evenodd" stroke-opacity="0" stroke="#000000" stroke-width="0.48" stroke-linecap="square" stroke-linejoin="bevel" d="M14.0625 8.25C6.34375 8.25 0 14.5313 0 22.1719C0 29.8594 6.34375 36.0938 14.1094 36.0938C21.8438 36.0938 28.2813 29.8594 28.2813 22.3594C28.2813 14.4375 22.0781 8.25 14.0625 8.25M14.1094 14.1094C18.3906 14.1094 21.8438 17.7032 21.8438 22.1719C21.8438 26.6407 18.3906 30.2344 14.1719 30.2344C9.8438 30.2344 6.4375 26.6407 6.4375 22.0782C6.4375 17.7032 9.8906 14.1094 14.1094 14.1094M38.1563 35.4688L42.0938 35.4688L47.2344 18.2344L52.2656 35.4688L56.25 35.4688L65.8594 8.875L59.0469 8.875L54.1875 25.0938L49.8281 8.875L44.7344 8.875L40.2656 25.0938L35.5156 8.875L28.6563 8.875L38.1563 35.4688M80.625 8.25C72.9063 8.25 66.5625 14.5313 66.5625 22.1719C66.5625 29.8594 72.9063 36.0938 80.6719 36.0938C88.4063 36.0938 94.8438 29.8594 94.8438 22.3594C94.8438 14.4375 88.6406 8.25 80.625 8.25M80.6719 14.1094C84.9531 14.1094 88.4063 17.7032 88.4063 22.1719C88.4063 26.6407 84.9531 30.2344 80.7344 30.2344C76.4063 30.2344 73 26.6407 73 22.0782C73 17.7032 76.4531 14.1094 80.6719 14.1094M98.6715 35.4688L105.063 35.4688L105.063 29.3282L98.6715 29.3282L98.6715 35.4688M130.313 26.7344C128.719 29.1876 126.906 30.2344 124.266 30.2344C119.844 30.2344 116.531 26.7813 116.531 22.125C116.531 17.4219 119.656 14.1094 124.109 14.1094C127 14.1094 129.016 15.3125 130.313 17.75L137.5 17.75C136.594 15.0625 135.734 13.6719 133.906 12C131.313 9.5938 127.813 8.25 124.109 8.25C116.234 8.25 110.094 14.3438 110.094 22.1719C110.094 29.9063 116.438 36.0938 124.313 36.0938C130.547 36.0938 135.297 32.6876 137.5 26.7344L130.313 26.7344M168.172 8.875L162.328 8.875L162.328 12.4219C160.109 9.5 157.469 8.25 153.641 8.25C145.766 8.25 140.094 14.1563 140.094 22.2657C140.094 30.2813 145.719 36.0938 153.484 36.0938C157.234 36.0938 159.781 34.9376 162.328 32.0157L162.328 35.4688L168.172 35.4688L168.172 8.875M154.313 14.1094C158.859 14.1094 162.125 17.5157 162.125 22.3594C162.125 24.2813 161.359 26.4844 160.203 27.8438C158.922 29.4219 156.844 30.2344 154.406 30.2344C149.75 30.2344 146.531 27.0626 146.531 22.4063C146.531 17.5625 149.75 14.1094 154.313 14.1094M173.109 35.4688L179.5 35.4688L179.5 14.6875L183.094 14.6875L183.094 9.3594L179.5 9.3594C179.547 6.9063 180.359 6.1407 182.906 6.1407L183.484 6.1407L183.484 0.0938C182.719 0 182.375 0 181.891 0C179.109 0 176.859 1 175.219 2.9688C173.922 4.5 173.453 6.0469 173.109 9.3594L170.813 9.3594L170.813 14.6875L173.109 14.6875L173.109 35.4688M212.188 25C212.375 24.0469 212.422 23.4688 212.422 22.5C212.422 14.2969 206.609 8.25 198.688 8.25C190.875 8.25 184.672 14.4375 184.672 22.2657C184.672 30.0469 190.969 36.0938 199.078 36.0938C203.438 36.0938 206.859 34.5157 209.641 31.2969C210.641 30.0469 211.313 28.9376 211.75 27.5938L204.781 27.5938C203.156 29.5157 201.578 30.2344 198.938 30.2344C195.141 30.2344 192.359 28.2188 191.594 25L212.188 25M191.391 19.3907C192.406 15.9375 195 14.1094 198.781 14.1094C202.719 14.1094 205.313 15.9844 206.141 19.3907L191.391 19.3907" sodipodi:nodetypes="cccccccccccccccccccccccccccccccccccccccccccccccccccccccccccccccccccccccccccccccccccccccccccccccccc"/><path id="shape71" transform="matrix(0.726475248748626 0 0 0.726475248748626 75.3580298187811 67.310441647038)" fill="#ffffff" fill-rule="evenodd" stroke="#000000" stroke-width="2.4" stroke-linecap="square" stroke-linejoin="bevel" d="M0.0438019 0C-0.162205 5.77783 0.161223 8.65255 5.44145 8.67074C10.9157 8.67089 11.0081 5.41083 11.1109 1.06581e-14" sodipodi:nodetypes="ccc"/><path id="shape72" transform="matrix(0.726475222077159 0 0 0.726475222077159 30.845801242685 66.567135109968)" fill="#ffffff" fill-rule="evenodd" stroke="#000000" stroke-width="2.4" stroke-linecap="square" stroke-linejoin="bevel" d="M0.0438019 0C-0.162205 5.77783 0.161223 8.65255 5.44145 8.67074C10.9157 8.67089 11.0081 5.41083 11.1109 1.06581e-14" sodipodi:nodetypes="ccc"/>
</svg>
